<svg width="80" height="80" viewBox="0 0 80 80" fill="none" xmlns="http://www.w3.org/2000/svg">
<rect x="1" y="1" width="78" height="78" rx="14" stroke="#0D0D0D" stroke-width="2"/>
<path fill-rule="evenodd" clip-rule="evenodd" d="M54.8702 32.7769V29.2372C54.8702 29.0071 54.7756 28.8031 54.6253 28.6528C54.4751 28.5025 54.2654 28.4079 54.0409 28.4079H22.1094C21.8793 28.4079 21.6753 28.5025 21.525 28.6528C21.3747 28.8031 21.2801 29.0127 21.2801 29.2372V32.7769H54.8702ZM26.6636 31.6563C26.3593 31.6563 26.1089 31.4059 26.1089 31.1016C26.1089 30.7974 26.3593 30.5469 26.6636 30.5469C26.9678 30.5469 27.2183 30.7974 27.2183 31.1016C27.2183 31.4059 26.9678 31.6563 26.6636 31.6563ZM29.2534 31.6563C28.9492 31.6563 28.6987 31.4059 28.6987 31.1016C28.6987 30.7974 28.9491 30.5469 29.2534 30.5469C29.5577 30.5469 29.8081 30.7974 29.8081 31.1016C29.8081 31.4059 29.5577 31.6563 29.2534 31.6563ZM31.8433 31.6563C31.539 31.6563 31.2885 31.4059 31.2885 31.1016C31.2885 30.7974 31.539 30.5469 31.8433 30.5469C32.1475 30.5469 32.398 30.7974 32.398 31.1016C32.398 31.4059 32.1475 31.6563 31.8433 31.6563ZM48.6107 31.6563C48.3065 31.6563 48.056 31.4059 48.056 31.1016C48.056 30.7974 48.3065 30.5469 48.6107 30.5469H52.3749C52.6792 30.5469 52.9297 30.7974 52.9297 31.1016C52.9297 31.4059 52.6792 31.6563 52.3749 31.6563H48.6107ZM51.5902 25.4765V27.2965L22.1093 27.2983C21.575 27.2983 21.0889 27.5135 20.7401 27.8679C20.3895 28.2222 20.1706 28.7027 20.1706 29.237V44.8746H18.8311C18.6011 44.8746 18.397 44.78 18.2467 44.6297C18.0965 44.4794 18.0019 44.2698 18.0019 44.0453L18 25.4783H51.5905L51.5902 25.4765ZM18.0054 24.369H51.5959V20.8293C51.5959 20.5992 51.5012 20.3952 51.351 20.2449C51.2007 20.0946 50.9911 20 50.7666 20H18.835C18.605 20 18.4009 20.0946 18.2506 20.2449C18.1004 20.3952 18.0057 20.6048 18.0057 20.8293L18.0054 24.369ZM21.9403 22.7401C21.636 22.7401 21.3856 22.4897 21.3856 22.1854C21.3856 21.8811 21.636 21.6307 21.9403 21.6307C22.2446 21.6307 22.495 21.8811 22.495 22.1854C22.495 22.4897 22.2446 22.7401 21.9403 22.7401ZM24.5301 22.7401C24.2259 22.7401 23.9754 22.4897 23.9754 22.1854C23.9754 21.8811 24.2259 21.6307 24.5301 21.6307C24.8344 21.6307 25.0849 21.8811 25.0849 22.1854C25.0849 22.4897 24.8344 22.7401 24.5301 22.7401ZM27.1255 22.7401C26.8213 22.7401 26.5708 22.4897 26.5708 22.1854C26.5708 21.8811 26.8213 21.6307 27.1255 21.6307C27.4298 21.6307 27.6803 21.8811 27.6803 22.1854C27.6803 22.4897 27.4298 22.7401 27.1255 22.7401ZM43.893 22.7401C43.5887 22.7401 43.3383 22.4897 43.3383 22.1854C43.3383 21.8811 43.5887 21.6307 43.893 21.6307H47.6572C47.9615 21.6307 48.2119 21.8811 48.2119 22.1854C48.2119 22.4897 47.9615 22.7401 47.6572 22.7401H43.893ZM50.8669 40.7875C48.9022 40.7875 46.932 41.537 45.4332 43.0379C43.9342 44.5369 43.1828 46.5016 43.1828 48.4716C43.1828 50.4416 43.9323 52.4065 45.4332 53.9053C46.9322 55.4042 48.8969 56.1556 50.8669 56.1556C52.8371 56.1556 54.8018 55.4061 56.3006 53.9053C57.7996 52.4063 58.5509 50.4416 58.5509 48.4716C58.5509 46.5016 57.8015 44.5367 56.3006 43.0379C54.8016 41.5389 52.8369 40.7875 50.8669 40.7875ZM54.8704 40.6428V33.8845L21.2799 33.8827V52.4496C21.2799 52.6797 21.3746 52.8838 21.5248 53.0341C21.6751 53.1843 21.8847 53.2789 22.1092 53.2789H43.5054C42.5499 51.8245 42.075 50.1436 42.075 48.4703C42.075 46.2199 42.934 43.9714 44.65 42.2553C46.3643 40.5411 48.6146 39.6803 50.865 39.6803C52.2397 39.6803 53.6144 39.9994 54.8685 40.6394L54.8704 40.6428ZM59.8406 55.4564L62.59 58.2058C62.8646 58.4804 63 58.8403 63 59.2002C63 59.5601 62.8646 59.92 62.59 60.1946C62.3154 60.4692 61.9555 60.6046 61.5956 60.6046C61.2357 60.6046 60.8758 60.4692 60.6012 60.1946L57.8517 57.4452L59.8424 55.4546L59.8406 55.4564ZM57.5513 54.1763L58.5512 55.1763L57.5717 56.1558L56.5717 55.1559C56.7461 55.0056 56.9168 54.8516 57.0819 54.6865C57.247 54.5214 57.401 54.3507 57.5513 54.1763ZM50.8671 42.6426C49.3774 42.6426 47.882 43.2121 46.7485 44.3475C45.6131 45.4829 45.0436 46.9764 45.0436 48.4661C45.0436 49.9558 45.6131 51.4511 46.7485 52.5846C47.8876 53.7237 49.3774 54.2895 50.8671 54.2895C52.3568 54.2895 53.8521 53.72 54.9856 52.5846C56.1247 51.4456 56.6905 49.9558 56.6905 48.4661C56.6905 46.9764 56.121 45.481 54.9856 44.3475C53.8466 43.2084 52.3568 42.6426 50.8671 42.6426ZM45.962 43.5683C44.6077 44.9227 43.9324 46.698 43.9324 48.4734C43.9324 50.2488 44.6077 52.0225 45.962 53.3785C47.3163 54.7328 49.0917 55.4081 50.8671 55.4081C52.6425 55.4081 54.4161 54.7328 55.7722 53.3785C57.1265 52.0242 57.8017 50.2488 57.8017 48.4734C57.8017 46.698 57.1264 44.9244 55.7722 43.5683C54.4179 42.214 52.6425 41.5388 50.8671 41.5388C49.0917 41.5388 47.3181 42.2141 45.962 43.5683ZM31.5896 38.3997L33.5543 39.8894L31.5896 41.3791C31.3503 41.5646 31.3002 41.9097 31.4839 42.149C31.6694 42.3883 32.0145 42.4384 32.2538 42.2548L34.788 40.3346C34.8288 40.3049 34.8677 40.2641 34.903 40.2252C35.0885 39.9858 35.0384 39.6352 34.7972 39.4552L32.2574 37.5258C32.0181 37.3403 31.6675 37.3904 31.4875 37.6316C31.302 37.8709 31.3521 38.2215 31.5933 38.4015L31.5896 38.3997ZM27.4154 37.524L24.8756 39.4534C24.6363 39.6389 24.5862 39.984 24.7698 40.2233C24.8051 40.2678 24.8403 40.3031 24.8849 40.3328L27.4191 42.2529C27.6584 42.4384 28.009 42.3883 28.189 42.1472C28.3745 41.9078 28.3244 41.5572 28.0832 41.3773L26.1186 39.8875L28.0832 38.3978C28.3225 38.2123 28.3726 37.8672 28.189 37.6279C28.0035 37.3886 27.6584 37.3385 27.4191 37.5222L27.4154 37.524ZM29.9552 37.5296L28.6547 41.9394C28.5693 42.2288 28.7344 42.5386 29.0294 42.6239C29.3188 42.7093 29.6286 42.5442 29.714 42.2492L31.0145 37.8394C31.0998 37.55 30.9347 37.2401 30.6397 37.1548C30.3503 37.0695 30.0405 37.2346 29.9552 37.5296ZM35.2853 36.2253L24.3899 36.2216C24.2897 36.2216 24.1951 36.2624 24.1302 36.3311C24.0653 36.396 24.0207 36.4906 24.0207 36.5908V43.1805C24.0207 43.2807 24.0616 43.3753 24.1302 43.4402C24.1951 43.5052 24.2897 43.5497 24.3899 43.5497H25.5197H25.5791C25.8834 43.5794 26.1041 43.8539 26.0689 44.1545L25.8982 45.7444L28.6921 43.6795C28.7867 43.5942 28.9166 43.5441 29.0576 43.5441H35.2911C35.3912 43.5441 35.4859 43.5033 35.5508 43.4346C35.6157 43.3697 35.6602 43.2751 35.6602 43.1749V36.5852C35.6602 36.4851 35.6194 36.3904 35.5508 36.3255C35.4859 36.2606 35.3912 36.216 35.2911 36.216L35.2853 36.2253ZM24.3861 35.1197C23.9817 35.1197 23.6107 35.2848 23.3417 35.5538C23.0764 35.8191 22.9075 36.1882 22.9075 36.5982V43.1879C22.9075 43.5923 23.0727 43.9634 23.3417 44.2324C23.607 44.4977 23.9761 44.6665 24.3861 44.6665H24.9019L24.6625 46.8909C24.6477 47.0263 24.6829 47.1617 24.7683 47.2749C24.9482 47.5198 25.2933 47.5699 25.5382 47.3899L29.2282 44.6646H35.2817C35.6861 44.6646 36.0571 44.4995 36.3261 44.2305C36.5914 43.9652 36.7602 43.5961 36.7602 43.186V36.5964C36.7602 36.1919 36.5951 35.8209 36.3261 35.5519C36.0608 35.2866 35.6917 35.1178 35.2817 35.1178H24.3896L24.3861 35.1197ZM23.7016 49.1729C23.3973 49.1729 23.1468 48.9224 23.1468 48.6182C23.1468 48.3139 23.3973 48.0634 23.7016 48.0634H35.9643C36.2686 48.0634 36.519 48.3139 36.519 48.6182C36.519 48.9224 36.2686 49.1729 35.9643 49.1729L23.7054 49.1692L23.7016 49.1729ZM23.7016 51.618C23.3973 51.618 23.1468 51.3676 23.1468 51.0633C23.1468 50.759 23.3973 50.5086 23.7016 50.5086H35.9643C36.2686 50.5086 36.519 50.759 36.519 51.0633C36.519 51.3676 36.2686 51.618 35.9643 51.618L23.7054 51.6143L23.7016 51.618ZM53.2974 46.2233C53.5126 46.0081 53.8632 46.0081 54.0766 46.2233C54.2918 46.4385 54.2918 46.7891 54.0766 47.0024L50.3921 50.6869C50.2623 50.8167 50.0879 50.8817 49.9172 50.8817C49.7465 50.8817 49.5721 50.8167 49.4423 50.6869L47.6427 48.8873C47.4275 48.6721 47.4275 48.3215 47.6427 48.1081C47.8579 47.8929 48.2086 47.8929 48.4219 48.1081L49.9172 49.6034L53.2974 46.2233Z" fill="black"/>
</svg>
