<svg width="80" height="80" viewBox="0 0 80 80" fill="none" xmlns="http://www.w3.org/2000/svg">
<rect x="1" y="1" width="78" height="78" rx="14" stroke="#0D0D0D" stroke-width="2"/>
<path d="M46.4286 38.8571H33.5714V37.4286H46.4286V38.8571ZM35.7143 28.8571C35.7143 26.4936 37.6364 24.5714 40 24.5714C42.3636 24.5714 44.2857 26.4936 44.2857 28.8571C44.2857 31.2207 42.3636 33.1429 40 33.1429C37.6364 33.1429 35.7143 31.2207 35.7143 28.8571ZM40.7143 29.5714V30.2857H38.5714C38.1771 30.2857 37.8571 30.6057 37.8571 31C37.8571 31.3943 38.1771 31.7143 38.5714 31.7143H39.2857C39.2857 32.1086 39.6057 32.4286 40 32.4286C40.3943 32.4286 40.7143 32.1086 40.7143 31.7143C41.5021 31.7143 42.1429 31.0736 42.1429 30.2857V29.5714C42.1429 28.7836 41.5021 28.1429 40.7143 28.1429H39.2857V27.4286H41.4286C41.8236 27.4286 42.1429 27.1086 42.1429 26.7143C42.1429 26.32 41.8236 26 41.4286 26H40.7143C40.7143 25.6057 40.3943 25.2857 40 25.2857C39.6057 25.2857 39.2857 25.6057 39.2857 26C38.4979 26 37.8571 26.6407 37.8571 27.4286V28.1429C37.8571 28.9307 38.4979 29.5714 39.2857 29.5714H40.7143ZM50.7457 38.53L50.2671 38.4107L50.3871 38.8886L50.7457 38.53ZM20 43.1429V22.4286C20 21.6407 20.6407 21 21.4286 21H58.5714C59.3593 21 60 21.6407 60 22.4286V43.1429H20ZM48.5929 37.6021L49.3071 40.4593C49.3693 40.7093 49.5607 40.9057 49.8093 40.9743C49.8721 40.9914 49.9364 41 50 41C50.1871 41 50.3693 40.9264 50.505 40.7907L51.0714 40.2243L52.3521 41.505C52.4914 41.6443 52.6743 41.7143 52.8571 41.7143C53.04 41.7143 53.2229 41.6443 53.3621 41.505C53.6414 41.2257 53.6414 40.7743 53.3621 40.495L52.0814 39.2143L52.6479 38.6479C52.83 38.4657 52.9 38.2 52.8314 37.9521C52.7621 37.7043 52.5657 37.5121 52.3157 37.45L49.4586 36.7357C49.2171 36.6757 48.9579 36.7464 48.7807 36.9236C48.6036 37.1007 48.5314 37.3586 48.5929 37.6021ZM34.2857 28.8571C34.2857 32.0079 36.8493 34.5714 40 34.5714C43.1507 34.5714 45.7143 32.0079 45.7143 28.8571C45.7143 25.7064 43.1507 23.1429 40 23.1429C36.8493 23.1429 34.2857 25.7064 34.2857 28.8571ZM32.1429 39.5714C32.1429 39.9657 32.4629 40.2857 32.8571 40.2857H47.1429C47.5379 40.2857 47.8571 39.9657 47.8571 39.5714V36.7143C47.8571 36.32 47.5379 36 47.1429 36H32.8571C32.4629 36 32.1429 36.32 32.1429 36.7143V39.5714ZM60 44.5714V47.4286C60 48.2164 59.3593 48.8572 58.5714 48.8572H43.1336L44.8007 53.8572H48.5714C49.3593 53.8572 50 54.4979 50 55.2857V56.7143C50 57.5022 49.3593 58.1429 48.5714 58.1429H31.4286C30.6407 58.1429 30 57.5022 30 56.7143V55.2857C30 54.4979 30.6407 53.8572 31.4286 53.8572H35.1993L36.8657 48.8572H21.4286C20.6407 48.8572 20 48.2164 20 47.4286V44.5714H60ZM40.7143 46.7143C40.7143 46.32 40.3943 46 40 46C39.6057 46 39.2857 46.32 39.2857 46.7143C39.2857 47.1086 39.6057 47.4286 40 47.4286C40.3943 47.4286 40.7143 47.1086 40.7143 46.7143Z" fill="#0D0D0D"/>
</svg>
