<svg width="80" height="80" viewBox="0 0 80 80" fill="none" xmlns="http://www.w3.org/2000/svg">
<g filter="url(#filter0_ii_1819_5351)">
<rect x="1" y="1" width="78" height="78" rx="14" stroke="#0D0D0D" stroke-width="2"/>
</g>
<path d="M54.5171 41.1725C54.054 40.8417 53.0616 40.3786 51.7383 40.5771C50.0842 40.9079 48.761 42.2973 48.5625 44.0837C48.5625 44.2822 48.5625 44.4807 48.5625 44.6792C48.761 44.6792 51.606 45.5393 53.7232 43.4221C54.054 43.0913 54.7156 43.2236 54.8479 43.6867C54.9141 43.8852 55.2449 44.7453 55.7081 44.6792C55.7742 44.6792 55.9065 44.6792 57.296 44.6792C57.3621 43.7529 57.296 42.3635 56.4358 41.5695C56.105 41.3049 55.5096 40.9741 54.5171 41.1725Z" fill="#0D0D0D"/>
<path d="M56.628 48.7205C57.4219 48.4558 58.0174 47.6619 58.0174 46.6694C58.0174 46.471 58.0174 46.2063 57.9512 46.0078H55.9002C55.0401 46.074 54.4446 45.5447 54.0476 44.9492C52.7244 45.9417 51.2688 46.1401 50.1441 46.1401C49.3501 46.1401 48.7546 46.0078 48.49 45.9417H48.0269C47.9607 46.1401 47.8945 46.3386 47.8945 46.6033C47.8945 47.5296 48.49 48.3897 49.2839 48.6543C49.8794 53.1534 56.0325 53.1534 56.628 48.7205Z" fill="#0D0D0D"/>
<path d="M57.6968 53.2715C57.2998 53.2053 56.3736 52.9407 55.7119 52.4775C54.124 53.5361 52.2053 53.6023 50.6836 52.8084C50.7498 53.2053 51.6099 58.9615 51.3452 60.3509H61.3358C61.7327 60.3509 61.9974 60.0862 61.9974 59.6893V57.7705C61.9974 55.3225 60.0787 53.4038 57.6968 53.2715Z" fill="#0D0D0D"/>
<path d="M25.1571 44.6794H25.2233C25.6864 44.7455 26.0172 43.8854 26.0834 43.6869C26.1496 43.4884 26.348 43.2899 26.5465 43.2238C26.745 43.1576 27.0097 43.2238 27.2082 43.4223C29.2592 45.4733 32.1042 44.7455 32.2365 44.6794C32.3027 44.6794 32.3027 44.6794 32.3688 44.6794C32.3688 44.4809 32.3688 44.2824 32.3688 44.0839C32.038 41.1727 28.8622 39.5187 26.4804 41.1066C24.3632 40.7096 23.5692 42.4298 23.7015 44.6132H25.1571V44.6794Z" fill="#0D0D0D"/>
<path d="M33.0955 46.6707C33.0955 46.4722 33.0955 46.2075 33.0294 46.009H32.5662C32.3677 46.0752 31.7061 46.2075 30.9122 46.2075C29.7874 46.2075 28.3318 46.009 27.0086 45.0166C26.6116 45.6121 26.0161 46.1414 25.156 46.0752H23.0388C22.9727 46.2737 22.9727 46.4722 22.9727 46.7368C22.9727 47.6631 23.5681 48.5232 24.3621 48.7879C24.6267 50.7066 26.1485 52.1622 28.001 52.1622C29.8536 52.1622 31.4415 50.7066 31.7061 48.7879C32.5001 48.3909 33.0955 47.5969 33.0955 46.6707Z" fill="#0D0D0D"/>
<path d="M25.2854 52.4795C24.6238 52.9426 23.7637 53.2073 23.3006 53.2734C20.9187 53.3396 19 55.3245 19 57.7725V59.6912C19 60.0882 19.2647 60.3528 19.6616 60.3528H29.4537C29.2552 59.0296 30.0491 53.1411 30.1153 52.9426C28.6597 53.6043 26.8072 53.5381 25.2854 52.4795Z" fill="#0D0D0D"/>
<path d="M42.8238 48.9754C42.8899 48.9754 42.8899 48.9754 42.9561 48.9754L47.2567 48.1815C47.7198 48.1153 47.9845 47.5198 47.6536 47.1229C47.6536 47.1229 47.2567 46.5936 46.7935 45.4688C46.5289 44.741 46.3966 43.9471 46.4627 43.087C46.595 39.5142 44.4778 36.8015 40.4419 36.7354C38.5894 36.7354 37.0676 37.3308 36.009 38.4556C33.7595 40.8374 34.7519 43.4178 34.2226 45.138C33.8257 46.4612 33.2302 47.1229 33.2302 47.1229C32.8332 47.5198 33.0979 48.1815 33.6272 48.2476L37.9939 48.8431C38.6555 48.9093 39.0525 48.0491 38.457 47.6522C38.3909 47.6522 37.2 46.7921 37.5308 44.4764C38.3247 44.2779 39.7803 43.8147 40.8389 42.2268C41.302 42.8885 42.096 43.6163 43.1546 43.7486C43.1546 45.3365 42.9561 47.3875 42.4268 47.9168C41.9637 48.2476 42.2283 48.9754 42.8238 48.9754Z" fill="#0D0D0D"/>
<path d="M43.5322 49.179C43.2675 49.1128 42.9367 49.2451 42.8044 49.5098C41.7458 51.627 39.0331 51.627 37.9745 49.5098C37.8422 49.2451 37.5775 49.1128 37.2467 49.179C34.8649 49.5759 31.6229 50.8992 31.3582 53.281C30.4981 59.5003 30.6966 60.0958 30.7628 60.2943C30.8289 60.5589 31.0936 60.7574 31.3582 60.7574H49.2883C49.5529 60.7574 49.8176 60.5589 49.9499 60.2943C50.0161 60.0958 50.2146 59.5003 49.3545 53.281C49.0898 50.8992 45.8478 49.5759 43.5322 49.179ZM40.4225 53.0164C40.8195 53.0164 41.1503 53.3472 41.1503 53.7442C41.1503 54.1412 40.8195 54.472 40.4225 54.472C40.0255 54.472 39.6947 54.1412 39.6947 53.7442C39.6947 53.3472 40.0255 53.0164 40.4225 53.0164ZM40.4225 55.1998C40.8195 55.1998 41.1503 55.5306 41.1503 55.9276C41.1503 56.3245 40.8195 56.6553 40.4225 56.6553C40.0255 56.6553 39.6947 56.3245 39.6947 55.9276C39.6947 55.5306 40.0255 55.1998 40.4225 55.1998ZM40.4225 59.0372C39.9594 59.0372 39.5624 58.6402 39.5624 58.1771C39.5624 57.7139 39.9594 57.317 40.4225 57.317C40.8857 57.317 41.2826 57.7139 41.2826 58.1771C41.2165 58.6402 40.8857 59.0372 40.4225 59.0372Z" fill="#0D0D0D"/>
<path d="M26.4805 29.525L25.5542 31.9068C25.3557 32.5023 25.9512 33.0316 26.4805 32.7008L29.9209 30.782C30.3841 30.8482 30.8472 30.9144 31.3765 30.9144C30.1856 29.6573 29.524 28.1355 29.524 26.4815C29.524 24.4304 30.5826 22.5779 32.3689 21.1885C32.0381 21.1885 31.7735 21.1885 31.4427 21.1885C27.5391 21.1885 24.3633 23.3718 24.3633 26.0845C24.3633 27.4078 25.1572 28.6648 26.4805 29.525Z" fill="#0D0D0D"/>
<path d="M51.2009 26.5589C51.2009 28.1468 50.5393 29.7347 49.3484 30.9918C50.0762 31.0579 50.8701 30.9918 51.5979 30.9256L55.1045 32.8443C55.6338 33.109 56.2293 32.5797 56.0308 32.0504L55.1707 29.6685C56.494 28.7422 57.2217 27.5513 57.2217 26.2281C57.2217 23.5154 54.0459 21.332 50.1423 21.332C49.613 21.332 49.0176 21.3982 48.4883 21.4644C50.1423 22.7214 51.2009 24.574 51.2009 26.5589Z" fill="#0D0D0D"/>
<path d="M40.3712 33.034C41.0328 33.034 41.7606 32.9679 42.4222 32.9017L45.7965 35.482C46.1935 35.8128 46.8551 35.5482 46.8551 34.9527V31.3138C48.7738 30.1229 49.8986 28.4026 49.8986 26.5501C49.8986 22.9773 45.598 20 40.3712 20C35.1443 20 30.8438 22.9112 30.8438 26.5501C30.8437 30.189 35.012 33.034 40.3712 33.034Z" fill="#0D0D0D"/>
<defs>
<filter id="filter0_ii_1819_5351" x="-2" y="-2" width="84" height="84" filterUnits="userSpaceOnUse" color-interpolation-filters="sRGB">
<feFlood flood-opacity="0" result="BackgroundImageFix"/>
<feBlend mode="normal" in="SourceGraphic" in2="BackgroundImageFix" result="shape"/>
<feColorMatrix in="SourceAlpha" type="matrix" values="0 0 0 0 0 0 0 0 0 0 0 0 0 0 0 0 0 0 127 0" result="hardAlpha"/>
<feOffset dx="2" dy="2"/>
<feGaussianBlur stdDeviation="2"/>
<feComposite in2="hardAlpha" operator="arithmetic" k2="-1" k3="1"/>
<feColorMatrix type="matrix" values="0 0 0 0 0 0 0 0 0 0 0 0 0 0 0 0 0 0 0.25 0"/>
<feBlend mode="normal" in2="shape" result="effect1_innerShadow_1819_5351"/>
<feColorMatrix in="SourceAlpha" type="matrix" values="0 0 0 0 0 0 0 0 0 0 0 0 0 0 0 0 0 0 127 0" result="hardAlpha"/>
<feOffset dx="-2" dy="-2"/>
<feGaussianBlur stdDeviation="2"/>
<feComposite in2="hardAlpha" operator="arithmetic" k2="-1" k3="1"/>
<feColorMatrix type="matrix" values="0 0 0 0 1 0 0 0 0 1 0 0 0 0 1 0 0 0 0.25 0"/>
<feBlend mode="normal" in2="effect1_innerShadow_1819_5351" result="effect2_innerShadow_1819_5351"/>
</filter>
</defs>
</svg>
