<svg width="80" height="80" viewBox="0 0 80 80" fill="none" xmlns="http://www.w3.org/2000/svg">
<rect x="1" y="1" width="78" height="78" rx="14" stroke="#3A3A3A" stroke-width="2"/>
<path fill-rule="evenodd" clip-rule="evenodd" d="M44.0863 53.8721L47.4427 61.0814C47.555 61.3222 47.8909 61.3375 48.0247 61.1077L50.5646 56.7369L55.5446 57.607C55.8069 57.6528 56.0114 57.3857 55.8991 57.1445L51.9277 48.6145C51.5837 48.7923 51.33 49.0268 51.1069 49.368L49.5871 51.6919C48.383 53.5338 46.2005 54.3871 44.0863 53.8721ZM40.3438 42.6489C37.672 41.0793 32.756 37.4768 32.6905 33.8824C32.6174 29.8809 37.1153 28.0658 40.499 31.5064C43.8823 28.0663 48.3797 29.88 48.3075 33.8814C48.2426 37.4763 43.3261 41.0788 40.6543 42.6489C40.5559 42.7062 40.4422 42.7062 40.3438 42.6489ZM42.7102 18.7475L44.9334 20.4116C45.5411 20.8665 46.1814 21.0997 46.9396 21.1417L49.7122 21.296C51.3726 21.3882 52.7209 22.5196 53.0998 24.1384L53.7333 26.8422C53.9067 27.5818 54.2469 28.1714 54.8007 28.6912L56.8256 30.5914C58.0377 31.7295 58.3435 33.4624 57.5934 34.9464L56.3406 37.4247C55.998 38.1027 55.8795 38.773 55.9698 39.527L56.2995 42.2843C56.4968 43.9351 55.6167 45.4597 54.0883 46.1142L51.536 47.2074C50.8379 47.5065 50.3162 47.9442 49.9005 48.5796L48.3806 50.9036C47.4705 52.2949 45.8168 52.8969 44.2253 52.4163L41.5674 51.6131C40.8407 51.3933 40.1593 51.3933 39.4326 51.6131L36.7747 52.4163C35.1832 52.8974 33.5291 52.2954 32.6194 50.9036L31.0995 48.5796C30.6838 47.9442 30.1621 47.5065 29.464 47.2074L26.9117 46.1142C25.3833 45.4597 24.5032 43.9355 24.7005 42.2843L25.0302 39.527C25.1205 38.773 25.002 38.1022 24.6594 37.4247L23.4066 34.9464C22.6565 33.4624 22.9623 31.7295 24.1744 30.5914L26.1993 28.6912C26.7531 28.1714 27.0937 27.5818 27.2667 26.8422L27.9002 24.1384C28.2796 22.5196 29.6279 21.3882 31.2878 21.296L34.0604 21.1417C34.8186 21.0997 35.4584 20.8665 36.0666 20.4116L38.2897 18.7475C39.619 17.7508 41.3791 17.7508 42.7102 18.7475ZM40.499 23.545C34.0126 23.545 28.7545 28.8035 28.7545 35.2895C28.7545 41.7759 34.0131 47.0345 40.499 47.0345C46.9855 47.0345 52.244 41.7759 52.244 35.2895C52.244 28.803 46.9855 23.545 40.499 23.545ZM36.9118 53.8721C34.7976 54.3871 32.6151 53.5338 31.411 51.6924L29.8912 49.3685C29.6681 49.0273 29.4144 48.7927 29.0703 48.615L25.099 57.1449C24.9867 57.3862 25.1912 57.6528 25.4535 57.6074L30.4335 56.7374L32.9734 61.1082C33.1072 61.338 33.4431 61.3227 33.5553 61.0819L36.9118 53.8721Z" fill="black"/>
</svg>
