<svg width="80" height="80" viewBox="0 0 80 80" fill="none" xmlns="http://www.w3.org/2000/svg">
<rect x="1" y="1" width="78" height="78" rx="14" stroke="#0D0D0D" stroke-width="2"/>
<path d="M56.0529 35.1545V27H26.3565V36.7997H18V53.8767H41.7568V49.3452H51.4264V53.3741H63V35.1545L56.0529 35.1545ZM44.163 29.1092V29.8914H38.2446V29.1092H44.163ZM28.4656 29.1092H36.1368V32.0008H46.274V29.1092H53.9433V35.1545H51.4261V43.3107H41.7565V36.7997H28.4657L28.4656 29.1092ZM39.6472 51.7676H20.1091V38.9093H39.6472V51.7676ZM41.7566 47.2361V45.4185L51.4262 45.4202V47.2378L41.7566 47.2361ZM60.8906 51.2632H53.5358V37.2641H60.8906V51.2632Z" fill="black"/>
<path d="M27.375 48.6426H32.3583V50.752H27.375V48.6426Z" fill="black"/>
<path d="M55.4844 48.0371H58.956V50.1465H55.4844V48.0371Z" fill="black"/>
</svg>
