<svg width="80" height="80" viewBox="0 0 80 80" fill="none" xmlns="http://www.w3.org/2000/svg">
<rect x="1" y="1" width="78" height="78" rx="14" stroke="#0D0D0D" stroke-width="2"/>
<path fill-rule="evenodd" clip-rule="evenodd" d="M36.2533 50.0529V53.6347C36.2553 53.7099 36.2423 53.7847 36.2149 53.8548C36.1875 53.9249 36.1463 53.9888 36.0938 54.0427C36.0413 54.0966 35.9786 54.1395 35.9092 54.1687C35.8399 54.198 35.7654 54.213 35.6902 54.213H32.0272C31.891 54.7036 31.5816 55.1283 31.1564 55.4083C30.7311 55.6883 30.2188 55.8048 29.7143 55.7361C29.2098 55.6673 28.7473 55.4181 28.4124 55.0345C28.0775 54.651 27.893 54.159 27.893 53.6499C27.893 53.1407 28.0775 52.6488 28.4124 52.2652C28.7473 51.8816 29.2098 51.6324 29.7143 51.5637C30.2188 51.495 30.7311 51.6114 31.1564 51.8914C31.5816 52.1715 31.891 52.5961 32.0272 53.0867H35.1321V50.0427L36.2533 50.0529ZM32.8897 29.8863H48.1097C48.3754 29.8816 48.6393 29.93 48.886 30.0287C49.1327 30.1274 49.3572 30.2744 49.5462 30.4611C49.7353 30.6478 49.8851 30.8704 49.9869 31.1159C50.0887 31.3613 50.1405 31.6246 50.1391 31.8903V47.1103C50.1439 47.3782 50.0947 47.6442 49.9944 47.8926C49.8941 48.141 49.7448 48.3666 49.5554 48.556C49.366 48.7454 49.1404 48.8947 48.892 48.995C48.6436 49.0953 48.3775 49.1445 48.1097 49.1397H32.8897C32.624 49.1411 32.3607 49.0893 32.1152 48.9875C31.8698 48.8857 31.6472 48.7359 31.4605 48.5468C31.2738 48.3578 31.1268 48.1333 31.0281 47.8866C30.9294 47.6399 30.881 47.376 30.8857 47.1103V31.8903C30.8844 31.6267 30.9353 31.3655 31.0355 31.1218C31.1357 30.8781 31.2833 30.6566 31.4697 30.4703C31.656 30.2839 31.8775 30.1363 32.1212 30.0361C32.3649 29.9359 32.6261 29.885 32.8897 29.8863ZM34.2595 33.2601V45.7405H46.7399V33.2601H34.2595ZM33.1332 46.3037C33.1332 46.453 33.1925 46.5963 33.2981 46.7019C33.4037 46.8075 33.547 46.8668 33.6963 46.8668H47.3031C47.4524 46.8668 47.5956 46.8075 47.7013 46.7019C47.8069 46.5963 47.8662 46.453 47.8662 46.3037V32.6969C47.8662 32.5476 47.8069 32.4044 47.7013 32.2987C47.5956 32.1931 47.4524 32.1338 47.3031 32.1338H33.6963C33.547 32.1338 33.4037 32.1931 33.2981 32.2987C33.1925 32.4044 33.1332 32.5476 33.1332 32.6969V46.3037ZM56.7344 50.0021C56.7343 50.3943 56.6247 50.7786 56.4179 51.1118C56.2111 51.445 55.9154 51.7138 55.564 51.888C55.2127 52.0621 54.8197 52.1347 54.4293 52.0975C54.0389 52.0603 53.6667 51.9148 53.3545 51.6774C53.0424 51.4401 52.8027 51.1202 52.6626 50.754C52.5224 50.3877 52.4874 49.9896 52.5613 49.6045C52.6352 49.2194 52.8153 48.8626 53.0811 48.5743C53.3469 48.286 53.688 48.0777 54.0658 47.9728V44.8679H51.0218V43.7467H54.6036C54.6813 43.7404 54.7595 43.7503 54.8332 43.7757C54.9068 43.8012 54.9744 43.8416 55.0317 43.8946C55.0889 43.9475 55.1345 44.0118 55.1656 44.0832C55.1967 44.1547 55.2127 44.2319 55.2124 44.3098V47.9728C55.6518 48.1004 56.0378 48.3673 56.3123 48.7333C56.5868 49.0993 56.735 49.5446 56.7344 50.0021ZM59.5501 19.1054C59.5515 19.5632 59.4037 20.0089 59.129 20.3751C58.8544 20.7412 58.4679 21.0079 58.0281 21.1348V34.6908C58.0281 34.8401 57.9688 34.9834 57.8632 35.089C57.7576 35.1946 57.6143 35.2539 57.465 35.2539H51.0523V34.1327H56.8815V21.1348C56.5037 21.0299 56.1626 20.8216 55.8968 20.5333C55.631 20.245 55.451 19.8882 55.377 19.5031C55.3031 19.1179 55.3382 18.7198 55.4783 18.3536C55.6184 17.9873 55.8581 17.6675 56.1702 17.4301C56.4824 17.1928 56.8546 17.0473 57.245 17.0101C57.6354 16.9729 58.0284 17.0455 58.3797 17.2196C58.7311 17.3938 59.0268 17.6626 59.2336 17.9958C59.4404 18.329 59.55 18.7133 59.5501 19.1054ZM63 39.5003C63.0005 40.0099 62.8163 40.5023 62.4813 40.8864C62.1464 41.2704 61.6836 41.5199 61.1787 41.5887C60.6738 41.6575 60.1611 41.5408 59.7357 41.2603C59.3102 40.9798 59.001 40.5546 58.8652 40.0634H51.0523V38.9372H58.8652C59.001 38.446 59.3102 38.0208 59.7357 37.7403C60.1611 37.4598 60.6738 37.3432 61.1787 37.4119C61.6836 37.4807 62.1464 37.7302 62.4813 38.1143C62.8163 38.4983 63.0005 38.9907 63 39.5003ZM60.8946 58.5507C61.2867 58.5506 61.671 58.441 62.0042 58.2342C62.3374 58.0274 62.6062 57.7317 62.7804 57.3803C62.9545 57.029 63.0271 56.636 62.9899 56.2456C62.9527 55.8552 62.8072 55.483 62.5699 55.1708C62.3325 54.8587 62.0127 54.6191 61.6464 54.4789C61.2802 54.3388 60.8821 54.3037 60.497 54.3776C60.1118 54.4516 59.755 54.6316 59.4667 54.8974C59.1784 55.1632 58.9701 55.5043 58.8652 55.8821H45.8673V50.0529H44.7461V56.4453C44.7461 56.5946 44.8054 56.7379 44.911 56.8435C45.0166 56.9491 45.1599 57.0084 45.3092 57.0084H58.8652C58.9921 57.4482 59.2588 57.8347 59.625 58.1094C59.9911 58.384 60.4368 58.5318 60.8946 58.5304V58.5507ZM40.4997 17C41.0093 16.9995 41.5017 17.1837 41.8857 17.5187C42.2698 17.8536 42.5193 18.3164 42.5881 18.8213C42.6568 19.3262 42.5402 19.8389 42.2597 20.2643C41.9792 20.6898 41.554 20.999 41.0628 21.1348V28.9477H39.9366V21.1348C39.4454 20.999 39.0202 20.6898 38.7397 20.2643C38.4592 19.8389 38.3425 19.3262 38.4113 18.8213C38.4801 18.3164 38.7296 17.8536 39.1136 17.5187C39.4977 17.1837 39.9901 16.9995 40.4997 17ZM35.1321 28.9477V23.1185H22.1342C21.998 23.6091 21.6886 24.0337 21.2634 24.3138C20.8381 24.5938 20.3258 24.7102 19.8213 24.6415C19.3168 24.5728 18.8542 24.3235 18.5194 23.94C18.1845 23.5564 18 23.0645 18 22.5553C18 22.0461 18.1845 21.5542 18.5194 21.1707C18.8542 20.7871 19.3168 20.5379 19.8213 20.4691C20.3258 20.4004 20.8381 20.5169 21.2634 20.7969C21.6886 21.0769 21.998 21.5016 22.1342 21.9922H35.6902C35.7641 21.9922 35.8373 22.0067 35.9057 22.035C35.974 22.0633 36.0361 22.1048 36.0884 22.1571C36.1407 22.2094 36.1821 22.2715 36.2104 22.3398C36.2387 22.4081 36.2533 22.4814 36.2533 22.5553V28.9477H35.1321ZM44.7461 28.9477H45.8673V25.9291H48.9722C49.1084 26.4197 49.4177 26.8444 49.843 27.1244C50.2683 27.4044 50.7806 27.5209 51.2851 27.4521C51.7896 27.3834 52.2521 27.1342 52.587 26.7506C52.9218 26.367 53.1064 25.8751 53.1064 25.366C53.1064 24.8568 52.9218 24.3649 52.587 23.9813C52.2521 23.5977 51.7896 23.3485 51.2851 23.2798C50.7806 23.2111 50.2683 23.3275 49.843 23.6075C49.4177 23.8875 49.1084 24.3122 48.9722 24.8028H45.3092C45.1599 24.8028 45.0166 24.8621 44.911 24.9678C44.8054 25.0734 44.7461 25.2166 44.7461 25.366V28.9477ZM29.9471 35.2539V34.1327H26.9285V31.0278C27.4191 30.8916 27.8438 30.5823 28.1238 30.157C28.4038 29.7317 28.5202 29.2194 28.4515 28.7149C28.3828 28.2104 28.1336 27.7479 27.75 27.413C27.3664 27.0782 26.8745 26.8936 26.3653 26.8936C25.8562 26.8936 25.3643 27.0782 24.9807 27.413C24.5971 27.7479 24.3479 28.2104 24.2792 28.7149C24.2104 29.2194 24.3269 29.7317 24.6069 30.157C24.8869 30.5823 25.3116 30.8916 25.8022 31.0278V34.6908C25.8022 34.8401 25.8615 34.9834 25.9671 35.089C26.0728 35.1946 26.216 35.2539 26.3653 35.2539H29.9471ZM29.9471 44.8679V43.7467H23.5547C23.4054 43.7467 23.2621 43.806 23.1565 43.9116C23.0509 44.0172 22.9916 44.1605 22.9916 44.3098V57.8658C22.5009 58.002 22.0763 58.3114 21.7963 58.7366C21.5162 59.1619 21.3998 59.6742 21.4685 60.1787C21.5373 60.6832 21.7865 61.1458 22.17 61.4806C22.5536 61.8155 23.0455 62 23.5547 62C24.0639 62 24.5558 61.8155 24.9394 61.4806C25.3229 61.1458 25.5722 60.6832 25.6409 60.1787C25.7096 59.6742 25.5932 59.1619 25.3131 58.7366C25.0331 58.3114 24.6085 58.002 24.1178 57.8658V44.8679H29.9471ZM29.9471 40.0634H22.1342C21.998 40.5541 21.6886 40.9787 21.2634 41.2587C20.8381 41.5388 20.3258 41.6552 19.8213 41.5865C19.3168 41.5178 18.8542 41.2685 18.5194 40.885C18.1845 40.5014 18 40.0095 18 39.5003C18 38.9911 18.1845 38.4992 18.5194 38.1156C18.8542 37.7321 19.3168 37.4829 19.8213 37.4141C20.3258 37.3454 20.8381 37.4618 21.2634 37.7419C21.6886 38.0219 21.998 38.4465 22.1342 38.9372H29.9471V40.0634ZM41.0628 50.0529V57.8658C41.5535 58.002 41.9781 58.3114 42.2581 58.7366C42.5382 59.1619 42.6546 59.6742 42.5859 60.1787C42.5171 60.6832 42.2679 61.1458 41.8844 61.4806C41.5008 61.8155 41.0089 62 40.4997 62C39.9905 62 39.4986 61.8155 39.115 61.4806C38.7315 61.1458 38.4822 60.6832 38.4135 60.1787C38.3448 59.6742 38.4612 59.1619 38.7413 58.7366C39.0213 58.3114 39.4459 58.002 39.9366 57.8658V50.0529H41.0628Z" fill="black"/>
</svg>
