<svg width="41" height="46" viewBox="0 0 41 46" fill="none" xmlns="http://www.w3.org/2000/svg">
<path d="M-17.2709 18.8046C-17.2709 19.4356 -17.1839 19.9473 -17.0317 20.3225C-16.8576 20.6978 -16.6401 21.1071 -16.3356 21.5506C-16.2268 21.687 -16.1833 21.8235 -16.1833 21.9429C-16.1833 22.1134 -16.3138 22.284 -16.5966 22.4545L-17.967 23.1709C-18.1628 23.2732 -18.3586 23.3244 -18.5326 23.3244C-18.7501 23.3244 -18.9676 23.2391 -19.1852 23.0856C-19.4897 22.8298 -19.7507 22.5569 -19.9683 22.284C-20.1858 21.994 -20.4033 21.67 -20.6426 21.2777C-22.3393 22.8468 -24.471 23.6314 -27.0378 23.6314C-28.8651 23.6314 -30.3225 23.2221 -31.3884 22.4034C-32.4542 21.5847 -32.998 20.4931 -32.998 19.1286C-32.998 17.6789 -32.3455 16.502 -31.0186 15.6151C-29.6917 14.7282 -27.9297 14.2847 -25.6892 14.2847C-24.9496 14.2847 -24.1883 14.3359 -23.3834 14.4212C-22.5786 14.5064 -21.752 14.6429 -20.8819 14.7964V13.5513C-20.8819 12.2551 -21.2299 11.3511 -21.9042 10.8224C-22.6003 10.2936 -23.775 10.0378 -25.4499 10.0378C-26.2112 10.0378 -26.9943 10.106 -27.7992 10.2595C-28.604 10.413 -29.3871 10.6006 -30.1485 10.8394C-30.4965 10.9588 -30.7575 11.027 -30.9098 11.0611C-31.0621 11.0952 -31.1708 11.1123 -31.2578 11.1123C-31.5624 11.1123 -31.7146 10.9417 -31.7146 10.5836V9.74782C-31.7146 9.47493 -31.6711 9.27026 -31.5624 9.15086C-31.4536 9.03147 -31.2578 8.91208 -30.9533 8.79269C-30.192 8.48568 -29.2784 8.22984 -28.2125 8.02517C-27.1466 7.80344 -26.0155 7.7011 -24.8191 7.7011C-22.2305 7.7011 -20.3381 8.16162 -19.1199 9.08264C-17.9235 10.0037 -17.3144 11.4023 -17.3144 13.2784V18.8046H-17.2709ZM-26.1025 21.3971C-25.3846 21.3971 -24.6451 21.2947 -23.862 21.0901C-23.0789 20.8854 -22.3828 20.5102 -21.7955 19.9985C-21.4474 19.6744 -21.1864 19.3162 -21.0559 18.9069C-20.9254 18.4975 -20.8384 18.0029 -20.8384 17.423V16.7067C-21.4692 16.5873 -22.1435 16.4849 -22.8396 16.4167C-23.5357 16.3485 -24.21 16.3144 -24.8843 16.3144C-26.3418 16.3144 -27.4076 16.5361 -28.1255 16.9966C-28.8433 17.4571 -29.1913 18.1053 -29.1913 18.9581C-29.1913 19.7597 -28.9303 20.3566 -28.3865 20.766C-27.8644 21.1924 -27.1031 21.3971 -26.1025 21.3971ZM-8.63517 23.2391C-9.02672 23.2391 -9.28775 23.1879 -9.46177 23.0686C-9.63579 22.9662 -9.78806 22.7274 -9.91858 22.4034L-15.0304 9.21909C-15.1609 8.87797 -15.2262 8.65624 -15.2262 8.53685C-15.2262 8.26395 -15.0522 8.11045 -14.7041 8.11045H-12.5724C-12.1591 8.11045 -11.8763 8.16162 -11.724 8.28101C-11.55 8.38334 -11.4195 8.62213 -11.289 8.94619L-7.63456 20.2373L-4.24116 8.94619C-4.13239 8.60507 -4.00188 8.38334 -3.82786 8.28101C-3.65384 8.17867 -3.3493 8.11045 -2.95775 8.11045H-1.21755C-0.804253 8.11045 -0.521469 8.16162 -0.347446 8.28101C-0.173428 8.38334 -0.0211563 8.62213 0.0658531 8.94619L3.50276 20.3737L7.26595 8.94619C7.39647 8.60507 7.54873 8.38334 7.701 8.28101C7.87502 8.17867 8.15781 8.11045 8.54935 8.11045H10.5723C10.9204 8.11045 11.1162 8.2469 11.1162 8.53685C11.1162 8.62213 11.0944 8.70741 11.0727 8.80974C11.0509 8.91208 11.0074 9.04853 10.9204 9.23614L5.67801 22.4204C5.5475 22.7615 5.39523 22.9833 5.22121 23.0856C5.04719 23.1879 4.76441 23.2562 4.39461 23.2562H2.52389C2.11059 23.2562 1.82781 23.205 1.65379 23.0856C1.47977 22.9662 1.3275 22.7445 1.24049 22.4034L-2.13116 11.4023L-5.48105 22.3863C-5.58981 22.7274 -5.72033 22.9492 -5.89435 23.0686C-6.06837 23.1879 -6.37291 23.2391 -6.76445 23.2391H-8.63517ZM19.3169 23.6996C18.1857 23.6996 17.0546 23.5973 15.967 23.3926C14.8793 23.1879 14.031 22.9662 13.4654 22.7104C13.1174 22.5569 12.8781 22.3863 12.7911 22.2328C12.7041 22.0793 12.6606 21.9087 12.6606 21.7552V20.8854C12.6606 20.5272 12.8346 20.3566 13.1609 20.3566C13.2914 20.3566 13.4219 20.3737 13.5524 20.4078C13.683 20.4419 13.8787 20.5102 14.0963 20.5784C14.8358 20.8342 15.6407 21.0389 16.489 21.1753C17.3591 21.3118 18.2075 21.38 19.0776 21.38C20.448 21.38 21.5139 21.1924 22.2535 20.8172C22.9931 20.4419 23.3846 19.8961 23.3846 19.1968C23.3846 18.7193 23.1888 18.327 22.7973 18.0029C22.4057 17.6789 21.6661 17.3889 20.6003 17.116L17.4462 16.3485C15.8582 15.9562 14.6836 15.3763 13.9657 14.6088C13.2479 13.8583 12.8781 13.0226 12.8781 12.1357C12.8781 11.4193 13.0739 10.7882 13.4654 10.2424C13.857 9.69666 14.379 9.21909 15.0316 8.84386C15.6842 8.45157 16.4238 8.16162 17.2939 7.95694C18.164 7.75227 19.0776 7.66699 20.0347 7.66699C20.5133 7.66699 21.0136 7.68405 21.4921 7.73522C21.9924 7.78638 22.4492 7.85461 22.906 7.92283C23.3411 8.00811 23.7544 8.09339 24.1459 8.19573C24.5375 8.29806 24.842 8.4004 25.0596 8.50274C25.3641 8.63918 25.5816 8.77563 25.7121 8.92914C25.8426 9.06558 25.9079 9.2532 25.9079 9.49198V10.2936C25.9079 10.6518 25.7339 10.8394 25.4076 10.8394C25.2336 10.8394 24.9508 10.7712 24.581 10.6347C23.3411 10.1913 21.9489 9.96955 20.4045 9.96955C19.1646 9.96955 18.1857 10.1231 17.5114 10.4471C16.8371 10.7712 16.489 11.2658 16.489 11.9651C16.489 12.4427 16.7066 12.852 17.1416 13.1761C17.5767 13.5001 18.3815 13.8242 19.5344 14.1142L22.6233 14.8817C24.1894 15.274 25.3206 15.8198 25.9949 16.5191C26.6692 17.2183 26.9955 18.02 26.9955 18.9069C26.9955 19.6403 26.7998 20.3055 26.43 20.8854C26.0384 21.4653 25.5164 21.977 24.842 22.3863C24.1677 22.8127 23.3629 23.1197 22.4275 23.3414C21.4486 23.5802 20.4263 23.6996 19.3169 23.6996Z" fill="#252F3E"/>
<path fill-rule="evenodd" clip-rule="evenodd" d="M23.4282 31.9882C16.2717 36.1329 5.87393 38.3331 -3.06636 38.3331C-15.5958 38.3331 -26.8854 34.7002 -35.4124 28.6623C-36.0867 28.1848 -35.4777 27.5366 -34.6728 27.9119C-25.4497 32.1076 -14.0732 34.649 -2.30503 34.649C5.63465 34.649 14.3574 33.3527 22.3841 30.692C23.5805 30.2656 24.6029 31.306 23.4282 31.9882Z" fill="#FF9900"/>
<path fill-rule="evenodd" clip-rule="evenodd" d="M26.4083 29.3278C25.4947 28.4068 20.3611 28.8844 18.0336 29.1061C17.3375 29.1743 17.2287 28.6967 17.8596 28.3386C21.949 26.0872 28.6706 26.7353 29.4537 27.4858C30.2368 28.2533 29.2361 33.5236 25.4077 36.0479C24.8204 36.4402 24.2548 36.2355 24.5158 35.7238C25.3859 34.0353 27.3219 30.2318 26.4083 29.3278Z" fill="#FF9900"/>
</svg>
