<?xml version="1.0" encoding="UTF-8"?>
<svg version="1.1" xmlns="http://www.w3.org/2000/svg" width="307" height="151">
<path d="M0 0 C1.00869141 -0.020625 2.01738281 -0.04125 3.05664062 -0.0625 C12.47960704 -0.11104072 20.78118773 1.38500765 28.2421875 7.44140625 C36.16398381 15.31220387 39.13580208 24.37116937 39.25317383 35.36499023 C39.23616368 47.14255715 38.26809577 57.85969958 30.34375 67.296875 C22.38253178 74.93181378 11.42256546 77.61408491 0.61328125 77.46875 C-6.21191205 76.8834348 -12.69324245 74.87127057 -18.9375 72.125 C-26.96754095 68.76839124 -35.75412648 68.13019093 -43.9375 71.25 C-46.97713885 72.50498433 -49.96931525 73.83461561 -52.9375 75.25 C-50.53906708 69.881545 -46.58997037 68.07623518 -41.4375 65.5 C-32.53319346 62.46444095 -23.65729579 63.72005172 -15 66.75 C-4.7642689 70.30858367 5.82130064 71.32843092 15.9140625 66.5 C22.15337195 62.86985632 25.91900847 59.21448227 28.34375 52.28515625 C31.05288016 40.84497072 31.60703315 27.66790169 25.4375 17.3125 C21.6325818 12.08658041 17.02106543 10.23618848 11.0625 8.25 C6.1125 7.92 1.1625 7.59 -3.9375 7.25 C-3.9375 17.48 -3.9375 27.71 -3.9375 38.25 C-6.2475 38.25 -8.5575 38.25 -10.9375 38.25 C-12.72580448 36.46169552 -12.06598711 34.05418848 -12.07644653 31.67358398 C-12.0744223 30.89442627 -12.07239807 30.11526855 -12.0703125 29.3125 C-12.07126923 28.517229 -12.07222595 27.72195801 -12.07321167 26.90258789 C-12.07389343 25.2179354 -12.07203943 23.53328029 -12.06787109 21.84863281 C-12.06252275 19.26100803 -12.06781619 16.67355684 -12.07421875 14.0859375 C-12.07355797 12.45312461 -12.0722768 10.82031184 -12.0703125 9.1875 C-12.07233673 8.40834229 -12.07436096 7.62918457 -12.07644653 6.82641602 C-12.03756133 -2.02400515 -7.72073164 0.03815062 0 0 Z " fill="#9F549B" transform="translate(70.9375,38.75)"/>
<path d="M0 0 C3.2048775 2.95392823 4.47115821 6.20124854 5.96875 10.21875 C6.38406479 11.30247643 6.38406479 11.30247643 6.80776978 12.40809631 C7.40256729 13.9620372 7.9938933 15.51731044 8.58209229 17.07376099 C9.81561133 20.33423257 11.06945792 23.5867448 12.32254028 26.83973694 C13.27361052 29.30904297 14.22230264 31.77925423 15.17089844 34.24951172 C17.78139839 41.0371203 20.42865437 47.80854688 23.125 54.5625 C23.77952148 56.24472656 23.77952148 56.24472656 24.44726562 57.9609375 C24.85912109 58.98574219 25.27097656 60.01054688 25.6953125 61.06640625 C26.04609863 61.95271729 26.39688477 62.83902832 26.75830078 63.75219727 C28.17137586 66.31023547 29.51801586 67.48990666 32 69 C33.96267525 69.25916978 33.96267525 69.25916978 36 68.875 C36.78246094 68.76027344 37.56492187 68.64554687 38.37109375 68.52734375 C41.30254036 67.93931211 44.17199696 67.20123595 47.0625 66.4375 C56.42213676 64.05031992 63.15599408 64.93728478 72 69 C75.1875 71.125 75.1875 71.125 77 73 C77 73.66 77 74.32 77 75 C74.36583011 74.47316602 72.51728113 73.73765279 70.125 72.4375 C62.17891862 69.06336778 53.53021096 70.17384361 45.69897461 73.20141602 C44.34986316 73.7615474 43.00987464 74.34436483 41.68188477 74.95288086 C36.8030234 77.09811992 33.03437466 77.65498579 28 76 C22.2677058 72.44681037 20.17993632 68.09987346 17.625 62 C17.24706299 61.13004395 16.86912598 60.26008789 16.47973633 59.36376953 C12.68144879 50.50664123 9.27359208 41.49838492 5.93505859 32.45996094 C4.61467549 28.98628466 3.18505468 25.55905026 1.74536133 22.13330078 C1 20 1 20 1 17 C0.34 17 -0.32 17 -1 17 C-1.33 18.258125 -1.66 19.51625 -2 20.8125 C-3.75330075 26.64871872 -6.11551715 32.15372784 -8.51782227 37.74316406 C-12.34419083 46.695292 -15.8723297 55.76132566 -19.40625 64.83154297 C-19.85871094 65.99186035 -20.31117188 67.15217773 -20.77734375 68.34765625 C-21.18202881 69.38929932 -21.58671387 70.43094238 -22.00366211 71.50415039 C-23 74 -23 74 -24 76 C-26.64 76 -29.28 76 -32 76 C-30.59717354 70.74225206 -28.97738998 65.7386824 -26.66601562 60.80493164 C-24.16797674 55.39454415 -21.82674912 49.9324289 -19.53125 44.43359375 C-18.70452622 42.46415109 -17.87770023 40.49475133 -17.05078125 38.52539062 C-15.77258262 35.47622643 -14.4954533 32.42662417 -13.22021484 29.3762207 C-11.97272337 26.39407868 -10.72099236 23.41374334 -9.46875 20.43359375 C-9.09463989 19.53539413 -8.72052979 18.63719452 -8.33508301 17.71177673 C-5.79605692 11.67835731 -2.99433165 5.82051751 0 0 Z " fill="#A35EA0" transform="translate(217,38)"/>
<path d="M0 0 C2.64 0 5.28 0 8 0 C10.78637045 6.02995918 13.19637949 12.10027008 15.34765625 18.3828125 C15.64562607 19.24131805 15.94359589 20.09982361 16.25059509 20.98434448 C17.19158631 23.69663597 18.1274898 26.41064144 19.0625 29.125 C20.00156268 31.8463259 20.94181267 34.56722004 21.88511658 37.28707886 C22.46872128 38.9702073 23.04989636 40.65418092 23.62818909 42.33914185 C23.89534225 43.11039398 24.16249542 43.88164612 24.43774414 44.67626953 C24.66772598 45.34417511 24.89770782 46.01208069 25.13465881 46.70022583 C26.31689342 49.84219185 27.67760235 52.91440548 29 56 C35.93 37.52 42.86 19.04 50 0 C52.64 0 55.28 0 58 0 C57.38205229 4.6874143 56.08010484 8.87451458 54.37109375 13.2578125 C54.10654892 13.94932404 53.84200409 14.64083557 53.56944275 15.353302 C52.7189335 17.57122088 51.860058 19.78576833 51 22 C50.43617503 23.46054033 49.8725352 24.92115214 49.30908203 26.38183594 C47.56929998 30.88310653 45.81652206 35.37926349 44.0625 39.875 C43.18009247 42.13972396 42.29796635 44.40455709 41.41610718 46.66949463 C40.83238839 48.16710023 40.24762334 49.66429847 39.66177368 51.16107178 C38.10789281 55.13440399 36.57512919 59.1144314 35.06982422 63.10644531 C34.75395859 63.93733673 34.43809296 64.76822815 34.11265564 65.6242981 C33.5045199 67.22538495 32.90188928 68.82857629 32.30543518 70.43405151 C30.22470779 75.88764611 30.22470779 75.88764611 28 77 C23.06215499 64.90365901 18.37233169 52.73470596 13.87597656 40.46728516 C11.68443567 34.50179932 9.45301673 28.55653571 7.140625 22.63671875 C6.67769043 21.45029785 6.21475586 20.26387695 5.73779297 19.04150391 C4.84673957 16.76677963 3.95015384 14.4942127 3.04736328 12.22412109 C2.64759277 11.2027002 2.24782227 10.1812793 1.8359375 9.12890625 C1.30299072 7.78421265 1.30299072 7.78421265 0.75927734 6.41235352 C0 4 0 4 0 0 Z " fill="#AD6BAA" transform="translate(137,37)"/>
<path d="M0 0 C2.31 0 4.62 0 7 0 C7 24.42 7 48.84 7 74 C4.69 74 2.38 74 0 74 C-1.86610725 72.13389275 -1.12778785 68.99684541 -1.12939453 66.50830078 C-1.13114685 65.83022369 -1.13289917 65.15214661 -1.13470459 64.45352173 C-1.13912364 62.20075966 -1.1361843 59.94807544 -1.1328125 57.6953125 C-1.13348568 56.13451116 -1.13445583 54.57370992 -1.13571167 53.01290894 C-1.13718884 49.73597214 -1.13503406 46.45906255 -1.13037109 43.18212891 C-1.1246832 38.97979114 -1.12794671 34.77751736 -1.13394356 30.57518196 C-1.13755669 27.3495943 -1.13640695 24.1240218 -1.13381577 20.89843369 C-1.13314809 19.34906888 -1.13396936 17.79970271 -1.13629532 16.25033951 C-1.13883311 14.08368534 -1.13496489 11.91713473 -1.12939453 9.75048828 C-1.12859894 8.51662384 -1.12780334 7.2827594 -1.12698364 6.01150513 C-1 3 -1 3 0 0 Z " fill="#A261A1" transform="translate(121,38)"/>
<path d="M0 0 C1.00869141 -0.020625 2.01738281 -0.04125 3.05664062 -0.0625 C11.08417593 -0.1038524 18.62518823 0.58432965 25.125 5.625 C27.09905904 8.2995316 27.78123313 9.96855319 28.0625 13.25 C29.0525 13.58 30.0425 13.91 31.0625 14.25 C31.5575 15.735 31.5575 15.735 32.0625 17.25 C31.0725 17.745 31.0725 17.745 30.0625 18.25 C27.9375 17.3125 27.9375 17.3125 26.0625 16.25 C26.0625 15.59 26.0625 14.93 26.0625 14.25 C25.48628906 14.12625 24.91007812 14.0025 24.31640625 13.875 C22.0089543 13.23515197 20.11744542 12.35972091 18 11.25 C10.25534194 7.20672362 6.50400286 7.94610019 -3.9375 7.25 C-3.9375 17.48 -3.9375 27.71 -3.9375 38.25 C-6.2475 38.25 -8.5575 38.25 -10.9375 38.25 C-12.72580448 36.46169552 -12.06598711 34.05418848 -12.07644653 31.67358398 C-12.0744223 30.89442627 -12.07239807 30.11526855 -12.0703125 29.3125 C-12.07126923 28.517229 -12.07222595 27.72195801 -12.07321167 26.90258789 C-12.07389343 25.2179354 -12.07203943 23.53328029 -12.06787109 21.84863281 C-12.06252275 19.26100803 -12.06781619 16.67355684 -12.07421875 14.0859375 C-12.07355797 12.45312461 -12.0722768 10.82031184 -12.0703125 9.1875 C-12.07233673 8.40834229 -12.07436096 7.62918457 -12.07644653 6.82641602 C-12.03756133 -2.02400515 -7.72073164 0.03815062 0 0 Z " fill="#933C8F" transform="translate(70.9375,38.75)"/>
<path d="M0 0 C0 3.60777515 -0.9904432 5.06295544 -3 8 C-3.66 8.33 -4.32 8.66 -5 9 C-5 9.66 -5 10.32 -5 11 C-3.35 11 -1.7 11 0 11 C-4.79379334 16.44818418 -13.01032594 17.58920354 -19.9453125 18.16015625 C-28.37465733 18.50760236 -36.33291759 16.24703945 -44 12.875 C-52.03004095 9.51839124 -60.81662648 8.88019093 -69 12 C-72.03963885 13.25498433 -75.03181525 14.58461561 -78 16 C-75.60156708 10.631545 -71.65247037 8.82623518 -66.5 6.25 C-57.59569346 3.21444095 -48.71979579 4.47005172 -40.0625 7.5 C-29.79683769 11.06898964 -19.31776547 12.00934582 -9.1640625 7.2890625 C-5.69987494 5.22555728 -2.91202355 2.78541383 0 0 Z " fill="#8E468D" transform="translate(96,98)"/>
<path d="M0 0 C0.33 0.99 0.66 1.98 1 3 C3.39068734 4.10636395 3.39068734 4.10636395 6 5 C6.99 5.66 7.98 6.32 9 7 C14.25565481 6.74973072 18.9847134 5.78729138 24.0625 4.4375 C33.42213676 2.05031992 40.15599408 2.93728478 49 7 C52.1875 9.125 52.1875 9.125 54 11 C54 11.66 54 12.32 54 13 C51.36583011 12.47316602 49.51728113 11.73765279 47.125 10.4375 C39.17891862 7.06336778 30.53021096 8.17384361 22.69897461 11.20141602 C21.34986316 11.7615474 20.00987464 12.34436483 18.68188477 12.95288086 C13.51249932 15.22586357 10.38111599 15.18080915 5 14 C2.2000331 12.66642943 1.17238467 11.38432463 -1 9 C-2 5.875 -2 5.875 -2 3 C-1.34 2.01 -0.68 1.02 0 0 Z " fill="#914490" transform="translate(240,100)"/>
<path d="M0 0 C1.00869141 -0.020625 2.01738281 -0.04125 3.05664062 -0.0625 C9.89296142 -0.09771608 15.64390154 0.89334444 22.0625 3.25 C19.08075498 4.24391501 18.02362291 4.26862956 15.03515625 3.84765625 C9.86243617 3.1946462 4.70615364 2.92071546 -0.5 2.6875 C-3.614375 2.543125 -6.72875 2.39875 -9.9375 2.25 C-9.9375 13.47 -9.9375 24.69 -9.9375 36.25 C-8.2875 36.25 -6.6375 36.25 -4.9375 36.25 C-4.9375 26.35 -4.9375 16.45 -4.9375 6.25 C-0.8846875 6.188125 -0.8846875 6.188125 3.25 6.125 C4.09199951 6.10679199 4.93399902 6.08858398 5.80151367 6.06982422 C10.01489159 6.03877353 13.21941829 6.2938021 17.0625 8.25 C14.0625 9.25 14.0625 9.25 11.0625 8.25 C6.1125 7.92 1.1625 7.59 -3.9375 7.25 C-3.9375 17.48 -3.9375 27.71 -3.9375 38.25 C-6.2475 38.25 -8.5575 38.25 -10.9375 38.25 C-12.72580448 36.46169552 -12.06598711 34.05418848 -12.07644653 31.67358398 C-12.0744223 30.89442627 -12.07239807 30.11526855 -12.0703125 29.3125 C-12.07126923 28.517229 -12.07222595 27.72195801 -12.07321167 26.90258789 C-12.07389343 25.2179354 -12.07203943 23.53328029 -12.06787109 21.84863281 C-12.06252275 19.26100803 -12.06781619 16.67355684 -12.07421875 14.0859375 C-12.07355797 12.45312461 -12.0722768 10.82031184 -12.0703125 9.1875 C-12.07233673 8.40834229 -12.07436096 7.62918457 -12.07644653 6.82641602 C-12.03756133 -2.02400515 -7.72073164 0.03815062 0 0 Z " fill="#D0A4CC" transform="translate(70.9375,38.75)"/>
<path d="M0 0 C2.30078125 0.0703125 2.30078125 0.0703125 5 1 C6.3657676 3.36157557 7.2866235 5.34097718 8.1875 7.875 C8.44015625 8.54885742 8.6928125 9.22271484 8.953125 9.91699219 C10.93407227 15.38534008 12.91568982 21.14044234 13 27 C12.34 27.99 11.68 28.98 11 30 C10.01 30 9.02 30 8 30 C7.00847274 27.67127542 6.03183993 25.3379503 5.0625 23 C4.78470703 22.35160156 4.50691406 21.70320313 4.22070312 21.03515625 C2.28519888 16.32465193 1.44748523 12.07527556 1 7 C0.34 7 -0.32 7 -1 7 C-0.67 4.69 -0.34 2.38 0 0 Z " fill="#A560A1" transform="translate(216,43)"/>
<path d="M0 0 C0 3.60777515 -0.9904432 5.06295544 -3 8 C-3.66 8.33 -4.32 8.66 -5 9 C-5 9.66 -5 10.32 -5 11 C-3.35 11 -1.7 11 0 11 C-4.36648244 15.96254194 -11.62882192 17.33633562 -18 18 C-24.5888505 18.40861088 -30.58828897 17.49918922 -37 16 C-37 15.67 -37 15.34 -37 15 C-35.9627478 15.00785522 -35.9627478 15.00785522 -34.90454102 15.01586914 C-31.79053648 15.036575 -28.67654639 15.04963963 -25.5625 15.0625 C-24.47388672 15.07087891 -23.38527344 15.07925781 -22.26367188 15.08789062 C-20.71196289 15.09272461 -20.71196289 15.09272461 -19.12890625 15.09765625 C-18.17056885 15.10289307 -17.21223145 15.10812988 -16.22485352 15.11352539 C-14.02714661 15.2505313 -14.02714661 15.2505313 -13 14 C-11.00041636 13.95919217 -8.99954746 13.95745644 -7 14 C-7 13.01 -7 12.02 -7 11 C-7.72703125 11.144375 -8.4540625 11.28875 -9.203125 11.4375 C-20.79261441 13.57709805 -30.22824104 14.33821683 -41 9 C-38 8 -38 8 -35.265625 8.9140625 C-26.91148289 11.69211454 -17.12086638 10.9880449 -9.1640625 7.2890625 C-5.69987494 5.22555728 -2.91202355 2.78541383 0 0 Z " fill="#C796C4" transform="translate(96,98)"/>
<path d="M0 0 C0.6875 1.6875 0.6875 1.6875 1 4 C-0.25 6.75 -0.25 6.75 -2 9 C-2.99 9 -3.98 9 -5 9 C-4.67 9.66 -4.34 10.32 -4 11 C-1.47266765 11.65555119 -1.47266765 11.65555119 1 12 C1.33 9.69 1.66 7.38 2 5 C2.99 5 3.98 5 5 5 C6 7 6 7 5.50268555 8.86352539 C5.2169165 9.60078857 4.93114746 10.33805176 4.63671875 11.09765625 C4.32669922 11.89880859 4.01667969 12.69996094 3.69726562 13.52539062 C3.36404297 14.36263672 3.03082031 15.19988281 2.6875 16.0625 C2.20506836 17.32416992 2.20506836 17.32416992 1.71289062 18.61132812 C-0.7439458 24.8719729 -0.7439458 24.8719729 -3 26 C-4.36957005 22.73540494 -5.71794485 19.46246823 -7.0625 16.1875 C-7.45244141 15.25873047 -7.84238281 14.32996094 -8.24414062 13.37304688 C-8.60830078 12.48037109 -8.97246094 11.58769531 -9.34765625 10.66796875 C-9.68804932 9.84578857 -10.02844238 9.0236084 -10.37915039 8.17651367 C-11 6 -11 6 -10 3 C-9.87625 3.639375 -9.7525 4.27875 -9.625 4.9375 C-9.41875 5.618125 -9.2125 6.29875 -9 7 C-8.34 7.33 -7.68 7.66 -7 8 C-7.33 8.66 -7.66 9.32 -8 10 C-7.34 10 -6.68 10 -6 10 C-5.34 7.69 -4.68 5.38 -4 3 C-3.34 3.66 -2.68 4.32 -2 5 C-1.34 3.35 -0.68 1.7 0 0 Z " fill="#924190" transform="translate(168,88)"/>
<path d="M0 0 C2.64 0 5.28 0 8 0 C7.35983027 5.13756468 5.80299667 9.58790181 3.9375 14.375 C3.65583984 15.11105469 3.37417969 15.84710938 3.08398438 16.60546875 C2.39433382 18.4055736 1.69786068 20.2030621 1 22 C0.71125 21.401875 0.4225 20.80375 0.125 20.1875 C-1.04742026 17.80672208 -1.04742026 17.80672208 -3 15 C-3.99 15.99 -4.98 16.98 -6 18 C-4.23536928 11.89262558 -2.30442525 5.92566493 0 0 Z " fill="#AC69AA" transform="translate(187,37)"/>
<path d="M0 0 C5.8552795 2.49133923 9.23949106 7.96185778 11.8125 13.625 C13.96010321 19.72871439 14.13289936 25.48490408 14.0625 31.875 C14.05798828 32.65875 14.05347656 33.4425 14.04882812 34.25 C14.03714093 36.16670014 14.01920908 38.08336048 14 40 C13.67 40 13.34 40 13 40 C12.67 35.38 12.34 30.76 12 26 C11.67 27.65 11.34 29.3 11 31 C10.67 31 10.34 31 10 31 C8.75 24.375 8.75 24.375 11 21 C10.67 20.67 10.34 20.34 10 20 C9.63557767 18.33985384 9.30027117 16.67293936 9 15 C8.34 15 7.68 15 7 15 C7 18.3 7 21.6 7 25 C6.67 25 6.34 25 6 25 C5.773125 23.865625 5.54625 22.73125 5.3125 21.5625 C4.08384273 16.5492196 1.65927213 12.38475405 -1 8 C-0.34 8 0.32 8 1 8 C1.33 8.66 1.66 9.32 2 10 C4.02463255 10.65213292 4.02463255 10.65213292 6 11 C4.33075929 7.95865509 4.33075929 7.95865509 2 7 C1.61781233 5.34385343 1.28604898 3.67542976 1 2 C0.67 1.34 0.34 0.68 0 0 Z " fill="#AA6AA7" transform="translate(96,45)"/>
<path d="M0 0 C0.99 0 1.98 0 3 0 C4.01189324 2.70440515 5.00965691 5.41270901 6 8.125 C6.28617188 8.88554688 6.57234375 9.64609375 6.8671875 10.4296875 C8.42533754 14.73314951 9.55132832 18.35505893 9 23 C8.34 23.99 7.68 24.98 7 26 C6.34 26 5.68 26 5 26 C3.19266201 22.02385643 2.56976841 18.31396079 2 14 C1.67 13.34 1.34 12.68 1 12 C1.33 11.34 1.66 10.68 2 10 C1.34 10 0.68 10 0 10 C-1.125 2.25 -1.125 2.25 0 0 Z " fill="#A35AA1" transform="translate(155,72)"/>
<path d="M0 0 C0.99 0.99 1.98 1.98 3 3 C2.67 3.99 2.34 4.98 2 6 C1.01 5.67 0.02 5.34 -1 5 C-1.33 7.31 -1.66 9.62 -2 12 C-1.34 12 -0.68 12 0 12 C0.33 13.65 0.66 15.3 1 17 C0.34 17 -0.32 17 -1 17 C-1.19335938 17.69867188 -1.38671875 18.39734375 -1.5859375 19.1171875 C-1.97652344 20.48230469 -1.97652344 20.48230469 -2.375 21.875 C-2.63023437 22.77992187 -2.88546875 23.68484375 -3.1484375 24.6171875 C-4 27 -4 27 -6 29 C-6 27.02 -6 25.04 -6 23 C-7.32 23.33 -8.64 23.66 -10 24 C-3.7 3.7 -3.7 3.7 0 0 Z " fill="#AB6BA9" transform="translate(217,38)"/>
<path d="M0 0 C4.42975436 5.23383519 6.35243885 11.46333461 8 18 C7.01 17.67 6.02 17.34 5 17 C4.67 16.34 4.34 15.68 4 15 C3.01 16.32 2.02 17.64 1 19 C0.15321949 17.13103445 -0.67686211 15.25449819 -1.5 13.375 C-1.9640625 12.33085938 -2.428125 11.28671875 -2.90625 10.2109375 C-4.02767398 6.91875709 -4.207138 4.44884777 -4 1 C-2 0 -2 0 0 0 Z " fill="#AA6BA7" transform="translate(236,86)"/>
<path d="M0 0 C3 1 3 1 4 3 C4.99 2.67 5.98 2.34 7 2 C7.33 4.31 7.66 6.62 8 9 C7.01 9.33 6.02 9.66 5 10 C5 11.32 5 12.64 5 14 C4.34 14 3.68 14 3 14 C2.34 13.34 1.68 12.68 1 12 C0.01 12.33 -0.98 12.66 -2 13 C-2 12.01 -2 11.02 -2 10 C-3.32 9.67 -4.64 9.34 -6 9 C-5.34 8.01 -4.68 7.02 -4 6 C-4.30840599 3.84725052 -4.30840599 3.84725052 -5 2 C-3.35 2.33 -1.7 2.66 0 3 C0 2.01 0 1.02 0 0 Z " fill="#F6C9E5" transform="translate(123,21)"/>
<path d="M0 0 C3.15817518 4.73726277 4.70871168 10.09884052 6.625 15.4375 C7.25535156 17.15549805 7.25535156 17.15549805 7.8984375 18.90820312 C8.29546875 20.00970703 8.6925 21.11121094 9.1015625 22.24609375 C9.46588379 23.25341553 9.83020508 24.2607373 10.20556641 25.29858398 C11 28 11 28 11 32 C10.34 32 9.68 32 9 32 C9 35.3 9 38.6 9 42 C9.66 42 10.32 42 11 42 C12.07637127 45.87493656 11.94566951 47.52452927 10 51 C9.13444052 48.90049414 8.28288723 46.7952093 7.4375 44.6875 C6.96183594 43.51574219 6.48617187 42.34398437 5.99609375 41.13671875 C4.80891032 37.39825486 5.47253438 36.14801341 7.0625 32.6875 C8.12317586 29.64689587 8.14871998 27.19747958 8 24 C7.01 23.67 6.02 23.34 5 23 C4.896875 21.989375 4.79375 20.97875 4.6875 19.9375 C3.98122631 15.89247795 2.66099505 12.73723887 1 9 C0.17484518 5.77439479 0 3.38063619 0 0 Z " fill="#AF6CAB" transform="translate(146,40)"/>
<path d="M0 0 C2.29633824 3.44450737 2.54016485 5.93812283 3 10 C2.01 10 1.02 10 0 10 C0 11.32 0 12.64 0 14 C-0.66 14 -1.32 14 -2 14 C-2.33 17.3 -2.66 20.6 -3 24 C-4.32 24 -5.64 24 -7 24 C-6.41414141 11.51515152 -6.41414141 11.51515152 -3 6 C-2.1646875 4.329375 -2.1646875 4.329375 -1.3125 2.625 C-0.6628125 1.325625 -0.6628125 1.325625 0 0 Z " fill="#9A4C99" transform="translate(184,49)"/>
<path d="M0 0 C3.861386 1.68496844 4.77584515 2.7151195 6.4375 6.5 C6.7675 7.49 7.0975 8.48 7.4375 9.5 C8.93735609 11.16710346 8.93735609 11.16710346 10.4375 12.5 C9.7775 13.16 9.1175 13.82 8.4375 14.5 C7.1175 13.84 5.7975 13.18 4.4375 12.5 C4.4375 11.84 4.4375 11.18 4.4375 10.5 C3.6021875 10.3453125 3.6021875 10.3453125 2.75 10.1875 C-1.92013073 8.79908276 -4.90298278 6.55926313 -7.5625 2.5 C-4.85656744 -0.31416986 -3.96298796 -0.55620884 0 0 Z " fill="#9E589C" transform="translate(92.5625,42.5)"/>
<path d="M0 0 C-4.62 0 -9.24 0 -14 0 C-10.8134375 0.680625 -10.8134375 0.680625 -7.5625 1.375 C-5.35864524 1.84572626 -3.16467461 2.37330801 -1 3 C-0.505 3.99 -0.505 3.99 0 5 C-0.65484375 4.84402344 -1.3096875 4.68804687 -1.984375 4.52734375 C-13.98369554 1.96816663 -23.1698146 3.22247984 -34 9 C-31.60156708 3.631545 -27.65247037 1.82623518 -22.5 -0.75 C-15.41266146 -3.26353285 -6.67904916 -3.33952458 0 0 Z " fill="#DBBBDC" transform="translate(52,105)"/>
<path d="M0 0 C1.32 0.33 2.64 0.66 4 1 C4 2.32 4 3.64 4 5 C3.01 5.495 3.01 5.495 2 6 C1.731875 6.969375 1.46375 7.93875 1.1875 8.9375 C0 12 0 12 -2.375 13.4375 C-5.05970136 14.01279315 -6.45545955 13.94242239 -9 13 C-8.67 12.01 -8.34 11.02 -8 10 C-7.34 10 -6.68 10 -6 10 C-5.896875 9.4225 -5.79375 8.845 -5.6875 8.25 C-4.89103535 5.64338842 -3.80934723 4.0264689 -2 2 C-1.34 2 -0.68 2 0 2 C0 1.34 0 0.68 0 0 Z " fill="#994E99" transform="translate(99,96)"/>
<path d="M0 0 C1.8125 1.875 1.8125 1.875 1.8125 3.875 C-0.79616997 3.35326601 -2.72891023 2.5985352 -5.125 1.375 C-10.46840908 -1.02719048 -16.42117396 -0.87353616 -22.1875 -1.125 C-22.1875 -1.455 -22.1875 -1.785 -22.1875 -2.125 C-16.7425 -2.62 -16.7425 -2.62 -11.1875 -3.125 C-17.4575 -3.125 -23.7275 -3.125 -30.1875 -3.125 C-20.74842735 -9.4177151 -8.78115011 -5.85410007 0 0 Z " fill="#E1C5E0" transform="translate(292.1875,109.125)"/>
<path d="M0 0 C0.33 1.32 0.66 2.64 1 4 C1.928125 3.2575 1.928125 3.2575 2.875 2.5 C5 1 5 1 7 1 C6.29937517 5.56736441 4.68729793 9.5699505 2.9375 13.8125 C2.65583984 14.50537109 2.37417969 15.19824219 2.08398438 15.91210938 C1.39325027 17.60967624 0.69716272 19.30506312 0 21 C-0.33 21 -0.66 21 -1 21 C-0.87431641 19.82630859 -0.87431641 19.82630859 -0.74609375 18.62890625 C-0.64425781 17.61699219 -0.54242188 16.60507813 -0.4375 15.5625 C-0.33308594 14.55316406 -0.22867188 13.54382813 -0.12109375 12.50390625 C-0.08113281 11.67761719 -0.04117188 10.85132812 0 10 C-0.33 9.67 -0.66 9.34 -1 9 C-1.99 9.99 -2.98 10.98 -4 12 C-2.66666667 8 -1.33333333 4 0 0 Z " fill="#B379B1" transform="translate(197,83)"/>
<path d="M0 0 C0.33 0 0.66 0 1 0 C1.07347656 1.12148437 1.07347656 1.12148437 1.1484375 2.265625 C1.22320312 3.25046875 1.29796875 4.2353125 1.375 5.25 C1.44460937 6.22453125 1.51421875 7.1990625 1.5859375 8.203125 C1.98465249 10.89633189 2.63507063 12.66963279 4 15 C4.33 14.01 4.66 13.02 5 12 C5.66 11.67 6.32 11.34 7 11 C6.40722419 15.74220651 4.56522805 19.99293688 2 24 C1.01 24.66 0.02 25.32 -1 26 C-0.67 24.35 -0.34 22.7 0 21 C0.66 21 1.32 21 2 21 C1.73323796 19.01508358 1.73323796 19.01508358 1 17 C0.01 16.67 -0.98 16.34 -2 16 C-2 16.66 -2 17.32 -2 18 C-2.66 18 -3.32 18 -4 18 C-3.69255859 17.05640625 -3.69255859 17.05640625 -3.37890625 16.09375 C-1.68028765 10.69718181 -0.52161147 5.63340386 0 0 Z " fill="#BC8ABB" transform="translate(101,80)"/>
<path d="M0 0 C1.21236328 0.01353516 1.21236328 0.01353516 2.44921875 0.02734375 C3.37154297 0.04474609 3.37154297 0.04474609 4.3125 0.0625 C4.3125 1.0525 4.3125 2.0425 4.3125 3.0625 C-0.73575632 4.70824462 -5.00872542 5.33420384 -10.375 5.3125 C-12.29892578 5.32023437 -12.29892578 5.32023437 -14.26171875 5.328125 C-17.38734783 5.08577292 -19.08649683 4.72187418 -21.6875 3.0625 C-17.89048927 1.79682976 -14.25677687 1.64298321 -10.28125 1.34375 C-6.67084335 0.95226012 -3.68796655 -0.05344879 0 0 Z " fill="#923F8C" transform="translate(84.6875,108.9375)"/>
<path d="M0 0 C2 1 2 1 3.0625 3.625 C4 7 4 7 4.5 10.8125 C4.665 11.864375 4.83 12.91625 5 14 C5.66 14.33 6.32 14.66 7 15 C8.2935896 19.63536273 7.78949129 22.57890387 6 27 C3 26 3 26 1.8125 23.8125 C0.92665021 20.74609689 0.85229682 18.17561845 1 15 C1.33 15 1.66 15 2 15 C2.19388736 10.15281607 1.68831526 6.53734727 0 2 C0 1.34 0 0.68 0 0 Z " fill="#A0589F" transform="translate(147,49)"/>
<path d="M0 0 C1.32 0.33 2.64 0.66 4 1 C4 2.65 4 4.3 4 6 C3.01 6 2.02 6 1 6 C0.67 8.97 0.34 11.94 0 15 C-0.33 14.34 -0.66 13.68 -1 13 C-1.99 13.33 -2.98 13.66 -4 14 C-4 13.34 -4 12.68 -4 12 C-4.99 12.33 -5.98 12.66 -7 13 C-7 12.01 -7 11.02 -7 10 C-6.01 9.67 -5.02 9.34 -4 9 C-2.76049958 6.90861544 -2.76049958 6.90861544 -1.8125 4.4375 C-1.46832031 3.61121094 -1.12414062 2.78492187 -0.76953125 1.93359375 C-0.38861328 0.97646484 -0.38861328 0.97646484 0 0 Z " fill="#903F8D" transform="translate(170,87)"/>
<path d="M0 0 C0.33 0.66 0.66 1.32 1 2 C0.67 2.99 0.34 3.98 0 5 C1.32 5.33 2.64 5.66 4 6 C4 4.35 4 2.7 4 1 C4.99 1 5.98 1 7 1 C6.49287967 4.71888239 5.88391785 7.73454239 4 11 C1.36 11 -1.28 11 -4 11 C-3.5247412 9.35303396 -3.04468109 7.70745272 -2.5625 6.0625 C-2.29566406 5.14597656 -2.02882812 4.22945313 -1.75390625 3.28515625 C-1 1 -1 1 0 0 Z " fill="#B482B2" transform="translate(189,103)"/>
<path d="M0 0 C0.66 0.33 1.32 0.66 2 1 C-10.1697191 7.76095506 -21.65211747 8.12100802 -35 5 C-35 4.67 -35 4.34 -35 4 C-34.30849854 4.00523682 -33.61699707 4.01047363 -32.90454102 4.01586914 C-29.79053648 4.036575 -26.67654639 4.04963963 -23.5625 4.0625 C-22.47388672 4.07087891 -21.38527344 4.07925781 -20.26367188 4.08789062 C-18.71196289 4.09272461 -18.71196289 4.09272461 -17.12890625 4.09765625 C-16.17056885 4.10289307 -15.21223145 4.10812988 -14.22485352 4.11352539 C-12.02714661 4.2505313 -12.02714661 4.2505313 -11 3 C-9.52918096 2.63157566 -8.04792853 2.30421576 -6.5625 2 C-4.15670855 1.50571219 -2.19915754 1.09957877 0 0 Z " fill="#D1A7CF" transform="translate(94,109)"/>
<path d="M0 0 C0.15210938 0.61746094 0.30421875 1.23492187 0.4609375 1.87109375 C0.81686459 3.27674785 1.20448452 4.67479893 1.625 6.0625 C2 8 2 8 1 11 C1.66 11.33 2.32 11.66 3 12 C3 10.35 3 8.7 3 7 C3.99 6.67 4.98 6.34 6 6 C5.54803755 7.60597325 5.08817673 9.20972508 4.625 10.8125 C4.36976563 11.70582031 4.11453125 12.59914063 3.8515625 13.51953125 C3 16 3 16 1 19 C0.67 17.35 0.34 15.7 0 14 C-1.32 14 -2.64 14 -4 14 C-3.36843005 8.94744036 -1.86540627 4.70406799 0 0 Z " fill="#B982B6" transform="translate(173,74)"/>
<path d="M0 0 C2.64 0 5.28 0 8 0 C9.125 3.3125 9.125 3.3125 10 7 C9.01 8.485 9.01 8.485 8 10 C8 8.35 8 6.7 8 5 C7.34 5 6.68 5 6 5 C5.67 6.65 5.34 8.3 5 10 C4.34 8.68 3.68 7.36 3 6 C2.34 6 1.68 6 1 6 C0.67 4.02 0.34 2.04 0 0 Z " fill="#8F438C" transform="translate(137,37)"/>
<path d="M0 0 C1.65 0.99 3.3 1.98 5 3 C5.33 2.01 5.66 1.02 6 0 C6.66 0 7.32 0 8 0 C8 0.66 8 1.32 8 2 C7.34 2 6.68 2 6 2 C5.80664062 2.69867188 5.61328125 3.39734375 5.4140625 4.1171875 C5.15367187 5.02726562 4.89328125 5.93734375 4.625 6.875 C4.36976563 7.77992187 4.11453125 8.68484375 3.8515625 9.6171875 C3 12 3 12 1 14 C1 12.02 1 10.04 1 8 C-0.32 8.33 -1.64 8.66 -3 9 C-2.01 6.03 -1.02 3.06 0 0 Z " fill="#B17BB0" transform="translate(210,53)"/>
<path d="M0 0 C0.66 0 1.32 0 2 0 C2 1.65 2 3.3 2 5 C1.34 5 0.68 5 0 5 C0.2784375 6.1446875 0.2784375 6.1446875 0.5625 7.3125 C1 10 1 10 0 13 C-0.66 13 -1.32 13 -2 13 C-2 12.01 -2 11.02 -2 10 C-3.32 9.67 -4.64 9.34 -6 9 C-5.34 8.01 -4.68 7.02 -4 6 C-4.30840599 3.84725052 -4.30840599 3.84725052 -5 2 C-3.35 2.33 -1.7 2.66 0 3 C0 2.01 0 1.02 0 0 Z " fill="#E8B0CC" transform="translate(123,21)"/>
<path d="M0 0 C2.995389 4.49308351 4.42211915 9.48202352 6.1875 14.5625 C6.56841797 15.62919922 6.94933594 16.69589844 7.34179688 17.79492188 C7.69693359 18.81263672 8.05207031 19.83035156 8.41796875 20.87890625 C8.74563232 21.8129126 9.0732959 22.74691895 9.41088867 23.70922852 C10 26 10 26 9 28 C8.8453125 27.0409375 8.8453125 27.0409375 8.6875 26.0625 C8.460625 25.381875 8.23375 24.70125 8 24 C7.01 23.67 6.02 23.34 5 23 C4.896875 21.989375 4.79375 20.97875 4.6875 19.9375 C3.98122631 15.89247795 2.66099505 12.73723887 1 9 C0.17484518 5.77439479 0 3.38063619 0 0 Z " fill="#C092BF" transform="translate(146,40)"/>
<path d="M0 0 C0.680625 -0.01224609 1.36125 -0.02449219 2.0625 -0.03710938 C3.83490756 -0.04236355 5.6067994 0.06534094 7.375 0.1875 C8.035 0.8475 8.695 1.5075 9.375 2.1875 C7.98474609 2.27837891 7.98474609 2.27837891 6.56640625 2.37109375 C5.36886719 2.45488281 4.17132813 2.53867188 2.9375 2.625 C1.74253906 2.70621094 0.54757812 2.78742188 -0.68359375 2.87109375 C-3.51070244 2.86406114 -3.51070244 2.86406114 -4.625 4.1875 C-7.29558851 4.32865161 -9.94932238 4.22997107 -12.625 4.1875 C-12.295 3.1975 -11.965 2.2075 -11.625 1.1875 C-8.00177459 -0.35638669 -3.88009836 0.00371657 0 0 Z " fill="#986096" transform="translate(273.625,104.8125)"/>
<path d="M0 0 C4 5.41176471 4 5.41176471 4 8 C2.35 8.33 0.7 8.66 -1 9 C-1.33 9.99 -1.66 10.98 -2 12 C-3.80230168 8.17010894 -4.19622241 5.21878192 -4 1 C-2 0 -2 0 0 0 Z " fill="#A75CA2" transform="translate(236,86)"/>
<path d="M0 0 C3.65316671 1.24976756 4.78065836 1.67098753 7 5 C7.33 5.99 7.66 6.98 8 8 C9.49985609 9.66710346 9.49985609 9.66710346 11 11 C10.34 11.66 9.68 12.32 9 13 C7.68 12.34 6.36 11.68 5 11 C5 10.34 5 9.68 5 9 C4.34 9 3.68 9 3 9 C2.67 8.01 2.34 7.02 2 6 C2.66 5.34 3.32 4.68 4 4 C3.34 3.67 2.68 3.34 2 3 C2 3.66 2 4.32 2 5 C1.34 5 0.68 5 0 5 C0 3.35 0 1.7 0 0 Z " fill="#92408E" transform="translate(92,44)"/>
<path d="M0 0 C0.68449219 0.50144531 1.36898437 1.00289063 2.07421875 1.51953125 C5.6976677 3.35302545 7.81031342 3.1321874 11.8125 2.6875 C12.97394531 2.56761719 14.13539063 2.44773437 15.33203125 2.32421875 C16.65267578 2.16373047 16.65267578 2.16373047 18 2 C18 2.66 18 3.32 18 4 C19.32 4.66 20.64 5.32 22 6 C19.03 6.99 16.06 7.98 13 9 C13.33 7.68 13.66 6.36 14 5 C12.98679687 5.05220703 12.98679687 5.05220703 11.953125 5.10546875 C11.06109375 5.13253906 10.1690625 5.15960938 9.25 5.1875 C7.92742187 5.23970703 7.92742187 5.23970703 6.578125 5.29296875 C3.52389051 4.94589665 2.19435701 4.11745198 0 2 C0 1.34 0 0.68 0 0 Z " fill="#CEA0CB" transform="translate(244,104)"/>
<path d="M0 0 C0.6875 1.6875 0.6875 1.6875 1 4 C-0.25 6.75 -0.25 6.75 -2 9 C-2.99 9 -3.98 9 -5 9 C-5.33 11.31 -5.66 13.62 -6 16 C-8.16321167 12.75518249 -9.6314591 9.64944241 -11 6 C-10.67 5.01 -10.34 4.02 -10 3 C-9.87625 3.639375 -9.7525 4.27875 -9.625 4.9375 C-9.41875 5.618125 -9.2125 6.29875 -9 7 C-8.34 7.33 -7.68 7.66 -7 8 C-7.33 8.66 -7.66 9.32 -8 10 C-7.34 10 -6.68 10 -6 10 C-5.34 7.69 -4.68 5.38 -4 3 C-3.34 3.66 -2.68 4.32 -2 5 C-1.34 3.35 -0.68 1.7 0 0 Z " fill="#C795C6" transform="translate(168,88)"/>
<path d="M0 0 C1.98 0.495 1.98 0.495 4 1 C4.66 3.31 5.32 5.62 6 8 C4.68 9.32 3.36 10.64 2 12 C1.67 10.35 1.34 8.7 1 7 C0.34 7 -0.32 7 -1 7 C-0.67 4.69 -0.34 2.38 0 0 Z " fill="#90428D" transform="translate(216,43)"/>
<path d="M0 0 C1.32 0.33 2.64 0.66 4 1 C4 2.32 4 3.64 4 5 C3.01 5.495 3.01 5.495 2 6 C1.01 7.485 1.01 7.485 0 9 C-0.99 8.34 -1.98 7.68 -3 7 C-3.99 7.66 -4.98 8.32 -6 9 C-4.79618552 6.50638429 -3.54571278 4.31856917 -2 2 C-1.34 2 -0.68 2 0 2 C0 1.34 0 0.68 0 0 Z " fill="#943A91" transform="translate(99,96)"/>
<path d="M0 0 C1.63018628 4.87954405 -0.2318803 8.38582798 -2 13 C-2.37898437 14.04220703 -2.37898437 14.04220703 -2.765625 15.10546875 C-3.5 17 -3.5 17 -5 20 C-5.99 20.33 -6.98 20.66 -8 21 C-5.72564796 13.81783567 -2.96415819 6.9241798 0 0 Z " fill="#BF8ABB" transform="translate(206,62)"/>
<path d="M0 0 C3.64037693 5.4605654 3.13239068 11.53107667 3.0625 17.875 C3.05798828 18.65875 3.05347656 19.4425 3.04882812 20.25 C3.03714093 22.16670014 3.01920908 24.08336048 3 26 C2.67 26 2.34 26 2 26 C1.67 21.38 1.34 16.76 1 12 C0.67 13.65 0.34 15.3 0 17 C-0.33 17 -0.66 17 -1 17 C-2.25 10.375 -2.25 10.375 0 7 C0.07905064 4.66800612 0.08798769 2.33167378 0 0 Z " fill="#C992C7" transform="translate(107,59)"/>
<path d="M0 0 C3.62484173 -0.08837761 7.24940017 -0.14084706 10.875 -0.1875 C12.39480469 -0.22520508 12.39480469 -0.22520508 13.9453125 -0.26367188 C20.81283888 -0.32970578 26.55345546 0.6220883 33 3 C29.90521121 4.03159626 28.47368607 3.97482862 25.3125 3.5625 C24.50425781 3.46066406 23.69601563 3.35882813 22.86328125 3.25390625 C22.24839844 3.17011719 21.63351563 3.08632813 21 3 C21 2.34 21 1.68 21 1 C14.07 1 7.14 1 0 1 C0 0.67 0 0.34 0 0 Z " fill="#D0A9D0" transform="translate(60,39)"/>
<path d="M0 0 C5.80528846 2.52403846 5.80528846 2.52403846 6.84375 5.0625 C7.2253125 5.701875 7.606875 6.34125 8 7 C10.64787088 7.70373017 10.64787088 7.70373017 13.625 7.75 C15.12933594 7.83507812 15.12933594 7.83507812 16.6640625 7.921875 C17.43492187 7.94765625 18.20578125 7.9734375 19 8 C15.51264234 9.99166871 13.06604379 10.24226202 9.03515625 9.609375 C5.45039575 8.53601101 3.57758499 6.70332085 1 4 C0.125 1.6875 0.125 1.6875 0 0 Z " fill="#CA9ECA" transform="translate(238,105)"/>
<path d="M0 0 C0 0.66 0 1.32 0 2 C0.66 2.33 1.32 2.66 2 3 C1.01 3.33 0.02 3.66 -1 4 C-1.33 3.34 -1.66 2.68 -2 2 C-2.68964844 2.01160156 -3.37929688 2.02320312 -4.08984375 2.03515625 C-10.15772652 2.09342124 -15.98357396 1.78903948 -22 1 C-22 0.67 -22 0.34 -22 0 C-14.72491206 -1.87744205 -7.3394308 -1.06755357 0 0 Z " fill="#A166A0" transform="translate(55,105)"/>
<path d="M0 0 C0.33 0.66 0.66 1.32 1 2 C1.66 2 2.32 2 3 2 C3 3.98 3 5.96 3 8 C2.34 8 1.68 8 1 8 C1 9.65 1 11.3 1 13 C0.01 12.67 -0.98 12.34 -2 12 C-1.7215625 11.1028125 -1.7215625 11.1028125 -1.4375 10.1875 C-0.77906313 7.83591238 -0.77906313 7.83591238 -2 5 C-1.0625 2.3125 -1.0625 2.3125 0 0 Z " fill="#913E8C" transform="translate(175,73)"/>
<path d="M0 0 C1.125 1.625 1.125 1.625 2 4 C1.125 7.25 1.125 7.25 0 10 C-0.66 10 -1.32 10 -2 10 C-2 9.34 -2 8.68 -2 8 C-2.66 8 -3.32 8 -4 8 C-4.33 8.99 -4.66 9.98 -5 11 C-6 9 -6 9 -5.3125 6.625 C-3.90601689 3.81203377 -2.32442123 2.0919791 0 0 Z " fill="#A55CA3" transform="translate(196,91)"/>
<path d="M0 0 C0.66 0 1.32 0 2 0 C2 2.31 2 4.62 2 7 C1.34 7 0.68 7 0 7 C-0.33 8.32 -0.66 9.64 -1 11 C-1.33 10.34 -1.66 9.68 -2 9 C-2.99 9.99 -3.98 10.98 -5 12 C-4.34 9.69 -3.68 7.38 -3 5 C-2.34 5 -1.68 5 -1 5 C-0.67 3.35 -0.34 1.7 0 0 Z " fill="#92408C" transform="translate(202,77)"/>
<path d="M0 0 C0.66 0 1.32 0 2 0 C2.33 1.65 2.66 3.3 3 5 C3.66 5 4.32 5 5 5 C3.85408232 8.43775304 2.44249373 11.6759927 1 15 C0.67 15 0.34 15 0 15 C0 10.05 0 5.1 0 0 Z " fill="#943990" transform="translate(103,60)"/>
<path d="M0 0 C1 3 1 3 0.109375 5.41015625 C-0.33921875 6.28542969 -0.7878125 7.16070312 -1.25 8.0625 C-1.68828125 8.94035156 -2.1265625 9.81820312 -2.578125 10.72265625 C-4 13 -4 13 -7 15 C-6.67 13.35 -6.34 11.7 -6 10 C-5.34 10 -4.68 10 -4 10 C-4 8.02 -4 6.04 -4 4 C-3.34 4 -2.68 4 -2 4 C-1.67 3.01 -1.34 2.02 -1 1 C-0.67 0.67 -0.34 0.34 0 0 Z " fill="#B681B4" transform="translate(107,91)"/>
<path d="M0 0 C2.34914492 2.34914492 2.73140357 3.95679446 3.625 7.125 C3.88539063 8.03507812 4.14578125 8.94515625 4.4140625 9.8828125 C4.70410156 10.93082031 4.70410156 10.93082031 5 12 C3.68 11.67 2.36 11.34 1 11 C0.67 12.65 0.34 14.3 0 16 C-2 13 -2 13 -2 11 C-1.34 11 -0.68 11 0 11 C1.05404945 7.01803543 0.84098656 4.01804691 0 0 Z " fill="#BC81BB" transform="translate(227,62)"/>
<path d="M0 0 C2.34914492 2.34914492 2.73140357 3.95679446 3.625 7.125 C3.88539063 8.03507812 4.14578125 8.94515625 4.4140625 9.8828125 C4.70410156 10.93082031 4.70410156 10.93082031 5 12 C4.34 12 3.68 12 3 12 C3 11.01 3 10.02 3 9 C2.01 9.495 2.01 9.495 1 10 C0.34227572 13.02934491 0.34227572 13.02934491 0 16 C-0.66 15.34 -1.32 14.68 -2 14 C-1.64700993 10.55834679 -0.95418308 8.93127462 1 6 C0.68493373 2.85778033 0.68493373 2.85778033 0 0 Z " fill="#C391C0" transform="translate(220,44)"/>
<path d="M0 0 C1.2065625 0.0309375 1.2065625 0.0309375 2.4375 0.0625 C1.046875 2.078125 1.046875 2.078125 -1.5625 4.0625 C-4.8457342 4.43000355 -8.03151654 4.11782047 -11.3125 3.8125 C-12.20066406 3.74675781 -13.08882813 3.68101563 -14.00390625 3.61328125 C-16.19231235 3.44856251 -18.37726178 3.26439011 -20.5625 3.0625 C-20.5625 2.7325 -20.5625 2.4025 -20.5625 2.0625 C-18.73912109 1.97162109 -18.73912109 1.97162109 -16.87890625 1.87890625 C-15.29425772 1.79451668 -13.70962298 1.7098679 -12.125 1.625 C-11.32255859 1.58568359 -10.52011719 1.54636719 -9.69335938 1.50585938 C-6.13718939 1.3107952 -3.25169171 0.07930955 0 0 Z " fill="#974F94" transform="translate(86.5625,41.9375)"/>
<path d="M0 0 C0.99 0.33 1.98 0.66 3 1 C3 1.66 3 2.32 3 3 C3.99 3.33 4.98 3.66 6 4 C6.33 3.34 6.66 2.68 7 2 C6.50168276 5.68754757 5.89932357 7.60490662 3 10 C0 3.375 0 3.375 0 0 Z " fill="#C9A1C7" transform="translate(162,104)"/>
<path d="M0 0 C0.14953125 0.61875 0.2990625 1.2375 0.453125 1.875 C0.96031829 4.00234405 0.96031829 4.00234405 1.75 6 C2 8 2 8 0.6875 10.25 C0.130625 10.8275 -0.42625 11.405 -1 12 C-1.66 12 -2.32 12 -3 12 C-3.33 12.66 -3.66 13.32 -4 14 C-3.36843005 8.94744036 -1.86540627 4.70406799 0 0 Z " fill="#C085BD" transform="translate(173,74)"/>
<path d="M0 0 C0.99 0.33 1.98 0.66 3 1 C2.54965877 2.62723299 2.08944646 4.25173664 1.625 5.875 C1.36976563 6.77992187 1.11453125 7.68484375 0.8515625 8.6171875 C0 11 0 11 -2 13 C-2.33 12.01 -2.66 11.02 -3 10 C-2.34 10 -1.68 10 -1 10 C-1.01160156 9.36191406 -1.02320313 8.72382812 -1.03515625 8.06640625 C-1.04417969 7.24011719 -1.05320313 6.41382812 -1.0625 5.5625 C-1.07410156 4.73878906 -1.08570313 3.91507812 -1.09765625 3.06640625 C-1 1 -1 1 0 0 Z " fill="#B175AF" transform="translate(171,92)"/>
<path d="M0 0 C1.32 0.33 2.64 0.66 4 1 C4.33 2.98 4.66 4.96 5 7 C4.34 7 3.68 7 3 7 C3 7.66 3 8.32 3 9 C2.34 8.67 1.68 8.34 1 8 C0.40644386 5.35139573 0.25790731 2.70802678 0 0 Z " fill="#933F8E" transform="translate(228,73)"/>
<path d="M0 0 C1.65 0.99 3.3 1.98 5 3 C5.33 2.01 5.66 1.02 6 0 C6.66 0 7.32 0 8 0 C8 0.66 8 1.32 8 2 C7.34 2 6.68 2 6 2 C5.34 4.31 4.68 6.62 4 9 C1.4375 6.75 1.4375 6.75 -1 4 C-0.8125 1.6875 -0.8125 1.6875 0 0 Z " fill="#C78DC2" transform="translate(210,53)"/>
<path d="M0 0 C0.99 0.99 1.98 1.98 3 3 C2.67 3.99 2.34 4.98 2 6 C1.01 5.67 0.02 5.34 -1 5 C-1 6.32 -1 7.64 -1 9 C-1.99 9.33 -2.98 9.66 -4 10 C-3.52449439 8.51965236 -3.04448784 7.04074979 -2.5625 5.5625 C-2.29566406 4.73878906 -2.02882812 3.91507813 -1.75390625 3.06640625 C-1 1 -1 1 0 0 Z " fill="#C597BF" transform="translate(217,38)"/>
<path d="M0 0 C0.33 0 0.66 0 1 0 C0.67 3.3 0.34 6.6 0 10 C-1.32 10 -2.64 10 -4 10 C-4 9.01 -4 8.02 -4 7 C-3.34 7 -2.68 7 -2 7 C-1.855625 6.030625 -1.71125 5.06125 -1.5625 4.0625 C-1 1 -1 1 0 0 Z " fill="#933891" transform="translate(181,63)"/>
<path d="M0 0 C2.64 0 5.28 0 8 0 C7.67 1.98 7.34 3.96 7 6 C6.34 6 5.68 6 5 6 C4.67 5.01 4.34 4.02 4 3 C1.98491642 2.26676204 1.98491642 2.26676204 0 2 C0 1.34 0 0.68 0 0 Z " fill="#C49CC2" transform="translate(187,37)"/>
<path d="M0 0 C2.64 0 5.28 0 8 0 C8 0.99 8 1.98 8 3 C6.824375 2.9071875 6.824375 2.9071875 5.625 2.8125 C4.325625 2.9053125 4.325625 2.9053125 3 3 C2.34 3.99 1.68 4.98 1 6 C0.67 4.02 0.34 2.04 0 0 Z " fill="#D6B0D1" transform="translate(137,37)"/>
<path d="M0 0 C1.2065625 0.0309375 1.2065625 0.0309375 2.4375 0.0625 C2.1075 1.0525 1.7775 2.0425 1.4375 3.0625 C0.7775 3.0625 0.1175 3.0625 -0.5625 3.0625 C-0.5625 4.3825 -0.5625 5.7025 -0.5625 7.0625 C-1.2225 7.0625 -1.8825 7.0625 -2.5625 7.0625 C-2.94383299 5.0710944 -3.27575582 3.06970923 -3.5625 1.0625 C-2.5625 0.0625 -2.5625 0.0625 0 0 Z " fill="#E8B4D0" transform="translate(128.5625,27.9375)"/>
<path d="M0 0 C0.66 0 1.32 0 2 0 C2 1.65 2 3.3 2 5 C-1.01031744 5.93423645 -1.86650268 6.04449911 -5 5 C-5 4.01 -5 3.02 -5 2 C-2.525 2.495 -2.525 2.495 0 3 C0 2.01 0 1.02 0 0 Z " fill="#DEB1C6" transform="translate(123,21)"/>
<path d="M0 0 C1.8253125 0.2784375 1.8253125 0.2784375 3.6875 0.5625 C7.02977939 0.98993182 9.71968417 0.92258883 13 0 C13.33 0.66 13.66 1.32 14 2 C4.58997722 3.51708428 4.58997722 3.51708428 0 1 C0 0.67 0 0.34 0 0 Z " fill="#B077AF" transform="translate(52,110)"/>
<path d="M0 0 C0.66 0 1.32 0 2 0 C2.99 3.63 3.98 7.26 5 11 C4.34 10.67 3.68 10.34 3 10 C3 9.01 3 8.02 3 7 C2.01 6.67 1.02 6.34 0 6 C0 4.02 0 2.04 0 0 Z " fill="#B988B6" transform="translate(151,57)"/>
<path d="M0 0 C0.33 0.66 0.66 1.32 1 2 C1.99 2 2.98 2 4 2 C4.80967438 4.91482778 5.21845993 6.46113217 4.0625 9.3125 C3.5365625 10.1478125 3.5365625 10.1478125 3 11 C2.49384702 9.73160474 1.99530901 8.46016898 1.5 7.1875 C1.2215625 6.47980469 0.943125 5.77210937 0.65625 5.04296875 C0 3 0 3 0 0 Z " fill="#BD87BB" transform="translate(153,80)"/>
<path d="M0 0 C1.25541557 3.76624671 0.37061958 5.37188934 -1 9 C-1.66 8.67 -2.32 8.34 -3 8 C-3.625 4.9375 -3.625 4.9375 -4 2 C-2.68 1.34 -1.36 0.68 0 0 Z " fill="#8F3F8C" transform="translate(154,67)"/>
<path d="M0 0 C1.39195915 4.17587745 -0.17676781 6.13474776 -2 10 C-2.33 10 -2.66 10 -3 10 C-3 7.03 -3 4.06 -3 1 C-2.01 0.67 -1.02 0.34 0 0 Z " fill="#C08ABE" transform="translate(210,67)"/>
<path d="M0 0 C0.99 0.495 0.99 0.495 2 1 C2.8125 4.3125 2.8125 4.3125 3 8 C2.01 9.32 1.02 10.64 0 12 C0 8.04 0 4.08 0 0 Z " fill="#B47EB2" transform="translate(190,39)"/>
<path d="M0 0 C1.5625 1.1875 1.5625 1.1875 3 3 C2.73904456 5.67479327 2.1995243 7.60095141 1 10 C0.34 10 -0.32 10 -1 10 C-0.835 9.278125 -0.67 8.55625 -0.5 7.8125 C-0.02412881 5.13572455 0.077443 2.71050513 0 0 Z " fill="#8E3F8D" transform="translate(161,88)"/>
<path d="M0 0 C0.66 0 1.32 0 2 0 C2 0.99 2 1.98 2 3 C2.99 3.33 3.98 3.66 5 4 C5.6875 6.0625 5.6875 6.0625 6 8 C5.34 8 4.68 8 4 8 C4 7.01 4 6.02 4 5 C2.35 4.67 0.7 4.34 -1 4 C-0.67 2.68 -0.34 1.36 0 0 Z " fill="#AA65A6" transform="translate(221,53)"/>
<path d="M0 0 C0.99 0.33 1.98 0.66 3 1 C2.34 2.65 1.68 4.3 1 6 C-2.465 4.02 -2.465 4.02 -6 2 C-2.25 0.875 -2.25 0.875 0 2 C0 1.34 0 0.68 0 0 Z " fill="#BD83B9" transform="translate(94,47)"/>
<path d="M0 0 C0.66 0 1.32 0 2 0 C2.33 1.98 2.66 3.96 3 6 C1.68 6.33 0.36 6.66 -1 7 C-0.67 4.69 -0.34 2.38 0 0 Z " fill="#993993" transform="translate(216,43)"/>
<path d="M0 0 C0.99 0 1.98 0 3 0 C3.33 1.98 3.66 3.96 4 6 C2.68 6.33 1.36 6.66 0 7 C0 4.69 0 2.38 0 0 Z " fill="#903E8F" transform="translate(187,39)"/>
<path d="M0 0 C1.32 0.66 2.64 1.32 4 2 C1.03 3.32 -1.94 4.64 -5 6 C-3 2 -3 2 0 0 Z " fill="#E0D3DF" transform="translate(23,108)"/>
<path d="M0 0 C1.22589844 0.15275391 1.22589844 0.15275391 2.4765625 0.30859375 C3.41628906 0.43427734 3.41628906 0.43427734 4.375 0.5625 C4.375 0.8925 4.375 1.2225 4.375 1.5625 C0.745 1.8925 -2.885 2.2225 -6.625 2.5625 C-6.625 1.9025 -6.625 1.2425 -6.625 0.5625 C-4.10446405 -0.69776798 -2.7707902 -0.35624445 0 0 Z " fill="#CFB9CE" transform="translate(30.625,106.4375)"/>
<path d="M0 0 C0.33 1.32 0.66 2.64 1 4 C-1.31 5.65 -3.62 7.3 -6 9 C-4.79618552 6.50638429 -3.54571278 4.31856917 -2 2 C-1.34 2 -0.68 2 0 2 C0 1.34 0 0.68 0 0 Z " fill="#8E4589" transform="translate(99,96)"/>
<path d="M0 0 C0.99 0 1.98 0 3 0 C2.01 2.97 1.02 5.94 0 9 C-0.33 9 -0.66 9 -1 9 C-0.67 6.03 -0.34 3.06 0 0 Z " fill="#C193C2" transform="translate(197,95)"/>
<path d="M0 0 C0.66 0.33 1.32 0.66 2 1 C2 2.32 2 3.64 2 5 C1.34 5 0.68 5 0 5 C0.33 6.32 0.66 7.64 1 9 C0.34 8.67 -0.32 8.34 -1 8 C-0.979375 7.21625 -0.95875 6.4325 -0.9375 5.625 C-0.81315937 3.01885039 -0.81315937 3.01885039 -2 1 C-1.34 0.67 -0.68 0.34 0 0 Z " fill="#913F8E" transform="translate(158,83)"/>
<path d="M0 0 C1.32 0.66 2.64 1.32 4 2 C3.67 3.32 3.34 4.64 3 6 C1.68 5.34 0.36 4.68 -1 4 C-0.67 2.68 -0.34 1.36 0 0 Z " fill="#913E8D" transform="translate(221,56)"/>
<path d="M0 0 C2 2 2 2 2 6 C0.68 6 -0.64 6 -2 6 C-2 4.68 -2 3.36 -2 2 C-1.34 2 -0.68 2 0 2 C0 1.34 0 0.68 0 0 Z " fill="#93458C" transform="translate(213,50)"/>
</svg>
