<svg width="139" height="58" viewBox="0 0 139 58" fill="none" xmlns="http://www.w3.org/2000/svg">
<path d="M42.9418 18.5251C42.9275 18.4511 42.8842 18.383 42.8185 18.3318C42.7529 18.2805 42.6687 18.2489 42.5792 18.2419C42.4344 18.2226 39.2548 18.0389 39.2548 18.0389L36.8304 16.0157C36.6126 15.8127 36.1285 15.8726 35.9454 15.9151C35.9223 15.9151 35.4613 16.036 34.7095 16.2399C33.9774 14.4748 32.6824 12.8547 30.4028 12.8547H30.2082C29.5538 12.149 28.7545 11.8232 28.0769 11.8232C22.7671 11.8426 20.235 17.37 19.4357 20.1946L15.7244 21.1448C14.5858 21.4474 14.5429 21.4696 14.3923 22.3754L11.2637 42.5139L34.7176 46.1776L47.4292 43.8905C47.4292 43.8711 42.9661 18.7185 42.9429 18.5271L42.9418 18.5251ZM33.4087 16.5802C32.8179 16.7426 32.1345 16.905 31.421 17.0877V16.7233C31.4442 15.8127 31.2785 14.9059 30.9368 14.0398C32.1253 14.1925 32.9245 15.3061 33.4087 16.5802ZM29.5051 14.2737C29.8931 15.2278 30.0843 16.2332 30.0356 17.2414V17.4231L25.9351 18.4865C26.7378 15.9857 28.217 14.7493 29.5028 14.2844L29.5051 14.2737ZM27.9298 13.0432C28.173 13.048 28.4082 13.1108 28.6086 13.2249C26.8977 13.89 25.0895 15.5681 24.3135 18.9282L21.0701 19.7576C21.9852 17.2076 24.12 13.0374 27.9275 13.0374L27.9298 13.0432Z" fill="#95BF47"/>
<path d="M42.5808 18.2406C42.436 18.2213 39.2564 18.0376 39.2564 18.0376L36.832 16.0144C36.7428 15.9371 36.6212 15.8945 36.4926 15.8936L34.7227 46.1734L47.4342 43.8863L42.9445 18.5422C42.9144 18.3876 42.7684 18.2638 42.582 18.2397L42.5808 18.2406Z" fill="#5E8E3E"/>
<path d="M30.402 24.1108L28.8244 27.9968C27.8711 27.6101 26.8274 27.4042 25.7687 27.3878C23.2934 27.3878 23.174 28.6831 23.174 29.0079C23.174 30.7769 28.7283 31.4574 28.7283 35.6276C28.7283 38.9066 26.2297 41.012 22.8821 41.012C18.8558 41.012 16.7939 38.9269 16.7939 38.9269L17.8642 35.9495C17.8642 35.9495 19.9724 37.4672 21.7701 37.4672C21.985 37.4743 22.1994 37.4448 22.4002 37.3807C22.601 37.3165 22.7841 37.2189 22.9384 37.0939C23.0927 36.9689 23.2149 36.819 23.2976 36.6533C23.3803 36.4877 23.4218 36.3097 23.4196 36.1303C23.4196 33.8006 18.8593 33.7001 18.8593 29.8953C18.8593 26.6956 21.623 23.5781 27.1784 23.5781C29.3619 23.6052 30.4055 24.1098 30.4055 24.1098L30.402 24.1108Z" fill="white"/>
<path d="M58.4661 29.8992C57.5591 29.4932 57.09 29.1423 57.09 28.6618C57.09 28.0528 57.7271 27.6594 58.7614 27.6594C59.5293 27.6733 60.2866 27.8115 60.9912 28.0664L61.8276 25.9455C61.8276 25.9455 61.0607 25.4506 58.8136 25.4506C55.6791 25.4506 53.5015 26.9489 53.5015 29.0543C53.5015 30.2452 54.5115 31.1616 55.8691 31.8151C56.966 32.3468 57.3518 32.6986 57.3518 33.2535C57.3518 33.8084 56.812 34.2714 55.7845 34.2714C54.2706 34.2714 52.8424 33.6179 52.8424 33.6179L51.9551 35.7388C51.9551 35.7388 53.2791 36.4793 55.4903 36.4793C58.7105 36.4793 61.0271 35.1569 61.0271 32.7673C61.0445 31.4739 59.8769 30.5729 58.4788 29.8895L58.4661 29.8992ZM71.3166 25.438C69.732 25.438 68.4787 26.0634 67.5196 27.0291L67.4663 27.0146L68.8424 21.0058H65.2574L61.7743 36.3082H65.3616L66.5628 31.0766C67.0331 29.1007 68.2575 27.8788 69.4007 27.8788C70.2 27.8788 70.5151 28.3293 70.5151 28.9837C70.5151 29.4284 70.4618 29.8702 70.3587 30.3061L69.0011 36.2937H72.5885L73.9993 30.107C74.1534 29.4661 74.2426 28.8155 74.2599 28.164C74.2426 26.4781 73.1804 25.4612 71.3178 25.4612L71.3166 25.438ZM82.3555 25.438C78.0373 25.438 75.1808 28.6937 75.1808 32.3013C75.1808 34.6271 76.9044 36.487 80.1269 36.487C84.3629 36.487 87.2321 33.3183 87.2321 29.6237C87.2321 27.4728 85.7182 25.438 82.3613 25.438H82.3555ZM80.5949 34.2008C79.3751 34.2008 78.8539 33.3308 78.8539 32.2578C78.8539 30.543 79.9126 27.7387 81.8679 27.7387C83.1386 27.7387 83.5625 28.6541 83.5625 29.5415C83.5579 31.383 82.4969 34.2008 80.5972 34.2008H80.5949ZM96.4061 25.438C93.9736 25.438 92.6091 27.2051 92.6091 27.2051H92.5558L92.7678 25.6139H89.5905L88.8607 29.5821L86.3703 40.5402H89.9415L90.9353 36.1071H91.0048C91.0048 36.1071 91.7346 36.4996 93.113 36.4996C97.327 36.4996 100.078 32.8958 100.078 29.2534C100.095 27.2476 99.0193 25.4467 96.4038 25.4467L96.4061 25.438ZM92.9751 34.2443C92.4338 34.2533 91.907 34.0981 91.4925 33.8074L92.0855 31.0021C92.5095 29.1413 93.6701 27.8914 94.9235 27.8914C96.0204 27.8914 96.3505 28.7343 96.3505 29.5347C96.3563 31.4845 94.9837 34.2453 92.9798 34.2453L92.9751 34.2443ZM105.219 21.1363C104.67 21.1334 104.141 21.3152 103.756 21.6409C103.37 21.9667 103.156 22.4085 103.177 22.8667C103.177 23.7502 103.857 24.365 104.871 24.365H104.925C105.201 24.3742 105.477 24.3359 105.736 24.2526C105.994 24.1692 106.229 24.0426 106.427 23.8804C106.624 23.7183 106.78 23.5241 106.884 23.3098C106.988 23.0956 107.038 22.8658 107.032 22.6347C107.032 21.7647 106.334 21.1363 105.236 21.1363H105.219ZM100.208 36.2792H103.795L106.232 25.6748H102.632M115.374 25.6603H112.868L112.991 25.1654C113.203 24.1475 113.932 23.2321 115.109 23.2321C115.499 23.2322 115.886 23.2811 116.259 23.3771L116.951 21.0348C116.951 21.0348 116.314 20.7738 115.001 20.7738C113.723 20.7473 112.475 21.1028 111.483 21.7763C110.263 22.6463 109.688 23.8971 109.398 25.1625L109.282 25.6574H107.611L107.087 27.9098H108.759L106.852 36.2811H110.452L112.359 27.9098H114.833L115.319 25.6574L115.374 25.6603ZM124.013 25.6748L120.755 32.9703H120.702L119.815 25.6748H116.034L118.194 35.4111C118.246 35.5775 118.222 35.7542 118.125 35.906C117.656 36.6281 116.987 37.2458 116.174 37.7089C115.551 38.0665 114.871 38.3507 114.154 38.5518L115.148 41.0941C116.462 40.8006 117.668 40.2396 118.659 39.4614C120.296 38.1816 121.81 36.2057 123.362 33.5164L127.749 25.669H124.012L124.013 25.6748Z" fill="black"/>
</svg>
