<svg width="650" height="400" viewBox="0 0 1204 431" fill="none" xmlns="http://www.w3.org/2000/svg">
<path d="M4.60773 124.3V127.8H9.30774V130.02H4.60773V133.72H9.90774V136H1.80773V122.02H9.90774V124.3H4.60773ZM24.3923 136H21.5923L15.2523 126.42V136H12.4523V122.02H15.2523L21.5923 131.62V122.02H24.3923V136ZM36.8793 126.24C36.5593 125.653 36.1193 125.207 35.5593 124.9C34.9993 124.593 34.346 124.44 33.5993 124.44C32.7726 124.44 32.0393 124.627 31.3993 125C30.7593 125.373 30.2593 125.907 29.8993 126.6C29.5393 127.293 29.3593 128.093 29.3593 129C29.3593 129.933 29.5393 130.747 29.8993 131.44C30.2726 132.133 30.786 132.667 31.4393 133.04C32.0926 133.413 32.8526 133.6 33.7193 133.6C34.786 133.6 35.6593 133.32 36.3393 132.76C37.0193 132.187 37.466 131.393 37.6793 130.38H32.8793V128.24H40.4393V130.68C40.2526 131.653 39.8526 132.553 39.2393 133.38C38.626 134.207 37.8326 134.873 36.8593 135.38C35.8993 135.873 34.8193 136.12 33.6193 136.12C32.2726 136.12 31.0526 135.82 29.9593 135.22C28.8793 134.607 28.026 133.76 27.3993 132.68C26.786 131.6 26.4793 130.373 26.4793 129C26.4793 127.627 26.786 126.4 27.3993 125.32C28.026 124.227 28.8793 123.38 29.9593 122.78C31.0526 122.167 32.266 121.86 33.5993 121.86C35.1726 121.86 36.5393 122.247 37.6993 123.02C38.8593 123.78 39.6593 124.853 40.0993 126.24H36.8793ZM51.0709 133.34H45.5109L44.5909 136H41.6509L46.6709 122.02H49.9309L54.9509 136H51.9909L51.0709 133.34ZM50.3109 131.1L48.2909 125.26L46.2709 131.1H50.3109ZM66.5473 126.24C66.2273 125.653 65.7873 125.207 65.2273 124.9C64.6673 124.593 64.0139 124.44 63.2673 124.44C62.4406 124.44 61.7073 124.627 61.0673 125C60.4273 125.373 59.9273 125.907 59.5673 126.6C59.2073 127.293 59.0273 128.093 59.0273 129C59.0273 129.933 59.2073 130.747 59.5673 131.44C59.9406 132.133 60.4539 132.667 61.1073 133.04C61.7606 133.413 62.5206 133.6 63.3873 133.6C64.4539 133.6 65.3273 133.32 66.0073 132.76C66.6873 132.187 67.1339 131.393 67.3473 130.38H62.5473V128.24H70.1073V130.68C69.9206 131.653 69.5206 132.553 68.9073 133.38C68.2939 134.207 67.5006 134.873 66.5273 135.38C65.5673 135.873 64.4873 136.12 63.2873 136.12C61.9406 136.12 60.7206 135.82 59.6273 135.22C58.5473 134.607 57.6939 133.76 57.0673 132.68C56.4539 131.6 56.1473 130.373 56.1473 129C56.1473 127.627 56.4539 126.4 57.0673 125.32C57.6939 124.227 58.5473 123.38 59.6273 122.78C60.7206 122.167 61.9339 121.86 63.2673 121.86C64.8406 121.86 66.2073 122.247 67.3673 123.02C68.5273 123.78 69.3273 124.853 69.7673 126.24H66.5473ZM74.9788 124.3V127.8H79.6788V130.02H74.9788V133.72H80.2788V136H72.1788V122.02H80.2788V124.3H74.9788ZM86.909 129C86.909 127.627 87.2157 126.4 87.829 125.32C88.4557 124.227 89.3023 123.38 90.369 122.78C91.449 122.167 92.6557 121.86 93.989 121.86C95.549 121.86 96.9157 122.26 98.089 123.06C99.2623 123.86 100.082 124.967 100.549 126.38H97.329C97.009 125.713 96.5557 125.213 95.969 124.88C95.3957 124.547 94.729 124.38 93.969 124.38C93.1557 124.38 92.429 124.573 91.789 124.96C91.1623 125.333 90.669 125.867 90.309 126.56C89.9623 127.253 89.789 128.067 89.789 129C89.789 129.92 89.9623 130.733 90.309 131.44C90.669 132.133 91.1623 132.673 91.789 133.06C92.429 133.433 93.1557 133.62 93.969 133.62C94.729 133.62 95.3957 133.453 95.969 133.12C96.5557 132.773 97.009 132.267 97.329 131.6H100.549C100.082 133.027 99.2623 134.14 98.089 134.94C96.929 135.727 95.5623 136.12 93.989 136.12C92.6557 136.12 91.449 135.82 90.369 135.22C89.3023 134.607 88.4557 133.76 87.829 132.68C87.2157 131.6 86.909 130.373 86.909 129ZM105.701 122.04V130.68C105.701 131.627 105.947 132.353 106.441 132.86C106.934 133.353 107.627 133.6 108.521 133.6C109.427 133.6 110.127 133.353 110.621 132.86C111.114 132.353 111.361 131.627 111.361 130.68V122.04H114.181V130.66C114.181 131.847 113.921 132.853 113.401 133.68C112.894 134.493 112.207 135.107 111.341 135.52C110.487 135.933 109.534 136.14 108.481 136.14C107.441 136.14 106.494 135.933 105.641 135.52C104.801 135.107 104.134 134.493 103.641 133.68C103.147 132.853 102.901 131.847 102.901 130.66V122.04H105.701ZM121.706 136.14C120.733 136.14 119.853 135.973 119.066 135.64C118.293 135.307 117.679 134.827 117.226 134.2C116.773 133.573 116.539 132.833 116.526 131.98H119.526C119.566 132.553 119.766 133.007 120.126 133.34C120.499 133.673 121.006 133.84 121.646 133.84C122.299 133.84 122.813 133.687 123.186 133.38C123.559 133.06 123.746 132.647 123.746 132.14C123.746 131.727 123.619 131.387 123.366 131.12C123.113 130.853 122.793 130.647 122.406 130.5C122.033 130.34 121.513 130.167 120.846 129.98C119.939 129.713 119.199 129.453 118.626 129.2C118.066 128.933 117.579 128.54 117.166 128.02C116.766 127.487 116.566 126.78 116.566 125.9C116.566 125.073 116.773 124.353 117.186 123.74C117.599 123.127 118.179 122.66 118.926 122.34C119.673 122.007 120.526 121.84 121.486 121.84C122.926 121.84 124.093 122.193 124.986 122.9C125.893 123.593 126.393 124.567 126.486 125.82H123.406C123.379 125.34 123.173 124.947 122.786 124.64C122.413 124.32 121.913 124.16 121.286 124.16C120.739 124.16 120.299 124.3 119.966 124.58C119.646 124.86 119.486 125.267 119.486 125.8C119.486 126.173 119.606 126.487 119.846 126.74C120.099 126.98 120.406 127.18 120.766 127.34C121.139 127.487 121.659 127.66 122.326 127.86C123.233 128.127 123.973 128.393 124.546 128.66C125.119 128.927 125.613 129.327 126.026 129.86C126.439 130.393 126.646 131.093 126.646 131.96C126.646 132.707 126.453 133.4 126.066 134.04C125.679 134.68 125.113 135.193 124.366 135.58C123.619 135.953 122.733 136.14 121.706 136.14ZM138.573 122.04V124.3H134.853V136H132.053V124.3H128.333V122.04H138.573ZM147.096 136.14C145.79 136.14 144.59 135.833 143.496 135.22C142.403 134.607 141.536 133.76 140.896 132.68C140.256 131.587 139.936 130.353 139.936 128.98C139.936 127.62 140.256 126.4 140.896 125.32C141.536 124.227 142.403 123.373 143.496 122.76C144.59 122.147 145.79 121.84 147.096 121.84C148.416 121.84 149.616 122.147 150.696 122.76C151.79 123.373 152.65 124.227 153.276 125.32C153.916 126.4 154.236 127.62 154.236 128.98C154.236 130.353 153.916 131.587 153.276 132.68C152.65 133.76 151.79 134.607 150.696 135.22C149.603 135.833 148.403 136.14 147.096 136.14ZM147.096 133.64C147.936 133.64 148.676 133.453 149.316 133.08C149.956 132.693 150.456 132.147 150.816 131.44C151.176 130.733 151.356 129.913 151.356 128.98C151.356 128.047 151.176 127.233 150.816 126.54C150.456 125.833 149.956 125.293 149.316 124.92C148.676 124.547 147.936 124.36 147.096 124.36C146.256 124.36 145.51 124.547 144.856 124.92C144.216 125.293 143.716 125.833 143.356 126.54C142.996 127.233 142.816 128.047 142.816 128.98C142.816 129.913 142.996 130.733 143.356 131.44C143.716 132.147 144.216 132.693 144.856 133.08C145.51 133.453 146.256 133.64 147.096 133.64ZM171.539 122.04V136H168.739V126.92L164.999 136H162.879L159.119 126.92V136H156.319V122.04H159.499L163.939 132.42L168.379 122.04H171.539ZM177.108 124.3V127.8H181.808V130.02H177.108V133.72H182.408V136H174.308V122.02H182.408V124.3H177.108ZM192.152 136L189.072 130.56H187.752V136H184.952V122.04H190.192C191.272 122.04 192.192 122.233 192.952 122.62C193.712 122.993 194.279 123.507 194.652 124.16C195.039 124.8 195.232 125.52 195.232 126.32C195.232 127.24 194.966 128.073 194.432 128.82C193.899 129.553 193.106 130.06 192.052 130.34L195.392 136H192.152ZM187.752 128.46H190.092C190.852 128.46 191.419 128.28 191.792 127.92C192.166 127.547 192.352 127.033 192.352 126.38C192.352 125.74 192.166 125.247 191.792 124.9C191.419 124.54 190.852 124.36 190.092 124.36H187.752V128.46ZM202.585 136.14C201.611 136.14 200.731 135.973 199.945 135.64C199.171 135.307 198.558 134.827 198.105 134.2C197.651 133.573 197.418 132.833 197.405 131.98H200.405C200.445 132.553 200.645 133.007 201.005 133.34C201.378 133.673 201.885 133.84 202.525 133.84C203.178 133.84 203.691 133.687 204.065 133.38C204.438 133.06 204.625 132.647 204.625 132.14C204.625 131.727 204.498 131.387 204.245 131.12C203.991 130.853 203.671 130.647 203.285 130.5C202.911 130.34 202.391 130.167 201.725 129.98C200.818 129.713 200.078 129.453 199.505 129.2C198.945 128.933 198.458 128.54 198.045 128.02C197.645 127.487 197.445 126.78 197.445 125.9C197.445 125.073 197.651 124.353 198.065 123.74C198.478 123.127 199.058 122.66 199.805 122.34C200.551 122.007 201.405 121.84 202.365 121.84C203.805 121.84 204.971 122.193 205.865 122.9C206.771 123.593 207.271 124.567 207.365 125.82H204.285C204.258 125.34 204.051 124.947 203.665 124.64C203.291 124.32 202.791 124.16 202.165 124.16C201.618 124.16 201.178 124.3 200.845 124.58C200.525 124.86 200.365 125.267 200.365 125.8C200.365 126.173 200.485 126.487 200.725 126.74C200.978 126.98 201.285 127.18 201.645 127.34C202.018 127.487 202.538 127.66 203.205 127.86C204.111 128.127 204.851 128.393 205.425 128.66C205.998 128.927 206.491 129.327 206.905 129.86C207.318 130.393 207.525 131.093 207.525 131.96C207.525 132.707 207.331 133.4 206.945 134.04C206.558 134.68 205.991 135.193 205.245 135.58C204.498 135.953 203.611 136.14 202.585 136.14Z" fill="#0D0D0D"/>
<path d="M368.04 126.36C368.04 127.107 367.86 127.807 367.5 128.46C367.154 129.113 366.6 129.64 365.84 130.04C365.094 130.44 364.147 130.64 363 130.64H360.66V136H357.86V122.04H363C364.08 122.04 365 122.227 365.76 122.6C366.52 122.973 367.087 123.487 367.46 124.14C367.847 124.793 368.04 125.533 368.04 126.36ZM362.88 128.38C363.654 128.38 364.227 128.207 364.6 127.86C364.974 127.5 365.16 127 365.16 126.36C365.16 125 364.4 124.32 362.88 124.32H360.66V128.38H362.88ZM376.508 136.14C375.202 136.14 374.002 135.833 372.908 135.22C371.815 134.607 370.948 133.76 370.308 132.68C369.668 131.587 369.348 130.353 369.348 128.98C369.348 127.62 369.668 126.4 370.308 125.32C370.948 124.227 371.815 123.373 372.908 122.76C374.002 122.147 375.202 121.84 376.508 121.84C377.828 121.84 379.028 122.147 380.108 122.76C381.202 123.373 382.062 124.227 382.688 125.32C383.328 126.4 383.648 127.62 383.648 128.98C383.648 130.353 383.328 131.587 382.688 132.68C382.062 133.76 381.202 134.607 380.108 135.22C379.015 135.833 377.815 136.14 376.508 136.14ZM376.508 133.64C377.348 133.64 378.088 133.453 378.728 133.08C379.368 132.693 379.868 132.147 380.228 131.44C380.588 130.733 380.768 129.913 380.768 128.98C380.768 128.047 380.588 127.233 380.228 126.54C379.868 125.833 379.368 125.293 378.728 124.92C378.088 124.547 377.348 124.36 376.508 124.36C375.668 124.36 374.922 124.547 374.268 124.92C373.628 125.293 373.128 125.833 372.768 126.54C372.408 127.233 372.228 128.047 372.228 128.98C372.228 129.913 372.408 130.733 372.768 131.44C373.128 132.147 373.628 132.693 374.268 133.08C374.922 133.453 375.668 133.64 376.508 133.64ZM390.552 136.14C389.578 136.14 388.698 135.973 387.912 135.64C387.138 135.307 386.525 134.827 386.072 134.2C385.618 133.573 385.385 132.833 385.372 131.98H388.372C388.412 132.553 388.612 133.007 388.972 133.34C389.345 133.673 389.852 133.84 390.492 133.84C391.145 133.84 391.658 133.687 392.032 133.38C392.405 133.06 392.592 132.647 392.592 132.14C392.592 131.727 392.465 131.387 392.212 131.12C391.958 130.853 391.638 130.647 391.252 130.5C390.878 130.34 390.358 130.167 389.692 129.98C388.785 129.713 388.045 129.453 387.472 129.2C386.912 128.933 386.425 128.54 386.012 128.02C385.612 127.487 385.412 126.78 385.412 125.9C385.412 125.073 385.618 124.353 386.032 123.74C386.445 123.127 387.025 122.66 387.772 122.34C388.518 122.007 389.372 121.84 390.332 121.84C391.772 121.84 392.938 122.193 393.832 122.9C394.738 123.593 395.238 124.567 395.332 125.82H392.252C392.225 125.34 392.018 124.947 391.632 124.64C391.258 124.32 390.758 124.16 390.132 124.16C389.585 124.16 389.145 124.3 388.812 124.58C388.492 124.86 388.332 125.267 388.332 125.8C388.332 126.173 388.452 126.487 388.692 126.74C388.945 126.98 389.252 127.18 389.612 127.34C389.985 127.487 390.505 127.66 391.172 127.86C392.078 128.127 392.818 128.393 393.392 128.66C393.965 128.927 394.458 129.327 394.872 129.86C395.285 130.393 395.492 131.093 395.492 131.96C395.492 132.707 395.298 133.4 394.912 134.04C394.525 134.68 393.958 135.193 393.212 135.58C392.465 135.953 391.578 136.14 390.552 136.14ZM413.425 136L411.905 134.5C410.611 135.66 409.031 136.24 407.165 136.24C406.138 136.24 405.231 136.067 404.445 135.72C403.671 135.36 403.071 134.86 402.645 134.22C402.218 133.567 402.005 132.813 402.005 131.96C402.005 131.04 402.265 130.213 402.785 129.48C403.305 128.747 404.071 128.153 405.085 127.7C404.725 127.26 404.465 126.84 404.305 126.44C404.145 126.027 404.065 125.587 404.065 125.12C404.065 124.48 404.231 123.907 404.565 123.4C404.898 122.88 405.371 122.473 405.985 122.18C406.611 121.887 407.338 121.74 408.165 121.74C409.005 121.74 409.725 121.9 410.325 122.22C410.925 122.54 411.371 122.967 411.665 123.5C411.958 124.033 412.085 124.627 412.045 125.28H409.325C409.338 124.84 409.231 124.507 409.005 124.28C408.778 124.04 408.471 123.92 408.085 123.92C407.711 123.92 407.398 124.033 407.145 124.26C406.905 124.473 406.785 124.753 406.785 125.1C406.785 125.433 406.885 125.767 407.085 126.1C407.285 126.42 407.611 126.82 408.065 127.3L411.585 130.78C411.611 130.753 411.631 130.727 411.645 130.7C411.658 130.673 411.671 130.647 411.685 130.62L412.825 128.72H415.745L414.345 131.18C414.078 131.7 413.791 132.193 413.485 132.66L416.865 136H413.425ZM407.245 133.92C408.338 133.92 409.305 133.533 410.145 132.76L406.705 129.36C405.411 129.933 404.765 130.747 404.765 131.8C404.765 132.4 404.991 132.907 405.445 133.32C405.898 133.72 406.498 133.92 407.245 133.92ZM431.577 133.34H426.017L425.097 136H422.157L427.177 122.02H430.437L435.457 136H432.497L431.577 133.34ZM430.817 131.1L428.797 125.26L426.777 131.1H430.817ZM449.273 136H446.473L440.133 126.42V136H437.333V122.02H440.133L446.473 131.62V122.02H449.273V136ZM460.6 133.34H455.04L454.12 136H451.18L456.2 122.02H459.46L464.48 136H461.52L460.6 133.34ZM459.84 131.1L457.82 125.26L455.8 131.1H459.84ZM469.157 133.78H473.757V136H466.357V122.04H469.157V133.78ZM486.636 122.04L481.916 131.14V136H479.116V131.14L474.376 122.04H477.536L480.536 128.42L483.516 122.04H486.636ZM497.751 122.04V124.3H494.031V136H491.231V124.3H487.511V122.04H497.751ZM502.594 122.04V136H499.794V122.04H502.594ZM504.68 129C504.68 127.627 504.987 126.4 505.6 125.32C506.227 124.227 507.074 123.38 508.14 122.78C509.22 122.167 510.427 121.86 511.76 121.86C513.32 121.86 514.687 122.26 515.86 123.06C517.034 123.86 517.854 124.967 518.32 126.38H515.1C514.78 125.713 514.327 125.213 513.74 124.88C513.167 124.547 512.5 124.38 511.74 124.38C510.927 124.38 510.2 124.573 509.56 124.96C508.934 125.333 508.44 125.867 508.08 126.56C507.734 127.253 507.56 128.067 507.56 129C507.56 129.92 507.734 130.733 508.08 131.44C508.44 132.133 508.934 132.673 509.56 133.06C510.2 133.433 510.927 133.62 511.74 133.62C512.5 133.62 513.167 133.453 513.74 133.12C514.327 132.773 514.78 132.267 515.1 131.6H518.32C517.854 133.027 517.034 134.14 515.86 134.94C514.7 135.727 513.334 136.12 511.76 136.12C510.427 136.12 509.22 135.82 508.14 135.22C507.074 134.607 506.227 133.76 505.6 132.68C504.987 131.6 504.68 130.373 504.68 129ZM525.532 136.14C524.559 136.14 523.679 135.973 522.892 135.64C522.119 135.307 521.505 134.827 521.052 134.2C520.599 133.573 520.365 132.833 520.352 131.98H523.352C523.392 132.553 523.592 133.007 523.952 133.34C524.325 133.673 524.832 133.84 525.472 133.84C526.125 133.84 526.639 133.687 527.012 133.38C527.385 133.06 527.572 132.647 527.572 132.14C527.572 131.727 527.445 131.387 527.192 131.12C526.939 130.853 526.619 130.647 526.232 130.5C525.859 130.34 525.339 130.167 524.672 129.98C523.765 129.713 523.025 129.453 522.452 129.2C521.892 128.933 521.405 128.54 520.992 128.02C520.592 127.487 520.392 126.78 520.392 125.9C520.392 125.073 520.599 124.353 521.012 123.74C521.425 123.127 522.005 122.66 522.752 122.34C523.499 122.007 524.352 121.84 525.312 121.84C526.752 121.84 527.919 122.193 528.812 122.9C529.719 123.593 530.219 124.567 530.312 125.82H527.232C527.205 125.34 526.999 124.947 526.612 124.64C526.239 124.32 525.739 124.16 525.112 124.16C524.565 124.16 524.125 124.3 523.792 124.58C523.472 124.86 523.312 125.267 523.312 125.8C523.312 126.173 523.432 126.487 523.672 126.74C523.925 126.98 524.232 127.18 524.592 127.34C524.965 127.487 525.485 127.66 526.152 127.86C527.059 128.127 527.799 128.393 528.372 128.66C528.945 128.927 529.439 129.327 529.852 129.86C530.265 130.393 530.472 131.093 530.472 131.96C530.472 132.707 530.279 133.4 529.892 134.04C529.505 134.68 528.939 135.193 528.192 135.58C527.445 135.953 526.559 136.14 525.532 136.14Z" fill="black"/>
<path d="M707.004 136L703.924 130.56H702.604V136H699.804V122.04H705.044C706.124 122.04 707.044 122.233 707.804 122.62C708.564 122.993 709.13 123.507 709.504 124.16C709.89 124.8 710.084 125.52 710.084 126.32C710.084 127.24 709.817 128.073 709.284 128.82C708.75 129.553 707.957 130.06 706.904 130.34L710.244 136H707.004ZM702.604 128.46H704.944C705.704 128.46 706.27 128.28 706.644 127.92C707.017 127.547 707.204 127.033 707.204 126.38C707.204 125.74 707.017 125.247 706.644 124.9C706.27 124.54 705.704 124.36 704.944 124.36H702.604V128.46ZM715.416 124.3V127.8H720.116V130.02H715.416V133.72H720.716V136H712.616V122.02H720.716V124.3H715.416ZM728.141 122.04C729.608 122.04 730.894 122.327 732.001 122.9C733.121 123.473 733.981 124.293 734.581 125.36C735.194 126.413 735.501 127.64 735.501 129.04C735.501 130.44 735.194 131.667 734.581 132.72C733.981 133.76 733.121 134.567 732.001 135.14C730.894 135.713 729.608 136 728.141 136H723.261V122.04H728.141ZM728.041 133.62C729.508 133.62 730.641 133.22 731.441 132.42C732.241 131.62 732.641 130.493 732.641 129.04C732.641 127.587 732.241 126.453 731.441 125.64C730.641 124.813 729.508 124.4 728.041 124.4H726.061V133.62H728.041ZM740.357 122.04V130.68C740.357 131.627 740.603 132.353 741.097 132.86C741.59 133.353 742.283 133.6 743.177 133.6C744.083 133.6 744.783 133.353 745.277 132.86C745.77 132.353 746.017 131.627 746.017 130.68V122.04H748.837V130.66C748.837 131.847 748.577 132.853 748.057 133.68C747.55 134.493 746.863 135.107 745.997 135.52C745.143 135.933 744.19 136.14 743.137 136.14C742.097 136.14 741.15 135.933 740.297 135.52C739.457 135.107 738.79 134.493 738.297 133.68C737.803 132.853 737.557 131.847 737.557 130.66V122.04H740.357ZM750.862 129C750.862 127.627 751.169 126.4 751.782 125.32C752.409 124.227 753.255 123.38 754.322 122.78C755.402 122.167 756.609 121.86 757.942 121.86C759.502 121.86 760.869 122.26 762.042 123.06C763.215 123.86 764.035 124.967 764.502 126.38H761.282C760.962 125.713 760.509 125.213 759.922 124.88C759.349 124.547 758.682 124.38 757.922 124.38C757.109 124.38 756.382 124.573 755.742 124.96C755.115 125.333 754.622 125.867 754.262 126.56C753.915 127.253 753.742 128.067 753.742 129C753.742 129.92 753.915 130.733 754.262 131.44C754.622 132.133 755.115 132.673 755.742 133.06C756.382 133.433 757.109 133.62 757.922 133.62C758.682 133.62 759.349 133.453 759.922 133.12C760.509 132.773 760.962 132.267 761.282 131.6H764.502C764.035 133.027 763.215 134.14 762.042 134.94C760.882 135.727 759.515 136.12 757.942 136.12C756.609 136.12 755.402 135.82 754.322 135.22C753.255 134.607 752.409 133.76 751.782 132.68C751.169 131.6 750.862 130.373 750.862 129ZM769.694 124.3V127.8H774.394V130.02H769.694V133.72H774.994V136H766.894V122.02H774.994V124.3H769.694ZM789.504 136L786.424 130.56H785.104V136H782.304V122.04H787.544C788.624 122.04 789.544 122.233 790.304 122.62C791.064 122.993 791.63 123.507 792.004 124.16C792.39 124.8 792.584 125.52 792.584 126.32C792.584 127.24 792.317 128.073 791.784 128.82C791.25 129.553 790.457 130.06 789.404 130.34L792.744 136H789.504ZM785.104 128.46H787.444C788.204 128.46 788.77 128.28 789.144 127.92C789.517 127.547 789.704 127.033 789.704 126.38C789.704 125.74 789.517 125.247 789.144 124.9C788.77 124.54 788.204 124.36 787.444 124.36H785.104V128.46ZM797.916 124.3V127.8H802.616V130.02H797.916V133.72H803.216V136H795.116V122.02H803.216V124.3H797.916ZM815.261 122.04V124.3H811.541V136H808.741V124.3H805.021V122.04H815.261ZM820.064 122.04V130.68C820.064 131.627 820.31 132.353 820.804 132.86C821.297 133.353 821.99 133.6 822.884 133.6C823.79 133.6 824.49 133.353 824.984 132.86C825.477 132.353 825.724 131.627 825.724 130.68V122.04H828.544V130.66C828.544 131.847 828.284 132.853 827.764 133.68C827.257 134.493 826.57 135.107 825.704 135.52C824.85 135.933 823.897 136.14 822.844 136.14C821.804 136.14 820.857 135.933 820.004 135.52C819.164 135.107 818.497 134.493 818.004 133.68C817.51 132.853 817.264 131.847 817.264 130.66V122.04H820.064ZM838.449 136L835.369 130.56H834.049V136H831.249V122.04H836.489C837.569 122.04 838.489 122.233 839.249 122.62C840.009 122.993 840.576 123.507 840.949 124.16C841.336 124.8 841.529 125.52 841.529 126.32C841.529 127.24 841.262 128.073 840.729 128.82C840.196 129.553 839.402 130.06 838.349 130.34L841.689 136H838.449ZM834.049 128.46H836.389C837.149 128.46 837.716 128.28 838.089 127.92C838.462 127.547 838.649 127.033 838.649 126.38C838.649 125.74 838.462 125.247 838.089 124.9C837.716 124.54 837.149 124.36 836.389 124.36H834.049V128.46ZM856.002 136H853.202L846.862 126.42V136H844.062V122.02H846.862L853.202 131.62V122.02H856.002V136ZM863.589 136.14C862.615 136.14 861.735 135.973 860.949 135.64C860.175 135.307 859.562 134.827 859.109 134.2C858.655 133.573 858.422 132.833 858.409 131.98H861.409C861.449 132.553 861.649 133.007 862.009 133.34C862.382 133.673 862.889 133.84 863.529 133.84C864.182 133.84 864.695 133.687 865.069 133.38C865.442 133.06 865.629 132.647 865.629 132.14C865.629 131.727 865.502 131.387 865.249 131.12C864.995 130.853 864.675 130.647 864.289 130.5C863.915 130.34 863.395 130.167 862.729 129.98C861.822 129.713 861.082 129.453 860.509 129.2C859.949 128.933 859.462 128.54 859.049 128.02C858.649 127.487 858.449 126.78 858.449 125.9C858.449 125.073 858.655 124.353 859.069 123.74C859.482 123.127 860.062 122.66 860.809 122.34C861.555 122.007 862.409 121.84 863.369 121.84C864.809 121.84 865.975 122.193 866.869 122.9C867.775 123.593 868.275 124.567 868.369 125.82H865.289C865.262 125.34 865.055 124.947 864.669 124.64C864.295 124.32 863.795 124.16 863.169 124.16C862.622 124.16 862.182 124.3 861.849 124.58C861.529 124.86 861.369 125.267 861.369 125.8C861.369 126.173 861.489 126.487 861.729 126.74C861.982 126.98 862.289 127.18 862.649 127.34C863.022 127.487 863.542 127.66 864.209 127.86C865.115 128.127 865.855 128.393 866.429 128.66C867.002 128.927 867.495 129.327 867.909 129.86C868.322 130.393 868.529 131.093 868.529 131.96C868.529 132.707 868.335 133.4 867.949 134.04C867.562 134.68 866.995 135.193 866.249 135.58C865.502 135.953 864.615 136.14 863.589 136.14Z" fill="black"/>
<path d="M1053.73 128.84C1054.52 128.987 1055.16 129.38 1055.67 130.02C1056.18 130.66 1056.43 131.393 1056.43 132.22C1056.43 132.967 1056.24 133.627 1055.87 134.2C1055.51 134.76 1054.98 135.2 1054.29 135.52C1053.6 135.84 1052.78 136 1051.83 136H1045.81V122.04H1051.57C1052.52 122.04 1053.33 122.193 1054.01 122.5C1054.7 122.807 1055.22 123.233 1055.57 123.78C1055.93 124.327 1056.11 124.947 1056.11 125.64C1056.11 126.453 1055.89 127.133 1055.45 127.68C1055.02 128.227 1054.45 128.613 1053.73 128.84ZM1048.61 127.8H1051.17C1051.84 127.8 1052.35 127.653 1052.71 127.36C1053.07 127.053 1053.25 126.62 1053.25 126.06C1053.25 125.5 1053.07 125.067 1052.71 124.76C1052.35 124.453 1051.84 124.3 1051.17 124.3H1048.61V127.8ZM1051.43 133.72C1052.11 133.72 1052.64 133.56 1053.01 133.24C1053.4 132.92 1053.59 132.467 1053.59 131.88C1053.59 131.28 1053.39 130.813 1052.99 130.48C1052.59 130.133 1052.05 129.96 1051.37 129.96H1048.61V133.72H1051.43ZM1065.86 136L1062.78 130.56H1061.46V136H1058.66V122.04H1063.9C1064.98 122.04 1065.9 122.233 1066.66 122.62C1067.42 122.993 1067.99 123.507 1068.36 124.16C1068.75 124.8 1068.94 125.52 1068.94 126.32C1068.94 127.24 1068.67 128.073 1068.14 128.82C1067.61 129.553 1066.81 130.06 1065.76 130.34L1069.1 136H1065.86ZM1061.46 128.46H1063.8C1064.56 128.46 1065.13 128.28 1065.5 127.92C1065.87 127.547 1066.06 127.033 1066.06 126.38C1066.06 125.74 1065.87 125.247 1065.5 124.9C1065.13 124.54 1064.56 124.36 1063.8 124.36H1061.46V128.46ZM1080.03 133.34H1074.47L1073.55 136H1070.61L1075.63 122.02H1078.89L1083.91 136H1080.95L1080.03 133.34ZM1079.27 131.1L1077.25 125.26L1075.23 131.1H1079.27ZM1097.73 136H1094.93L1088.59 126.42V136H1085.79V122.02H1088.59L1094.93 131.62V122.02H1097.73V136ZM1105.38 122.04C1106.84 122.04 1108.13 122.327 1109.24 122.9C1110.36 123.473 1111.22 124.293 1111.82 125.36C1112.43 126.413 1112.74 127.64 1112.74 129.04C1112.74 130.44 1112.43 131.667 1111.82 132.72C1111.22 133.76 1110.36 134.567 1109.24 135.14C1108.13 135.713 1106.84 136 1105.38 136H1100.5V122.04H1105.38ZM1105.28 133.62C1106.74 133.62 1107.88 133.22 1108.68 132.42C1109.48 131.62 1109.88 130.493 1109.88 129.04C1109.88 127.587 1109.48 126.453 1108.68 125.64C1107.88 124.813 1106.74 124.4 1105.28 124.4H1103.3V133.62H1105.28ZM1122.4 133.78H1127V136H1119.6V122.04H1122.4V133.78ZM1135.26 136.14C1133.95 136.14 1132.75 135.833 1131.66 135.22C1130.57 134.607 1129.7 133.76 1129.06 132.68C1128.42 131.587 1128.1 130.353 1128.1 128.98C1128.1 127.62 1128.42 126.4 1129.06 125.32C1129.7 124.227 1130.57 123.373 1131.66 122.76C1132.75 122.147 1133.95 121.84 1135.26 121.84C1136.58 121.84 1137.78 122.147 1138.86 122.76C1139.95 123.373 1140.81 124.227 1141.44 125.32C1142.08 126.4 1142.4 127.62 1142.4 128.98C1142.4 130.353 1142.08 131.587 1141.44 132.68C1140.81 133.76 1139.95 134.607 1138.86 135.22C1137.77 135.833 1136.57 136.14 1135.26 136.14ZM1135.26 133.64C1136.1 133.64 1136.84 133.453 1137.48 133.08C1138.12 132.693 1138.62 132.147 1138.98 131.44C1139.34 130.733 1139.52 129.913 1139.52 128.98C1139.52 128.047 1139.34 127.233 1138.98 126.54C1138.62 125.833 1138.12 125.293 1137.48 124.92C1136.84 124.547 1136.1 124.36 1135.26 124.36C1134.42 124.36 1133.67 124.547 1133.02 124.92C1132.38 125.293 1131.88 125.833 1131.52 126.54C1131.16 127.233 1130.98 128.047 1130.98 128.98C1130.98 129.913 1131.16 130.733 1131.52 131.44C1131.88 132.147 1132.38 132.693 1133.02 133.08C1133.67 133.453 1134.42 133.64 1135.26 133.64ZM1155.58 122.04L1150.86 131.14V136H1148.06V131.14L1143.32 122.04H1146.48L1149.48 128.42L1152.46 122.04H1155.58ZM1165.76 133.34H1160.2L1159.28 136H1156.34L1161.36 122.02H1164.62L1169.64 136H1166.68L1165.76 133.34ZM1165 131.1L1162.98 125.26L1160.96 131.1H1165ZM1174.31 133.78H1178.91V136H1171.51V122.04H1174.31V133.78ZM1190.19 122.04V124.3H1186.47V136H1183.67V124.3H1179.95V122.04H1190.19ZM1203.34 122.04L1198.62 131.14V136H1195.82V131.14L1191.08 122.04H1194.24L1197.24 128.42L1200.22 122.04H1203.34Z" fill="black"/>
<g filter="url(#filter0_ii_1819_5346)">
<rect x="65" y="1" width="70" height="70" rx="14" stroke="#0D0D0D" stroke-width="2"/>
</g>
<path d="M118.517 41.1725C118.054 40.8417 117.062 40.3786 115.738 40.5771C114.084 40.9079 112.761 42.2973 112.562 44.0837C112.562 44.2822 112.562 44.4807 112.562 44.6792C112.761 44.6792 115.606 45.5393 117.723 43.4221C118.054 43.0913 118.716 43.2236 118.848 43.6867C118.914 43.8852 119.245 44.7453 119.708 44.6792C119.774 44.6792 119.907 44.6792 121.296 44.6792C121.362 43.7529 121.296 42.3635 120.436 41.5695C120.105 41.3049 119.51 40.9741 118.517 41.1725Z" fill="#0D0D0D"/>
<path d="M120.628 48.7205C121.422 48.4558 122.017 47.6619 122.017 46.6694C122.017 46.471 122.017 46.2063 121.951 46.0078H119.9C119.04 46.074 118.445 45.5447 118.048 44.9492C116.724 45.9417 115.269 46.1401 114.144 46.1401C113.35 46.1401 112.755 46.0078 112.49 45.9417H112.027C111.961 46.1401 111.895 46.3386 111.895 46.6033C111.895 47.5296 112.49 48.3897 113.284 48.6543C113.879 53.1534 120.033 53.1534 120.628 48.7205Z" fill="#0D0D0D"/>
<path d="M121.697 53.2715C121.3 53.2053 120.374 52.9407 119.712 52.4775C118.124 53.5361 116.205 53.6023 114.684 52.8084C114.75 53.2053 115.61 58.9615 115.345 60.3509H125.336C125.733 60.3509 125.997 60.0862 125.997 59.6893V57.7705C125.997 55.3225 124.079 53.4038 121.697 53.2715Z" fill="#0D0D0D"/>
<path d="M89.1571 44.6794H89.2233C89.6864 44.7455 90.0172 43.8854 90.0834 43.6869C90.1496 43.4884 90.348 43.2899 90.5465 43.2238C90.745 43.1576 91.0097 43.2238 91.2082 43.4223C93.2592 45.4733 96.1042 44.7455 96.2365 44.6794C96.3027 44.6794 96.3027 44.6794 96.3688 44.6794C96.3688 44.4809 96.3688 44.2824 96.3688 44.0839C96.038 41.1727 92.8622 39.5187 90.4804 41.1066C88.3632 40.7096 87.5692 42.4298 87.7015 44.6132H89.1571V44.6794Z" fill="#0D0D0D"/>
<path d="M97.0955 46.6707C97.0955 46.4722 97.0955 46.2075 97.0294 46.009H96.5662C96.3677 46.0752 95.7061 46.2075 94.9122 46.2075C93.7874 46.2075 92.3318 46.009 91.0086 45.0166C90.6116 45.6121 90.0161 46.1414 89.156 46.0752H87.0388C86.9727 46.2737 86.9727 46.4722 86.9727 46.7368C86.9727 47.6631 87.5681 48.5232 88.3621 48.7879C88.6267 50.7066 90.1485 52.1622 92.001 52.1622C93.8536 52.1622 95.4415 50.7066 95.7061 48.7879C96.5001 48.3909 97.0955 47.5969 97.0955 46.6707Z" fill="#0D0D0D"/>
<path d="M89.2854 52.4795C88.6238 52.9426 87.7637 53.2073 87.3006 53.2734C84.9187 53.3396 83 55.3245 83 57.7725V59.6912C83 60.0882 83.2647 60.3528 83.6616 60.3528H93.4537C93.2552 59.0296 94.0491 53.1411 94.1153 52.9426C92.6597 53.6043 90.8072 53.5381 89.2854 52.4795Z" fill="#0D0D0D"/>
<path d="M106.824 48.9754C106.89 48.9754 106.89 48.9754 106.956 48.9754L111.257 48.1815C111.72 48.1153 111.984 47.5198 111.654 47.1229C111.654 47.1229 111.257 46.5936 110.794 45.4688C110.529 44.741 110.397 43.9471 110.463 43.087C110.595 39.5142 108.478 36.8015 104.442 36.7354C102.589 36.7354 101.068 37.3308 100.009 38.4556C97.7595 40.8374 98.7519 43.4178 98.2226 45.138C97.8257 46.4612 97.2302 47.1229 97.2302 47.1229C96.8332 47.5198 97.0979 48.1815 97.6272 48.2476L101.994 48.8431C102.656 48.9093 103.053 48.0491 102.457 47.6522C102.391 47.6522 101.2 46.7921 101.531 44.4764C102.325 44.2779 103.78 43.8147 104.839 42.2268C105.302 42.8885 106.096 43.6163 107.155 43.7486C107.155 45.3365 106.956 47.3875 106.427 47.9168C105.964 48.2476 106.228 48.9754 106.824 48.9754Z" fill="#0D0D0D"/>
<path d="M107.532 49.179C107.268 49.1128 106.937 49.2451 106.804 49.5098C105.746 51.627 103.033 51.627 101.974 49.5098C101.842 49.2451 101.578 49.1128 101.247 49.179C98.8649 49.5759 95.6229 50.8992 95.3582 53.281C94.4981 59.5003 94.6966 60.0958 94.7628 60.2943C94.8289 60.5589 95.0936 60.7574 95.3582 60.7574H113.288C113.553 60.7574 113.818 60.5589 113.95 60.2943C114.016 60.0958 114.215 59.5003 113.354 53.281C113.09 50.8992 109.848 49.5759 107.532 49.179ZM104.423 53.0164C104.819 53.0164 105.15 53.3472 105.15 53.7442C105.15 54.1412 104.819 54.472 104.423 54.472C104.026 54.472 103.695 54.1412 103.695 53.7442C103.695 53.3472 104.026 53.0164 104.423 53.0164ZM104.423 55.1998C104.819 55.1998 105.15 55.5306 105.15 55.9276C105.15 56.3245 104.819 56.6553 104.423 56.6553C104.026 56.6553 103.695 56.3245 103.695 55.9276C103.695 55.5306 104.026 55.1998 104.423 55.1998ZM104.423 59.0372C103.959 59.0372 103.562 58.6402 103.562 58.1771C103.562 57.7139 103.959 57.317 104.423 57.317C104.886 57.317 105.283 57.7139 105.283 58.1771C105.216 58.6402 104.886 59.0372 104.423 59.0372Z" fill="#0D0D0D"/>
<path d="M90.4805 29.525L89.5542 31.9068C89.3557 32.5023 89.9512 33.0316 90.4805 32.7008L93.9209 30.782C94.3841 30.8482 94.8472 30.9144 95.3765 30.9144C94.1856 29.6573 93.524 28.1355 93.524 26.4815C93.524 24.4304 94.5826 22.5779 96.3689 21.1885C96.0381 21.1885 95.7735 21.1885 95.4427 21.1885C91.5391 21.1885 88.3633 23.3718 88.3633 26.0845C88.3633 27.4078 89.1572 28.6648 90.4805 29.525Z" fill="#0D0D0D"/>
<path d="M115.201 26.5589C115.201 28.1468 114.539 29.7347 113.348 30.9918C114.076 31.0579 114.87 30.9918 115.598 30.9256L119.105 32.8443C119.634 33.109 120.229 32.5797 120.031 32.0504L119.171 29.6685C120.494 28.7422 121.222 27.5513 121.222 26.2281C121.222 23.5154 118.046 21.332 114.142 21.332C113.613 21.332 113.018 21.3982 112.488 21.4644C114.142 22.7214 115.201 24.574 115.201 26.5589Z" fill="#0D0D0D"/>
<path d="M104.371 33.034C105.033 33.034 105.761 32.9679 106.422 32.9017L109.796 35.482C110.193 35.8128 110.855 35.5482 110.855 34.9527V31.3138C112.774 30.1229 113.899 28.4026 113.899 26.5501C113.899 22.9773 109.598 20 104.371 20C99.1443 20 94.8438 22.9112 94.8438 26.5501C94.8438 30.189 99.012 33.034 104.371 33.034Z" fill="#0D0D0D"/>
<rect x="405" y="1" width="78" height="78" rx="14" stroke="#0D0D0D" stroke-width="2"/>
<path fill-rule="evenodd" clip-rule="evenodd" d="M458.87 32.7769V29.2372C458.87 29.0071 458.776 28.8031 458.625 28.6528C458.475 28.5025 458.265 28.4079 458.041 28.4079H426.109C425.879 28.4079 425.675 28.5025 425.525 28.6528C425.375 28.8031 425.28 29.0127 425.28 29.2372V32.7769H458.87ZM430.664 31.6563C430.359 31.6563 430.109 31.4059 430.109 31.1016C430.109 30.7974 430.359 30.5469 430.664 30.5469C430.968 30.5469 431.218 30.7974 431.218 31.1016C431.218 31.4059 430.968 31.6563 430.664 31.6563ZM433.253 31.6563C432.949 31.6563 432.699 31.4059 432.699 31.1016C432.699 30.7974 432.949 30.5469 433.253 30.5469C433.558 30.5469 433.808 30.7974 433.808 31.1016C433.808 31.4059 433.558 31.6563 433.253 31.6563ZM435.843 31.6563C435.539 31.6563 435.289 31.4059 435.289 31.1016C435.289 30.7974 435.539 30.5469 435.843 30.5469C436.148 30.5469 436.398 30.7974 436.398 31.1016C436.398 31.4059 436.148 31.6563 435.843 31.6563ZM452.611 31.6563C452.306 31.6563 452.056 31.4059 452.056 31.1016C452.056 30.7974 452.306 30.5469 452.611 30.5469H456.375C456.679 30.5469 456.93 30.7974 456.93 31.1016C456.93 31.4059 456.679 31.6563 456.375 31.6563H452.611ZM455.59 25.4765V27.2965L426.109 27.2983C425.575 27.2983 425.089 27.5135 424.74 27.8679C424.389 28.2222 424.171 28.7027 424.171 29.237V44.8746H422.831C422.601 44.8746 422.397 44.78 422.247 44.6297C422.096 44.4794 422.002 44.2698 422.002 44.0453L422 25.4783H455.59L455.59 25.4765ZM422.005 24.369H455.596V20.8293C455.596 20.5992 455.501 20.3952 455.351 20.2449C455.201 20.0946 454.991 20 454.767 20H422.835C422.605 20 422.401 20.0946 422.251 20.2449C422.1 20.3952 422.006 20.6048 422.006 20.8293L422.005 24.369ZM425.94 22.7401C425.636 22.7401 425.386 22.4897 425.386 22.1854C425.386 21.8811 425.636 21.6307 425.94 21.6307C426.245 21.6307 426.495 21.8811 426.495 22.1854C426.495 22.4897 426.245 22.7401 425.94 22.7401ZM428.53 22.7401C428.226 22.7401 427.975 22.4897 427.975 22.1854C427.975 21.8811 428.226 21.6307 428.53 21.6307C428.834 21.6307 429.085 21.8811 429.085 22.1854C429.085 22.4897 428.834 22.7401 428.53 22.7401ZM431.126 22.7401C430.821 22.7401 430.571 22.4897 430.571 22.1854C430.571 21.8811 430.821 21.6307 431.126 21.6307C431.43 21.6307 431.68 21.8811 431.68 22.1854C431.68 22.4897 431.43 22.7401 431.126 22.7401ZM447.893 22.7401C447.589 22.7401 447.338 22.4897 447.338 22.1854C447.338 21.8811 447.589 21.6307 447.893 21.6307H451.657C451.961 21.6307 452.212 21.8811 452.212 22.1854C452.212 22.4897 451.961 22.7401 451.657 22.7401H447.893ZM454.867 40.7875C452.902 40.7875 450.932 41.537 449.433 43.0379C447.934 44.5369 447.183 46.5016 447.183 48.4716C447.183 50.4416 447.932 52.4065 449.433 53.9053C450.932 55.4042 452.897 56.1556 454.867 56.1556C456.837 56.1556 458.802 55.4061 460.301 53.9053C461.8 52.4063 462.551 50.4416 462.551 48.4716C462.551 46.5016 461.801 44.5367 460.301 43.0379C458.802 41.5389 456.837 40.7875 454.867 40.7875ZM458.87 40.6428V33.8845L425.28 33.8827V52.4496C425.28 52.6797 425.375 52.8838 425.525 53.0341C425.675 53.1843 425.885 53.2789 426.109 53.2789H447.505C446.55 51.8245 446.075 50.1436 446.075 48.4703C446.075 46.2199 446.934 43.9714 448.65 42.2553C450.364 40.5411 452.615 39.6803 454.865 39.6803C456.24 39.6803 457.614 39.9994 458.869 40.6394L458.87 40.6428ZM463.841 55.4564L466.59 58.2058C466.865 58.4804 467 58.8403 467 59.2002C467 59.5601 466.865 59.92 466.59 60.1946C466.315 60.4692 465.956 60.6046 465.596 60.6046C465.236 60.6046 464.876 60.4692 464.601 60.1946L461.852 57.4452L463.842 55.4546L463.841 55.4564ZM461.551 54.1763L462.551 55.1763L461.572 56.1558L460.572 55.1559C460.746 55.0056 460.917 54.8516 461.082 54.6865C461.247 54.5214 461.401 54.3507 461.551 54.1763ZM454.867 42.6426C453.377 42.6426 451.882 43.2121 450.749 44.3475C449.613 45.4829 449.044 46.9764 449.044 48.4661C449.044 49.9558 449.613 51.4511 450.749 52.5846C451.888 53.7237 453.377 54.2895 454.867 54.2895C456.357 54.2895 457.852 53.72 458.986 52.5846C460.125 51.4456 460.691 49.9558 460.691 48.4661C460.691 46.9764 460.121 45.481 458.986 44.3475C457.847 43.2084 456.357 42.6426 454.867 42.6426ZM449.962 43.5683C448.608 44.9227 447.932 46.698 447.932 48.4734C447.932 50.2488 448.608 52.0225 449.962 53.3785C451.316 54.7328 453.092 55.4081 454.867 55.4081C456.642 55.4081 458.416 54.7328 459.772 53.3785C461.126 52.0242 461.802 50.2488 461.802 48.4734C461.802 46.698 461.126 44.9244 459.772 43.5683C458.418 42.214 456.642 41.5388 454.867 41.5388C453.092 41.5388 451.318 42.2141 449.962 43.5683ZM435.59 38.3997L437.554 39.8894L435.59 41.3791C435.35 41.5646 435.3 41.9097 435.484 42.149C435.669 42.3883 436.014 42.4384 436.254 42.2548L438.788 40.3346C438.829 40.3049 438.868 40.2641 438.903 40.2252C439.089 39.9858 439.038 39.6352 438.797 39.4552L436.257 37.5258C436.018 37.3403 435.667 37.3904 435.488 37.6316C435.302 37.8709 435.352 38.2215 435.593 38.4015L435.59 38.3997ZM431.415 37.524L428.876 39.4534C428.636 39.6389 428.586 39.984 428.77 40.2233C428.805 40.2678 428.84 40.3031 428.885 40.3328L431.419 42.2529C431.658 42.4384 432.009 42.3883 432.189 42.1472C432.374 41.9078 432.324 41.5572 432.083 41.3773L430.119 39.8875L432.083 38.3978C432.323 38.2123 432.373 37.8672 432.189 37.6279C432.003 37.3886 431.658 37.3385 431.419 37.5222L431.415 37.524ZM433.955 37.5296L432.655 41.9394C432.569 42.2288 432.734 42.5386 433.029 42.6239C433.319 42.7093 433.629 42.5442 433.714 42.2492L435.014 37.8394C435.1 37.55 434.935 37.2401 434.64 37.1548C434.35 37.0695 434.041 37.2346 433.955 37.5296ZM439.285 36.2253L428.39 36.2216C428.29 36.2216 428.195 36.2624 428.13 36.3311C428.065 36.396 428.021 36.4906 428.021 36.5908V43.1805C428.021 43.2807 428.062 43.3753 428.13 43.4402C428.195 43.5052 428.29 43.5497 428.39 43.5497H429.52H429.579C429.883 43.5794 430.104 43.8539 430.069 44.1545L429.898 45.7444L432.692 43.6795C432.787 43.5942 432.917 43.5441 433.058 43.5441H439.291C439.391 43.5441 439.486 43.5033 439.551 43.4346C439.616 43.3697 439.66 43.2751 439.66 43.1749V36.5852C439.66 36.4851 439.619 36.3904 439.551 36.3255C439.486 36.2606 439.391 36.216 439.291 36.216L439.285 36.2253ZM428.386 35.1197C427.982 35.1197 427.611 35.2848 427.342 35.5538C427.076 35.8191 426.908 36.1882 426.908 36.5982V43.1879C426.908 43.5923 427.073 43.9634 427.342 44.2324C427.607 44.4977 427.976 44.6665 428.386 44.6665H428.902L428.663 46.8909C428.648 47.0263 428.683 47.1617 428.768 47.2749C428.948 47.5198 429.293 47.5699 429.538 47.3899L433.228 44.6646H439.282C439.686 44.6646 440.057 44.4995 440.326 44.2305C440.591 43.9652 440.76 43.5961 440.76 43.186V36.5964C440.76 36.1919 440.595 35.8209 440.326 35.5519C440.061 35.2866 439.692 35.1178 439.282 35.1178H428.39L428.386 35.1197ZM427.702 49.1729C427.397 49.1729 427.147 48.9224 427.147 48.6182C427.147 48.3139 427.397 48.0634 427.702 48.0634H439.964C440.269 48.0634 440.519 48.3139 440.519 48.6182C440.519 48.9224 440.269 49.1729 439.964 49.1729L427.705 49.1692L427.702 49.1729ZM427.702 51.618C427.397 51.618 427.147 51.3676 427.147 51.0633C427.147 50.759 427.397 50.5086 427.702 50.5086H439.964C440.269 50.5086 440.519 50.759 440.519 51.0633C440.519 51.3676 440.269 51.618 439.964 51.618L427.705 51.6143L427.702 51.618ZM457.297 46.2233C457.513 46.0081 457.863 46.0081 458.077 46.2233C458.292 46.4385 458.292 46.7891 458.077 47.0024L454.392 50.6869C454.262 50.8167 454.088 50.8817 453.917 50.8817C453.747 50.8817 453.572 50.8167 453.442 50.6869L451.643 48.8873C451.428 48.6721 451.428 48.3215 451.643 48.1081C451.858 47.8929 452.209 47.8929 452.422 48.1081L453.917 49.6034L457.297 46.2233Z" fill="black"/>
<rect x="745" y="1" width="78" height="78" rx="14" stroke="#3A3A3A" stroke-width="2"/>
<path d="M802 57.475C802 57.1851 801.765 56.9503 801.475 56.9503H799.375V46.4503H793.775V56.9503H791.325V42.25H785.725V56.95H783.275V30.7H777.675V56.95H775.225V23H769.625V56.95H767.525C767.235 56.95 767 57.1851 767 57.4746C767 57.7648 767.235 57.9996 767.525 57.9996H801.475C801.765 58 802 57.7648 802 57.475Z" fill="black"/>
<rect x="1085" y="1" width="78" height="78" rx="14" stroke="#3A3A3A" stroke-width="2"/>
<path fill-rule="evenodd" clip-rule="evenodd" d="M1128.09 53.8721L1131.44 61.0814C1131.56 61.3222 1131.89 61.3375 1132.02 61.1077L1134.56 56.7369L1139.54 57.607C1139.81 57.6528 1140.01 57.3857 1139.9 57.1445L1135.93 48.6145C1135.58 48.7923 1135.33 49.0268 1135.11 49.368L1133.59 51.6919C1132.38 53.5338 1130.2 54.3871 1128.09 53.8721ZM1124.34 42.6489C1121.67 41.0793 1116.76 37.4768 1116.69 33.8824C1116.62 29.8809 1121.12 28.0658 1124.5 31.5064C1127.88 28.0663 1132.38 29.88 1132.31 33.8814C1132.24 37.4763 1127.33 41.0788 1124.65 42.6489C1124.56 42.7062 1124.44 42.7062 1124.34 42.6489ZM1126.71 18.7475L1128.93 20.4116C1129.54 20.8665 1130.18 21.0997 1130.94 21.1417L1133.71 21.296C1135.37 21.3882 1136.72 22.5196 1137.1 24.1384L1137.73 26.8422C1137.91 27.5818 1138.25 28.1714 1138.8 28.6912L1140.83 30.5914C1142.04 31.7295 1142.34 33.4624 1141.59 34.9464L1140.34 37.4247C1140 38.1027 1139.88 38.773 1139.97 39.527L1140.3 42.2843C1140.5 43.9351 1139.62 45.4597 1138.09 46.1142L1135.54 47.2074C1134.84 47.5065 1134.32 47.9442 1133.9 48.5796L1132.38 50.9036C1131.47 52.2949 1129.82 52.8969 1128.23 52.4163L1125.57 51.6131C1124.84 51.3933 1124.16 51.3933 1123.43 51.6131L1120.77 52.4163C1119.18 52.8974 1117.53 52.2954 1116.62 50.9036L1115.1 48.5796C1114.68 47.9442 1114.16 47.5065 1113.46 47.2074L1110.91 46.1142C1109.38 45.4597 1108.5 43.9355 1108.7 42.2843L1109.03 39.527C1109.12 38.773 1109 38.1022 1108.66 37.4247L1107.41 34.9464C1106.66 33.4624 1106.96 31.7295 1108.17 30.5914L1110.2 28.6912C1110.75 28.1714 1111.09 27.5818 1111.27 26.8422L1111.9 24.1384C1112.28 22.5196 1113.63 21.3882 1115.29 21.296L1118.06 21.1417C1118.82 21.0997 1119.46 20.8665 1120.07 20.4116L1122.29 18.7475C1123.62 17.7508 1125.38 17.7508 1126.71 18.7475ZM1124.5 23.545C1118.01 23.545 1112.75 28.8035 1112.75 35.2895C1112.75 41.7759 1118.01 47.0345 1124.5 47.0345C1130.99 47.0345 1136.24 41.7759 1136.24 35.2895C1136.24 28.803 1130.99 23.545 1124.5 23.545ZM1120.91 53.8721C1118.8 54.3871 1116.62 53.5338 1115.41 51.6924L1113.89 49.3685C1113.67 49.0273 1113.41 48.7927 1113.07 48.615L1109.1 57.1449C1108.99 57.3862 1109.19 57.6528 1109.45 57.6074L1114.43 56.7374L1116.97 61.1082C1117.11 61.338 1117.44 61.3227 1117.56 61.0819L1120.91 53.8721Z" fill="black"/>
<path d="M124.205 409.04V423H121.405V409.04H124.205ZM138.912 423H136.112L129.772 413.42V423H126.972V409.02H129.772L136.112 418.62V409.02H138.912V423ZM140.999 416C140.999 414.627 141.305 413.4 141.919 412.32C142.545 411.227 143.392 410.38 144.459 409.78C145.539 409.167 146.745 408.86 148.079 408.86C149.639 408.86 151.005 409.26 152.179 410.06C153.352 410.86 154.172 411.967 154.639 413.38H151.419C151.099 412.713 150.645 412.213 150.059 411.88C149.485 411.547 148.819 411.38 148.059 411.38C147.245 411.38 146.519 411.573 145.879 411.96C145.252 412.333 144.759 412.867 144.399 413.56C144.052 414.253 143.879 415.067 143.879 416C143.879 416.92 144.052 417.733 144.399 418.44C144.759 419.133 145.252 419.673 145.879 420.06C146.519 420.433 147.245 420.62 148.059 420.62C148.819 420.62 149.485 420.453 150.059 420.12C150.645 419.773 151.099 419.267 151.419 418.6H154.639C154.172 420.027 153.352 421.14 152.179 421.94C151.019 422.727 149.652 423.12 148.079 423.12C146.745 423.12 145.539 422.82 144.459 422.22C143.392 421.607 142.545 420.76 141.919 419.68C141.305 418.6 140.999 417.373 140.999 416ZM164.23 423L161.15 417.56H159.83V423H157.03V409.04H162.27C163.35 409.04 164.27 409.233 165.03 409.62C165.79 409.993 166.357 410.507 166.73 411.16C167.117 411.8 167.31 412.52 167.31 413.32C167.31 414.24 167.044 415.073 166.51 415.82C165.977 416.553 165.184 417.06 164.13 417.34L167.47 423H164.23ZM159.83 415.46H162.17C162.93 415.46 163.497 415.28 163.87 414.92C164.244 414.547 164.43 414.033 164.43 413.38C164.43 412.74 164.244 412.247 163.87 411.9C163.497 411.54 162.93 411.36 162.17 411.36H159.83V415.46ZM172.643 411.3V414.8H177.343V417.02H172.643V420.72H177.943V423H169.843V409.02H177.943V411.3H172.643ZM187.687 423L184.607 417.56H183.287V423H180.487V409.04H185.727C186.807 409.04 187.727 409.233 188.487 409.62C189.247 409.993 189.814 410.507 190.187 411.16C190.574 411.8 190.767 412.52 190.767 413.32C190.767 414.24 190.501 415.073 189.967 415.82C189.434 416.553 188.641 417.06 187.587 417.34L190.927 423H187.687ZM183.287 415.46H185.627C186.387 415.46 186.954 415.28 187.327 414.92C187.701 414.547 187.887 414.033 187.887 413.38C187.887 412.74 187.701 412.247 187.327 411.9C186.954 411.54 186.387 411.36 185.627 411.36H183.287V415.46ZM201.86 420.34H196.3L195.38 423H192.44L197.46 409.02H200.72L205.74 423H202.78L201.86 420.34ZM201.1 418.1L199.08 412.26L197.06 418.1H201.1ZM212.436 423.14C211.463 423.14 210.583 422.973 209.796 422.64C209.023 422.307 208.41 421.827 207.956 421.2C207.503 420.573 207.27 419.833 207.256 418.98H210.256C210.296 419.553 210.496 420.007 210.856 420.34C211.23 420.673 211.736 420.84 212.376 420.84C213.03 420.84 213.543 420.687 213.916 420.38C214.29 420.06 214.476 419.647 214.476 419.14C214.476 418.727 214.35 418.387 214.096 418.12C213.843 417.853 213.523 417.647 213.136 417.5C212.763 417.34 212.243 417.167 211.576 416.98C210.67 416.713 209.93 416.453 209.356 416.2C208.796 415.933 208.31 415.54 207.896 415.02C207.496 414.487 207.296 413.78 207.296 412.9C207.296 412.073 207.503 411.353 207.916 410.74C208.33 410.127 208.91 409.66 209.656 409.34C210.403 409.007 211.256 408.84 212.216 408.84C213.656 408.84 214.823 409.193 215.716 409.9C216.623 410.593 217.123 411.567 217.216 412.82H214.136C214.11 412.34 213.903 411.947 213.516 411.64C213.143 411.32 212.643 411.16 212.016 411.16C211.47 411.16 211.03 411.3 210.696 411.58C210.376 411.86 210.216 412.267 210.216 412.8C210.216 413.173 210.336 413.487 210.576 413.74C210.83 413.98 211.136 414.18 211.496 414.34C211.87 414.487 212.39 414.66 213.056 414.86C213.963 415.127 214.703 415.393 215.276 415.66C215.85 415.927 216.343 416.327 216.756 416.86C217.17 417.393 217.376 418.093 217.376 418.96C217.376 419.707 217.183 420.4 216.796 421.04C216.41 421.68 215.843 422.193 215.096 422.58C214.35 422.953 213.463 423.14 212.436 423.14ZM222.604 411.3V414.8H227.304V417.02H222.604V420.72H227.904V423H219.804V409.02H227.904V411.3H222.604ZM240.094 409.04C241.561 409.04 242.847 409.327 243.954 409.9C245.074 410.473 245.934 411.293 246.534 412.36C247.147 413.413 247.454 414.64 247.454 416.04C247.454 417.44 247.147 418.667 246.534 419.72C245.934 420.76 245.074 421.567 243.954 422.14C242.847 422.713 241.561 423 240.094 423H235.214V409.04H240.094ZM239.994 420.62C241.461 420.62 242.594 420.22 243.394 419.42C244.194 418.62 244.594 417.493 244.594 416.04C244.594 414.587 244.194 413.453 243.394 412.64C242.594 411.813 241.461 411.4 239.994 411.4H238.014V420.62H239.994ZM252.35 409.04V423H249.55V409.04H252.35ZM264.836 413.24C264.516 412.653 264.076 412.207 263.516 411.9C262.956 411.593 262.303 411.44 261.556 411.44C260.73 411.44 259.996 411.627 259.356 412C258.716 412.373 258.216 412.907 257.856 413.6C257.496 414.293 257.316 415.093 257.316 416C257.316 416.933 257.496 417.747 257.856 418.44C258.23 419.133 258.743 419.667 259.396 420.04C260.05 420.413 260.81 420.6 261.676 420.6C262.743 420.6 263.616 420.32 264.296 419.76C264.976 419.187 265.423 418.393 265.636 417.38H260.836V415.24H268.396V417.68C268.21 418.653 267.81 419.553 267.196 420.38C266.583 421.207 265.79 421.873 264.816 422.38C263.856 422.873 262.776 423.12 261.576 423.12C260.23 423.12 259.01 422.82 257.916 422.22C256.836 421.607 255.983 420.76 255.356 419.68C254.743 418.6 254.436 417.373 254.436 416C254.436 414.627 254.743 413.4 255.356 412.32C255.983 411.227 256.836 410.38 257.916 409.78C259.01 409.167 260.223 408.86 261.556 408.86C263.13 408.86 264.496 409.247 265.656 410.02C266.816 410.78 267.616 411.853 268.056 413.24H264.836ZM273.268 409.04V423H270.468V409.04H273.268ZM285.534 409.04V411.3H281.814V423H279.014V411.3H275.294V409.04H285.534ZM296.137 420.34H290.577L289.657 423H286.717L291.737 409.02H294.997L300.017 423H297.057L296.137 420.34ZM295.377 418.1L293.357 412.26L291.337 418.1H295.377ZM304.694 420.78H309.294V423H301.894V409.04H304.694V420.78ZM320.659 423.14C319.686 423.14 318.806 422.973 318.019 422.64C317.246 422.307 316.632 421.827 316.179 421.2C315.726 420.573 315.492 419.833 315.479 418.98H318.479C318.519 419.553 318.719 420.007 319.079 420.34C319.452 420.673 319.959 420.84 320.599 420.84C321.252 420.84 321.766 420.687 322.139 420.38C322.512 420.06 322.699 419.647 322.699 419.14C322.699 418.727 322.572 418.387 322.319 418.12C322.066 417.853 321.746 417.647 321.359 417.5C320.986 417.34 320.466 417.167 319.799 416.98C318.892 416.713 318.152 416.453 317.579 416.2C317.019 415.933 316.532 415.54 316.119 415.02C315.719 414.487 315.519 413.78 315.519 412.9C315.519 412.073 315.726 411.353 316.139 410.74C316.552 410.127 317.132 409.66 317.879 409.34C318.626 409.007 319.479 408.84 320.439 408.84C321.879 408.84 323.046 409.193 323.939 409.9C324.846 410.593 325.346 411.567 325.439 412.82H322.359C322.332 412.34 322.126 411.947 321.739 411.64C321.366 411.32 320.866 411.16 320.239 411.16C319.692 411.16 319.252 411.3 318.919 411.58C318.599 411.86 318.439 412.267 318.439 412.8C318.439 413.173 318.559 413.487 318.799 413.74C319.052 413.98 319.359 414.18 319.719 414.34C320.092 414.487 320.612 414.66 321.279 414.86C322.186 415.127 322.926 415.393 323.499 415.66C324.072 415.927 324.566 416.327 324.979 416.86C325.392 417.393 325.599 418.093 325.599 418.96C325.599 419.707 325.406 420.4 325.019 421.04C324.632 421.68 324.066 422.193 323.319 422.58C322.572 422.953 321.686 423.14 320.659 423.14ZM336.586 420.34H331.026L330.106 423H327.166L332.186 409.02H335.446L340.466 423H337.506L336.586 420.34ZM335.826 418.1L333.806 412.26L331.786 418.1H335.826ZM345.143 420.78H349.743V423H342.343V409.04H345.143V420.78ZM354.323 411.3V414.8H359.023V417.02H354.323V420.72H359.623V423H351.523V409.02H359.623V411.3H354.323ZM366.987 423.14C366.014 423.14 365.134 422.973 364.347 422.64C363.574 422.307 362.96 421.827 362.507 421.2C362.054 420.573 361.82 419.833 361.807 418.98H364.807C364.847 419.553 365.047 420.007 365.407 420.34C365.78 420.673 366.287 420.84 366.927 420.84C367.58 420.84 368.094 420.687 368.467 420.38C368.84 420.06 369.027 419.647 369.027 419.14C369.027 418.727 368.9 418.387 368.647 418.12C368.394 417.853 368.074 417.647 367.687 417.5C367.314 417.34 366.794 417.167 366.127 416.98C365.22 416.713 364.48 416.453 363.907 416.2C363.347 415.933 362.86 415.54 362.447 415.02C362.047 414.487 361.847 413.78 361.847 412.9C361.847 412.073 362.054 411.353 362.467 410.74C362.88 410.127 363.46 409.66 364.207 409.34C364.954 409.007 365.807 408.84 366.767 408.84C368.207 408.84 369.374 409.193 370.267 409.9C371.174 410.593 371.674 411.567 371.767 412.82H368.687C368.66 412.34 368.454 411.947 368.067 411.64C367.694 411.32 367.194 411.16 366.567 411.16C366.02 411.16 365.58 411.3 365.247 411.58C364.927 411.86 364.767 412.267 364.767 412.8C364.767 413.173 364.887 413.487 365.127 413.74C365.38 413.98 365.687 414.18 366.047 414.34C366.42 414.487 366.94 414.66 367.607 414.86C368.514 415.127 369.254 415.393 369.827 415.66C370.4 415.927 370.894 416.327 371.307 416.86C371.72 417.393 371.927 418.093 371.927 418.96C371.927 419.707 371.734 420.4 371.347 421.04C370.96 421.68 370.394 422.193 369.647 422.58C368.9 422.953 368.014 423.14 366.987 423.14Z" fill="#0D0D0D"/>
<path d="M489.6 411.3V414.8H494.3V417.02H489.6V420.72H494.9V423H486.8V409.02H494.9V411.3H489.6ZM512.664 409.04V423H509.864V413.92L506.124 423H504.004L500.244 413.92V423H497.444V409.04H500.624L505.064 419.42L509.504 409.04H512.664ZM518.233 411.3V414.8H522.933V417.02H518.233V420.72H523.533V423H515.433V409.02H523.533V411.3H518.233ZM533.277 423L530.197 417.56H528.877V423H526.077V409.04H531.317C532.397 409.04 533.317 409.233 534.077 409.62C534.837 409.993 535.404 410.507 535.777 411.16C536.164 411.8 536.357 412.52 536.357 413.32C536.357 414.24 536.091 415.073 535.557 415.82C535.024 416.553 534.231 417.06 533.177 417.34L536.517 423H533.277ZM528.877 415.46H531.217C531.977 415.46 532.544 415.28 532.917 414.92C533.291 414.547 533.477 414.033 533.477 413.38C533.477 412.74 533.291 412.247 532.917 411.9C532.544 411.54 531.977 411.36 531.217 411.36H528.877V415.46ZM548.61 413.24C548.29 412.653 547.85 412.207 547.29 411.9C546.73 411.593 546.076 411.44 545.33 411.44C544.503 411.44 543.77 411.627 543.13 412C542.49 412.373 541.99 412.907 541.63 413.6C541.27 414.293 541.09 415.093 541.09 416C541.09 416.933 541.27 417.747 541.63 418.44C542.003 419.133 542.516 419.667 543.17 420.04C543.823 420.413 544.583 420.6 545.45 420.6C546.516 420.6 547.39 420.32 548.07 419.76C548.75 419.187 549.196 418.393 549.41 417.38H544.61V415.24H552.17V417.68C551.983 418.653 551.583 419.553 550.97 420.38C550.356 421.207 549.563 421.873 548.59 422.38C547.63 422.873 546.55 423.12 545.35 423.12C544.003 423.12 542.783 422.82 541.69 422.22C540.61 421.607 539.756 420.76 539.13 419.68C538.516 418.6 538.21 417.373 538.21 416C538.21 414.627 538.516 413.4 539.13 412.32C539.756 411.227 540.61 410.38 541.69 409.78C542.783 409.167 543.996 408.86 545.33 408.86C546.903 408.86 548.27 409.247 549.43 410.02C550.59 410.78 551.39 411.853 551.83 413.24H548.61ZM557.041 409.04V423H554.241V409.04H557.041ZM571.748 423H568.948L562.608 413.42V423H559.808V409.02H562.608L568.948 418.62V409.02H571.748V423ZM584.235 413.24C583.915 412.653 583.475 412.207 582.915 411.9C582.355 411.593 581.701 411.44 580.955 411.44C580.128 411.44 579.395 411.627 578.755 412C578.115 412.373 577.615 412.907 577.255 413.6C576.895 414.293 576.715 415.093 576.715 416C576.715 416.933 576.895 417.747 577.255 418.44C577.628 419.133 578.141 419.667 578.795 420.04C579.448 420.413 580.208 420.6 581.075 420.6C582.141 420.6 583.015 420.32 583.695 419.76C584.375 419.187 584.821 418.393 585.035 417.38H580.235V415.24H587.795V417.68C587.608 418.653 587.208 419.553 586.595 420.38C585.981 421.207 585.188 421.873 584.215 422.38C583.255 422.873 582.175 423.12 580.975 423.12C579.628 423.12 578.408 422.82 577.315 422.22C576.235 421.607 575.381 420.76 574.755 419.68C574.141 418.6 573.835 417.373 573.835 416C573.835 414.627 574.141 413.4 574.755 412.32C575.381 411.227 576.235 410.38 577.315 409.78C578.408 409.167 579.621 408.86 580.955 408.86C582.528 408.86 583.895 409.247 585.055 410.02C586.215 410.78 587.015 411.853 587.455 413.24H584.235ZM604.132 409.04V411.3H600.412V423H597.612V411.3H593.892V409.04H604.132ZM608.975 411.3V414.8H613.675V417.02H608.975V420.72H614.275V423H606.175V409.02H614.275V411.3H608.975ZM616.139 416C616.139 414.627 616.446 413.4 617.059 412.32C617.686 411.227 618.533 410.38 619.599 409.78C620.679 409.167 621.886 408.86 623.219 408.86C624.779 408.86 626.146 409.26 627.319 410.06C628.493 410.86 629.313 411.967 629.779 413.38H626.559C626.239 412.713 625.786 412.213 625.199 411.88C624.626 411.547 623.959 411.38 623.199 411.38C622.386 411.38 621.659 411.573 621.019 411.96C620.393 412.333 619.899 412.867 619.539 413.56C619.193 414.253 619.019 415.067 619.019 416C619.019 416.92 619.193 417.733 619.539 418.44C619.899 419.133 620.393 419.673 621.019 420.06C621.659 420.433 622.386 420.62 623.199 420.62C623.959 420.62 624.626 420.453 625.199 420.12C625.786 419.773 626.239 419.267 626.559 418.6H629.779C629.313 420.027 628.493 421.14 627.319 421.94C626.159 422.727 624.793 423.12 623.219 423.12C621.886 423.12 620.679 422.82 619.599 422.22C618.533 421.607 617.686 420.76 617.059 419.68C616.446 418.6 616.139 417.373 616.139 416ZM643.751 409.04V423H640.951V417.06H634.971V423H632.171V409.04H634.971V414.78H640.951V409.04H643.751ZM660.773 409.04V411.3H657.053V423H654.253V411.3H650.533V409.04H660.773ZM669.296 423.14C667.989 423.14 666.789 422.833 665.696 422.22C664.602 421.607 663.736 420.76 663.096 419.68C662.456 418.587 662.136 417.353 662.136 415.98C662.136 414.62 662.456 413.4 663.096 412.32C663.736 411.227 664.602 410.373 665.696 409.76C666.789 409.147 667.989 408.84 669.296 408.84C670.616 408.84 671.816 409.147 672.896 409.76C673.989 410.373 674.849 411.227 675.476 412.32C676.116 413.4 676.436 414.62 676.436 415.98C676.436 417.353 676.116 418.587 675.476 419.68C674.849 420.76 673.989 421.607 672.896 422.22C671.802 422.833 670.602 423.14 669.296 423.14ZM669.296 420.64C670.136 420.64 670.876 420.453 671.516 420.08C672.156 419.693 672.656 419.147 673.016 418.44C673.376 417.733 673.556 416.913 673.556 415.98C673.556 415.047 673.376 414.233 673.016 413.54C672.656 412.833 672.156 412.293 671.516 411.92C670.876 411.547 670.136 411.36 669.296 411.36C668.456 411.36 667.709 411.547 667.056 411.92C666.416 412.293 665.916 412.833 665.556 413.54C665.196 414.233 665.016 415.047 665.016 415.98C665.016 416.913 665.196 417.733 665.556 418.44C665.916 419.147 666.416 419.693 667.056 420.08C667.709 420.453 668.456 420.64 669.296 420.64ZM684.999 423.14C683.692 423.14 682.492 422.833 681.399 422.22C680.305 421.607 679.439 420.76 678.799 419.68C678.159 418.587 677.839 417.353 677.839 415.98C677.839 414.62 678.159 413.4 678.799 412.32C679.439 411.227 680.305 410.373 681.399 409.76C682.492 409.147 683.692 408.84 684.999 408.84C686.319 408.84 687.519 409.147 688.599 409.76C689.692 410.373 690.552 411.227 691.179 412.32C691.819 413.4 692.139 414.62 692.139 415.98C692.139 417.353 691.819 418.587 691.179 419.68C690.552 420.76 689.692 421.607 688.599 422.22C687.505 422.833 686.305 423.14 684.999 423.14ZM684.999 420.64C685.839 420.64 686.579 420.453 687.219 420.08C687.859 419.693 688.359 419.147 688.719 418.44C689.079 417.733 689.259 416.913 689.259 415.98C689.259 415.047 689.079 414.233 688.719 413.54C688.359 412.833 687.859 412.293 687.219 411.92C686.579 411.547 685.839 411.36 684.999 411.36C684.159 411.36 683.412 411.547 682.759 411.92C682.119 412.293 681.619 412.833 681.259 413.54C680.899 414.233 680.719 415.047 680.719 415.98C680.719 416.913 680.899 417.733 681.259 418.44C681.619 419.147 682.119 419.693 682.759 420.08C683.412 420.453 684.159 420.64 684.999 420.64ZM697.022 420.78H701.622V423H694.222V409.04H697.022V420.78ZM711.281 423L706.201 416.78V423H703.401V409.04H706.201V415.3L711.281 409.04H714.661L708.901 415.96L714.821 423H711.281ZM719.463 409.04V423H716.663V409.04H719.463ZM731.73 409.04V411.3H728.01V423H725.21V411.3H721.49V409.04H731.73ZM738.593 423.14C737.619 423.14 736.739 422.973 735.953 422.64C735.179 422.307 734.566 421.827 734.113 421.2C733.659 420.573 733.426 419.833 733.413 418.98H736.413C736.453 419.553 736.653 420.007 737.013 420.34C737.386 420.673 737.893 420.84 738.533 420.84C739.186 420.84 739.699 420.687 740.073 420.38C740.446 420.06 740.633 419.647 740.633 419.14C740.633 418.727 740.506 418.387 740.253 418.12C739.999 417.853 739.679 417.647 739.293 417.5C738.919 417.34 738.399 417.167 737.733 416.98C736.826 416.713 736.086 416.453 735.513 416.2C734.953 415.933 734.466 415.54 734.053 415.02C733.653 414.487 733.453 413.78 733.453 412.9C733.453 412.073 733.659 411.353 734.073 410.74C734.486 410.127 735.066 409.66 735.813 409.34C736.559 409.007 737.413 408.84 738.373 408.84C739.813 408.84 740.979 409.193 741.873 409.9C742.779 410.593 743.279 411.567 743.373 412.82H740.293C740.266 412.34 740.059 411.947 739.673 411.64C739.299 411.32 738.799 411.16 738.173 411.16C737.626 411.16 737.186 411.3 736.853 411.58C736.533 411.86 736.373 412.267 736.373 412.8C736.373 413.173 736.493 413.487 736.733 413.74C736.986 413.98 737.293 414.18 737.653 414.34C738.026 414.487 738.546 414.66 739.213 414.86C740.119 415.127 740.859 415.393 741.433 415.66C742.006 415.927 742.499 416.327 742.913 416.86C743.326 417.393 743.533 418.093 743.533 418.96C743.533 419.707 743.339 420.4 742.953 421.04C742.566 421.68 741.999 422.193 741.253 422.58C740.506 422.953 739.619 423.14 738.593 423.14Z" fill="black"/>
<path d="M863.389 409.04C864.856 409.04 866.142 409.327 867.249 409.9C868.369 410.473 869.229 411.293 869.829 412.36C870.442 413.413 870.749 414.64 870.749 416.04C870.749 417.44 870.442 418.667 869.829 419.72C869.229 420.76 868.369 421.567 867.249 422.14C866.142 422.713 864.856 423 863.389 423H858.509V409.04H863.389ZM863.289 420.62C864.756 420.62 865.889 420.22 866.689 419.42C867.489 418.62 867.889 417.493 867.889 416.04C867.889 414.587 867.489 413.453 866.689 412.64C865.889 411.813 864.756 411.4 863.289 411.4H861.309V420.62H863.289ZM875.645 411.3V414.8H880.345V417.02H875.645V420.72H880.945V423H872.845V409.02H880.945V411.3H875.645ZM896.029 409.04L890.909 423H887.509L882.389 409.04H885.389L889.229 420.14L893.049 409.04H896.029ZM900.508 409.04V423H897.708V409.04H900.508ZM902.595 416C902.595 414.627 902.901 413.4 903.515 412.32C904.141 411.227 904.988 410.38 906.055 409.78C907.135 409.167 908.341 408.86 909.675 408.86C911.235 408.86 912.601 409.26 913.775 410.06C914.948 410.86 915.768 411.967 916.235 413.38H913.015C912.695 412.713 912.241 412.213 911.655 411.88C911.081 411.547 910.415 411.38 909.655 411.38C908.841 411.38 908.115 411.573 907.475 411.96C906.848 412.333 906.355 412.867 905.995 413.56C905.648 414.253 905.475 415.067 905.475 416C905.475 416.92 905.648 417.733 905.995 418.44C906.355 419.133 906.848 419.673 907.475 420.06C908.115 420.433 908.841 420.62 909.655 420.62C910.415 420.62 911.081 420.453 911.655 420.12C912.241 419.773 912.695 419.267 913.015 418.6H916.235C915.768 420.027 914.948 421.14 913.775 421.94C912.615 422.727 911.248 423.12 909.675 423.12C908.341 423.12 907.135 422.82 906.055 422.22C904.988 421.607 904.141 420.76 903.515 419.68C902.901 418.6 902.595 417.373 902.595 416ZM921.426 411.3V414.8H926.126V417.02H921.426V420.72H926.726V423H918.626V409.02H926.726V411.3H921.426ZM942.596 420.34H937.036L936.116 423H933.176L938.196 409.02H941.456L946.476 423H943.516L942.596 420.34ZM941.836 418.1L939.816 412.26L937.796 418.1H941.836ZM958.073 413.24C957.753 412.653 957.313 412.207 956.753 411.9C956.193 411.593 955.539 411.44 954.793 411.44C953.966 411.44 953.233 411.627 952.593 412C951.953 412.373 951.453 412.907 951.093 413.6C950.733 414.293 950.553 415.093 950.553 416C950.553 416.933 950.733 417.747 951.093 418.44C951.466 419.133 951.979 419.667 952.633 420.04C953.286 420.413 954.046 420.6 954.913 420.6C955.979 420.6 956.853 420.32 957.533 419.76C958.213 419.187 958.659 418.393 958.873 417.38H954.073V415.24H961.633V417.68C961.446 418.653 961.046 419.553 960.433 420.38C959.819 421.207 959.026 421.873 958.053 422.38C957.093 422.873 956.013 423.12 954.813 423.12C953.466 423.12 952.246 422.82 951.153 422.22C950.073 421.607 949.219 420.76 948.593 419.68C947.979 418.6 947.673 417.373 947.673 416C947.673 414.627 947.979 413.4 948.593 412.32C949.219 411.227 950.073 410.38 951.153 409.78C952.246 409.167 953.459 408.86 954.793 408.86C956.366 408.86 957.733 409.247 958.893 410.02C960.053 410.78 960.853 411.853 961.293 413.24H958.073ZM975.644 423H972.844L966.504 413.42V423H963.704V409.02H966.504L972.844 418.62V409.02H975.644V423ZM984.891 423.14C983.585 423.14 982.385 422.833 981.291 422.22C980.198 421.607 979.331 420.76 978.691 419.68C978.051 418.587 977.731 417.353 977.731 415.98C977.731 414.62 978.051 413.4 978.691 412.32C979.331 411.227 980.198 410.373 981.291 409.76C982.385 409.147 983.585 408.84 984.891 408.84C986.211 408.84 987.411 409.147 988.491 409.76C989.585 410.373 990.445 411.227 991.071 412.32C991.711 413.4 992.031 414.62 992.031 415.98C992.031 417.353 991.711 418.587 991.071 419.68C990.445 420.76 989.585 421.607 988.491 422.22C987.398 422.833 986.198 423.14 984.891 423.14ZM984.891 420.64C985.731 420.64 986.471 420.453 987.111 420.08C987.751 419.693 988.251 419.147 988.611 418.44C988.971 417.733 989.151 416.913 989.151 415.98C989.151 415.047 988.971 414.233 988.611 413.54C988.251 412.833 987.751 412.293 987.111 411.92C986.471 411.547 985.731 411.36 984.891 411.36C984.051 411.36 983.305 411.547 982.651 411.92C982.011 412.293 981.511 412.833 981.151 413.54C980.791 414.233 980.611 415.047 980.611 415.98C980.611 416.913 980.791 417.733 981.151 418.44C981.511 419.147 982.011 419.693 982.651 420.08C983.305 420.453 984.051 420.64 984.891 420.64ZM998.934 423.14C997.961 423.14 997.081 422.973 996.294 422.64C995.521 422.307 994.908 421.827 994.454 421.2C994.001 420.573 993.768 419.833 993.754 418.98H996.754C996.794 419.553 996.994 420.007 997.354 420.34C997.728 420.673 998.234 420.84 998.874 420.84C999.528 420.84 1000.04 420.687 1000.41 420.38C1000.79 420.06 1000.97 419.647 1000.97 419.14C1000.97 418.727 1000.85 418.387 1000.59 418.12C1000.34 417.853 1000.02 417.647 999.634 417.5C999.261 417.34 998.741 417.167 998.074 416.98C997.168 416.713 996.428 416.453 995.854 416.2C995.294 415.933 994.808 415.54 994.394 415.02C993.994 414.487 993.794 413.78 993.794 412.9C993.794 412.073 994.001 411.353 994.414 410.74C994.828 410.127 995.408 409.66 996.154 409.34C996.901 409.007 997.754 408.84 998.714 408.84C1000.15 408.84 1001.32 409.193 1002.21 409.9C1003.12 410.593 1003.62 411.567 1003.71 412.82H1000.63C1000.61 412.34 1000.4 411.947 1000.01 411.64C999.641 411.32 999.141 411.16 998.514 411.16C997.968 411.16 997.528 411.3 997.194 411.58C996.874 411.86 996.714 412.267 996.714 412.8C996.714 413.173 996.834 413.487 997.074 413.74C997.328 413.98 997.634 414.18 997.994 414.34C998.368 414.487 998.888 414.66 999.554 414.86C1000.46 415.127 1001.2 415.393 1001.77 415.66C1002.35 415.927 1002.84 416.327 1003.25 416.86C1003.67 417.393 1003.87 418.093 1003.87 418.96C1003.87 419.707 1003.68 420.4 1003.29 421.04C1002.91 421.68 1002.34 422.193 1001.59 422.58C1000.85 422.953 999.961 423.14 998.934 423.14ZM1015.8 409.04V411.3H1012.08V423H1009.28V411.3H1005.56V409.04H1015.8ZM1020.64 409.04V423H1017.84V409.04H1020.64ZM1022.73 416C1022.73 414.627 1023.04 413.4 1023.65 412.32C1024.28 411.227 1025.12 410.38 1026.19 409.78C1027.27 409.167 1028.48 408.86 1029.81 408.86C1031.37 408.86 1032.74 409.26 1033.91 410.06C1035.08 410.86 1035.9 411.967 1036.37 413.38H1033.15C1032.83 412.713 1032.38 412.213 1031.79 411.88C1031.22 411.547 1030.55 411.38 1029.79 411.38C1028.98 411.38 1028.25 411.573 1027.61 411.96C1026.98 412.333 1026.49 412.867 1026.13 413.56C1025.78 414.253 1025.61 415.067 1025.61 416C1025.61 416.92 1025.78 417.733 1026.13 418.44C1026.49 419.133 1026.98 419.673 1027.61 420.06C1028.25 420.433 1028.98 420.62 1029.79 420.62C1030.55 420.62 1031.22 420.453 1031.79 420.12C1032.38 419.773 1032.83 419.267 1033.15 418.6H1036.37C1035.9 420.027 1035.08 421.14 1033.91 421.94C1032.75 422.727 1031.38 423.12 1029.81 423.12C1028.48 423.12 1027.27 422.82 1026.19 422.22C1025.12 421.607 1024.28 420.76 1023.65 419.68C1023.04 418.6 1022.73 417.373 1022.73 416ZM1048.35 423.14C1047.38 423.14 1046.5 422.973 1045.71 422.64C1044.94 422.307 1044.32 421.827 1043.87 421.2C1043.42 420.573 1043.18 419.833 1043.17 418.98H1046.17C1046.21 419.553 1046.41 420.007 1046.77 420.34C1047.14 420.673 1047.65 420.84 1048.29 420.84C1048.94 420.84 1049.46 420.687 1049.83 420.38C1050.2 420.06 1050.39 419.647 1050.39 419.14C1050.39 418.727 1050.26 418.387 1050.01 418.12C1049.76 417.853 1049.44 417.647 1049.05 417.5C1048.68 417.34 1048.16 417.167 1047.49 416.98C1046.58 416.713 1045.84 416.453 1045.27 416.2C1044.71 415.933 1044.22 415.54 1043.81 415.02C1043.41 414.487 1043.21 413.78 1043.21 412.9C1043.21 412.073 1043.42 411.353 1043.83 410.74C1044.24 410.127 1044.82 409.66 1045.57 409.34C1046.32 409.007 1047.17 408.84 1048.13 408.84C1049.57 408.84 1050.74 409.193 1051.63 409.9C1052.54 410.593 1053.04 411.567 1053.13 412.82H1050.05C1050.02 412.34 1049.82 411.947 1049.43 411.64C1049.06 411.32 1048.56 411.16 1047.93 411.16C1047.38 411.16 1046.94 411.3 1046.61 411.58C1046.29 411.86 1046.13 412.267 1046.13 412.8C1046.13 413.173 1046.25 413.487 1046.49 413.74C1046.74 413.98 1047.05 414.18 1047.41 414.34C1047.78 414.487 1048.3 414.66 1048.97 414.86C1049.88 415.127 1050.62 415.393 1051.19 415.66C1051.76 415.927 1052.26 416.327 1052.67 416.86C1053.08 417.393 1053.29 418.093 1053.29 418.96C1053.29 419.707 1053.1 420.4 1052.71 421.04C1052.32 421.68 1051.76 422.193 1051.01 422.58C1050.26 422.953 1049.38 423.14 1048.35 423.14ZM1062.2 423.14C1060.89 423.14 1059.69 422.833 1058.6 422.22C1057.5 421.607 1056.64 420.76 1056 419.68C1055.36 418.587 1055.04 417.353 1055.04 415.98C1055.04 414.62 1055.36 413.4 1056 412.32C1056.64 411.227 1057.5 410.373 1058.6 409.76C1059.69 409.147 1060.89 408.84 1062.2 408.84C1063.52 408.84 1064.72 409.147 1065.8 409.76C1066.89 410.373 1067.75 411.227 1068.38 412.32C1069.02 413.4 1069.34 414.62 1069.34 415.98C1069.34 417.353 1069.02 418.587 1068.38 419.68C1067.75 420.76 1066.89 421.607 1065.8 422.22C1064.7 422.833 1063.5 423.14 1062.2 423.14ZM1062.2 420.64C1063.04 420.64 1063.78 420.453 1064.42 420.08C1065.06 419.693 1065.56 419.147 1065.92 418.44C1066.28 417.733 1066.46 416.913 1066.46 415.98C1066.46 415.047 1066.28 414.233 1065.92 413.54C1065.56 412.833 1065.06 412.293 1064.42 411.92C1063.78 411.547 1063.04 411.36 1062.2 411.36C1061.36 411.36 1060.61 411.547 1059.96 411.92C1059.32 412.293 1058.82 412.833 1058.46 413.54C1058.1 414.233 1057.92 415.047 1057.92 415.98C1057.92 416.913 1058.1 417.733 1058.46 418.44C1058.82 419.147 1059.32 419.693 1059.96 420.08C1060.61 420.453 1061.36 420.64 1062.2 420.64ZM1074.22 420.78H1078.82V423H1071.42V409.04H1074.22V420.78ZM1083.36 409.04V417.68C1083.36 418.627 1083.61 419.353 1084.1 419.86C1084.59 420.353 1085.29 420.6 1086.18 420.6C1087.09 420.6 1087.79 420.353 1088.28 419.86C1088.77 419.353 1089.02 418.627 1089.02 417.68V409.04H1091.84V417.66C1091.84 418.847 1091.58 419.853 1091.06 420.68C1090.55 421.493 1089.87 422.107 1089 422.52C1088.15 422.933 1087.19 423.14 1086.14 423.14C1085.1 423.14 1084.15 422.933 1083.3 422.52C1082.46 422.107 1081.79 421.493 1081.3 420.68C1080.81 419.853 1080.56 418.847 1080.56 417.66V409.04H1083.36ZM1104.04 409.04V411.3H1100.32V423H1097.52V411.3H1093.8V409.04H1104.04ZM1108.89 409.04V423H1106.09V409.04H1108.89ZM1118.13 423.14C1116.83 423.14 1115.63 422.833 1114.53 422.22C1113.44 421.607 1112.57 420.76 1111.93 419.68C1111.29 418.587 1110.97 417.353 1110.97 415.98C1110.97 414.62 1111.29 413.4 1111.93 412.32C1112.57 411.227 1113.44 410.373 1114.53 409.76C1115.63 409.147 1116.83 408.84 1118.13 408.84C1119.45 408.84 1120.65 409.147 1121.73 409.76C1122.83 410.373 1123.69 411.227 1124.31 412.32C1124.95 413.4 1125.27 414.62 1125.27 415.98C1125.27 417.353 1124.95 418.587 1124.31 419.68C1123.69 420.76 1122.83 421.607 1121.73 422.22C1120.64 422.833 1119.44 423.14 1118.13 423.14ZM1118.13 420.64C1118.97 420.64 1119.71 420.453 1120.35 420.08C1120.99 419.693 1121.49 419.147 1121.85 418.44C1122.21 417.733 1122.39 416.913 1122.39 415.98C1122.39 415.047 1122.21 414.233 1121.85 413.54C1121.49 412.833 1120.99 412.293 1120.35 411.92C1119.71 411.547 1118.97 411.36 1118.13 411.36C1117.29 411.36 1116.55 411.547 1115.89 411.92C1115.25 412.293 1114.75 412.833 1114.39 413.54C1114.03 414.233 1113.85 415.047 1113.85 415.98C1113.85 416.913 1114.03 417.733 1114.39 418.44C1114.75 419.147 1115.25 419.693 1115.89 420.08C1116.55 420.453 1117.29 420.64 1118.13 420.64ZM1139.3 423H1136.5L1130.16 413.42V423H1127.36V409.02H1130.16L1136.5 418.62V409.02H1139.3V423ZM1146.88 423.14C1145.91 423.14 1145.03 422.973 1144.24 422.64C1143.47 422.307 1142.86 421.827 1142.4 421.2C1141.95 420.573 1141.72 419.833 1141.7 418.98H1144.7C1144.74 419.553 1144.94 420.007 1145.3 420.34C1145.68 420.673 1146.18 420.84 1146.82 420.84C1147.48 420.84 1147.99 420.687 1148.36 420.38C1148.74 420.06 1148.92 419.647 1148.92 419.14C1148.92 418.727 1148.8 418.387 1148.54 418.12C1148.29 417.853 1147.97 417.647 1147.58 417.5C1147.21 417.34 1146.69 417.167 1146.02 416.98C1145.12 416.713 1144.38 416.453 1143.8 416.2C1143.24 415.933 1142.76 415.54 1142.34 415.02C1141.94 414.487 1141.74 413.78 1141.74 412.9C1141.74 412.073 1141.95 411.353 1142.36 410.74C1142.78 410.127 1143.36 409.66 1144.1 409.34C1144.85 409.007 1145.7 408.84 1146.66 408.84C1148.1 408.84 1149.27 409.193 1150.16 409.9C1151.07 410.593 1151.57 411.567 1151.66 412.82H1148.58C1148.56 412.34 1148.35 411.947 1147.96 411.64C1147.59 411.32 1147.09 411.16 1146.46 411.16C1145.92 411.16 1145.48 411.3 1145.14 411.58C1144.82 411.86 1144.66 412.267 1144.66 412.8C1144.66 413.173 1144.78 413.487 1145.02 413.74C1145.28 413.98 1145.58 414.18 1145.94 414.34C1146.32 414.487 1146.84 414.66 1147.5 414.86C1148.41 415.127 1149.15 415.393 1149.72 415.66C1150.3 415.927 1150.79 416.327 1151.2 416.86C1151.62 417.393 1151.82 418.093 1151.82 418.96C1151.82 419.707 1151.63 420.4 1151.24 421.04C1150.86 421.68 1150.29 422.193 1149.54 422.58C1148.8 422.953 1147.91 423.14 1146.88 423.14Z" fill="black"/>
<rect x="207" y="288" width="78" height="78" rx="14" stroke="#0D0D0D" stroke-width="2"/>
<path d="M252.429 325.857H239.571V324.429H252.429V325.857ZM241.714 315.857C241.714 313.494 243.636 311.571 246 311.571C248.364 311.571 250.286 313.494 250.286 315.857C250.286 318.221 248.364 320.143 246 320.143C243.636 320.143 241.714 318.221 241.714 315.857ZM246.714 316.571V317.286H244.571C244.177 317.286 243.857 317.606 243.857 318C243.857 318.394 244.177 318.714 244.571 318.714H245.286C245.286 319.109 245.606 319.429 246 319.429C246.394 319.429 246.714 319.109 246.714 318.714C247.502 318.714 248.143 318.074 248.143 317.286V316.571C248.143 315.784 247.502 315.143 246.714 315.143H245.286V314.429H247.429C247.824 314.429 248.143 314.109 248.143 313.714C248.143 313.32 247.824 313 247.429 313H246.714C246.714 312.606 246.394 312.286 246 312.286C245.606 312.286 245.286 312.606 245.286 313C244.498 313 243.857 313.641 243.857 314.429V315.143C243.857 315.931 244.498 316.571 245.286 316.571H246.714ZM256.746 325.53L256.267 325.411L256.387 325.889L256.746 325.53ZM226 330.143V309.429C226 308.641 226.641 308 227.429 308H264.571C265.359 308 266 308.641 266 309.429V330.143H226ZM254.593 324.602L255.307 327.459C255.369 327.709 255.561 327.906 255.809 327.974C255.872 327.991 255.936 328 256 328C256.187 328 256.369 327.926 256.505 327.791L257.071 327.224L258.352 328.505C258.491 328.644 258.674 328.714 258.857 328.714C259.04 328.714 259.223 328.644 259.362 328.505C259.641 328.226 259.641 327.774 259.362 327.495L258.081 326.214L258.648 325.648C258.83 325.466 258.9 325.2 258.831 324.952C258.762 324.704 258.566 324.512 258.316 324.45L255.459 323.736C255.217 323.676 254.958 323.746 254.781 323.924C254.604 324.101 254.531 324.359 254.593 324.602ZM240.286 315.857C240.286 319.008 242.849 321.571 246 321.571C249.151 321.571 251.714 319.008 251.714 315.857C251.714 312.706 249.151 310.143 246 310.143C242.849 310.143 240.286 312.706 240.286 315.857ZM238.143 326.571C238.143 326.966 238.463 327.286 238.857 327.286H253.143C253.538 327.286 253.857 326.966 253.857 326.571V323.714C253.857 323.32 253.538 323 253.143 323H238.857C238.463 323 238.143 323.32 238.143 323.714V326.571ZM266 331.571V334.429C266 335.216 265.359 335.857 264.571 335.857H249.134L250.801 340.857H254.571C255.359 340.857 256 341.498 256 342.286V343.714C256 344.502 255.359 345.143 254.571 345.143H237.429C236.641 345.143 236 344.502 236 343.714V342.286C236 341.498 236.641 340.857 237.429 340.857H241.199L242.866 335.857H227.429C226.641 335.857 226 335.216 226 334.429V331.571H266ZM246.714 333.714C246.714 333.32 246.394 333 246 333C245.606 333 245.286 333.32 245.286 333.714C245.286 334.109 245.606 334.429 246 334.429C246.394 334.429 246.714 334.109 246.714 333.714Z" fill="#0D0D0D"/>
<rect x="576" y="288" width="78" height="78" rx="14" stroke="#0D0D0D" stroke-width="2"/>
<path fill-rule="evenodd" clip-rule="evenodd" d="M611.253 337.053V340.635C611.255 340.71 611.242 340.785 611.215 340.855C611.187 340.925 611.146 340.989 611.094 341.043C611.041 341.097 610.979 341.139 610.909 341.169C610.84 341.198 610.765 341.213 610.69 341.213H607.027C606.891 341.704 606.582 342.128 606.156 342.408C605.731 342.688 605.219 342.805 604.714 342.736C604.21 342.667 603.747 342.418 603.412 342.035C603.078 341.651 602.893 341.159 602.893 340.65C602.893 340.141 603.078 339.649 603.412 339.265C603.747 338.882 604.21 338.632 604.714 338.564C605.219 338.495 605.731 338.611 606.156 338.891C606.582 339.171 606.891 339.596 607.027 340.087H610.132V337.043L611.253 337.053ZM607.89 316.886H623.11C623.375 316.882 623.639 316.93 623.886 317.029C624.133 317.127 624.357 317.274 624.546 317.461C624.735 317.648 624.885 317.87 624.987 318.116C625.089 318.361 625.14 318.625 625.139 318.89V334.11C625.144 334.378 625.095 334.644 624.994 334.893C624.894 335.141 624.745 335.367 624.555 335.556C624.366 335.745 624.14 335.895 623.892 335.995C623.644 336.095 623.378 336.144 623.11 336.14H607.89C607.624 336.141 607.361 336.089 607.115 335.988C606.87 335.886 606.647 335.736 606.461 335.547C606.274 335.358 606.127 335.133 606.028 334.887C605.929 334.64 605.881 334.376 605.886 334.11V318.89C605.884 318.627 605.935 318.366 606.036 318.122C606.136 317.878 606.283 317.657 606.47 317.47C606.656 317.284 606.877 317.136 607.121 317.036C607.365 316.936 607.626 316.885 607.89 316.886ZM609.259 320.26V332.741H621.74V320.26H609.259ZM608.133 333.304C608.133 333.453 608.193 333.596 608.298 333.702C608.404 333.807 608.547 333.867 608.696 333.867H622.303C622.452 333.867 622.596 333.807 622.701 333.702C622.807 333.596 622.866 333.453 622.866 333.304V319.697C622.866 319.548 622.807 319.404 622.701 319.299C622.596 319.193 622.452 319.134 622.303 319.134H608.696C608.547 319.134 608.404 319.193 608.298 319.299C608.193 319.404 608.133 319.548 608.133 319.697V333.304ZM631.734 337.002C631.734 337.394 631.625 337.779 631.418 338.112C631.211 338.445 630.915 338.714 630.564 338.888C630.213 339.062 629.82 339.135 629.429 339.097C629.039 339.06 628.667 338.915 628.355 338.677C628.042 338.44 627.803 338.12 627.663 337.754C627.522 337.388 627.487 336.99 627.561 336.605C627.635 336.219 627.815 335.863 628.081 335.574C628.347 335.286 628.688 335.078 629.066 334.973V331.868H626.022V330.747H629.604C629.681 330.74 629.759 330.75 629.833 330.776C629.907 330.801 629.974 330.842 630.032 330.895C630.089 330.948 630.135 331.012 630.166 331.083C630.197 331.155 630.213 331.232 630.212 331.31V334.973C630.652 335.1 631.038 335.367 631.312 335.733C631.587 336.099 631.735 336.545 631.734 337.002ZM634.55 306.105C634.552 306.563 634.404 307.009 634.129 307.375C633.854 307.741 633.468 308.008 633.028 308.135V321.691C633.028 321.84 632.969 321.983 632.863 322.089C632.758 322.195 632.614 322.254 632.465 322.254H626.052V321.133H631.882V308.135C631.504 308.03 631.163 307.822 630.897 307.533C630.631 307.245 630.451 306.888 630.377 306.503C630.303 306.118 630.338 305.72 630.478 305.354C630.618 304.987 630.858 304.668 631.17 304.43C631.482 304.193 631.855 304.047 632.245 304.01C632.635 303.973 633.028 304.045 633.38 304.22C633.731 304.394 634.027 304.663 634.234 304.996C634.44 305.329 634.55 305.713 634.55 306.105ZM638 326.5C638.001 327.01 637.816 327.502 637.481 327.886C637.146 328.27 636.684 328.52 636.179 328.589C635.674 328.657 635.161 328.541 634.736 328.26C634.31 327.98 634.001 327.555 633.865 327.063H626.052V325.937H633.865C634.001 325.446 634.31 325.021 634.736 324.74C635.161 324.46 635.674 324.343 636.179 324.412C636.684 324.481 637.146 324.73 637.481 325.114C637.816 325.498 638.001 325.991 638 326.5ZM635.895 345.551C636.287 345.551 636.671 345.441 637.004 345.234C637.337 345.027 637.606 344.732 637.78 344.38C637.955 344.029 638.027 343.636 637.99 343.246C637.953 342.855 637.807 342.483 637.57 342.171C637.332 341.859 637.013 341.619 636.646 341.479C636.28 341.339 635.882 341.304 635.497 341.378C635.112 341.452 634.755 341.632 634.467 341.897C634.178 342.163 633.97 342.504 633.865 342.882H620.867V337.053H619.746V343.445C619.746 343.595 619.805 343.738 619.911 343.843C620.017 343.949 620.16 344.008 620.309 344.008H633.865C633.992 344.448 634.259 344.835 634.625 345.109C634.991 345.384 635.437 345.532 635.895 345.53V345.551ZM615.5 304C616.009 303.999 616.502 304.184 616.886 304.519C617.27 304.854 617.519 305.316 617.588 305.821C617.657 306.326 617.54 306.839 617.26 307.264C616.979 307.69 616.554 307.999 616.063 308.135V315.948H614.937V308.135C614.445 307.999 614.02 307.69 613.74 307.264C613.459 306.839 613.343 306.326 613.411 305.821C613.48 305.316 613.73 304.854 614.114 304.519C614.498 304.184 614.99 303.999 615.5 304ZM610.132 315.948V310.118H597.134C596.998 310.609 596.689 311.034 596.263 311.314C595.838 311.594 595.326 311.71 594.821 311.641C594.317 311.573 593.854 311.324 593.519 310.94C593.185 310.556 593 310.064 593 309.555C593 309.046 593.185 308.554 593.519 308.171C593.854 307.787 594.317 307.538 594.821 307.469C595.326 307.4 595.838 307.517 596.263 307.797C596.689 308.077 596.998 308.502 597.134 308.992H610.69C610.764 308.992 610.837 309.007 610.906 309.035C610.974 309.063 611.036 309.105 611.088 309.157C611.141 309.209 611.182 309.271 611.21 309.34C611.239 309.408 611.253 309.481 611.253 309.555V315.948H610.132ZM619.746 315.948H620.867V312.929H623.972C624.108 313.42 624.418 313.844 624.843 314.124C625.268 314.404 625.781 314.521 626.285 314.452C626.79 314.383 627.252 314.134 627.587 313.751C627.922 313.367 628.106 312.875 628.106 312.366C628.106 311.857 627.922 311.365 627.587 310.981C627.252 310.598 626.79 310.349 626.285 310.28C625.781 310.211 625.268 310.327 624.843 310.608C624.418 310.888 624.108 311.312 623.972 311.803H620.309C620.16 311.803 620.017 311.862 619.911 311.968C619.805 312.073 619.746 312.217 619.746 312.366V315.948ZM604.947 322.254V321.133H601.928V318.028C602.419 317.892 602.844 317.582 603.124 317.157C603.404 316.732 603.52 316.219 603.452 315.715C603.383 315.21 603.134 314.748 602.75 314.413C602.366 314.078 601.875 313.894 601.365 313.894C600.856 313.894 600.364 314.078 599.981 314.413C599.597 314.748 599.348 315.21 599.279 315.715C599.21 316.219 599.327 316.732 599.607 317.157C599.887 317.582 600.312 317.892 600.802 318.028V321.691C600.802 321.84 600.862 321.983 600.967 322.089C601.073 322.195 601.216 322.254 601.365 322.254H604.947ZM604.947 331.868V330.747H598.555C598.405 330.747 598.262 330.806 598.157 330.912C598.051 331.017 597.992 331.16 597.992 331.31V344.866C597.501 345.002 597.076 345.311 596.796 345.737C596.516 346.162 596.4 346.674 596.469 347.179C596.537 347.683 596.786 348.146 597.17 348.481C597.554 348.815 598.046 349 598.555 349C599.064 349 599.556 348.815 599.939 348.481C600.323 348.146 600.572 347.683 600.641 347.179C600.71 346.674 600.593 346.162 600.313 345.737C600.033 345.311 599.608 345.002 599.118 344.866V331.868H604.947ZM604.947 327.063H597.134C596.998 327.554 596.689 327.979 596.263 328.259C595.838 328.539 595.326 328.655 594.821 328.586C594.317 328.518 593.854 328.269 593.519 327.885C593.185 327.501 593 327.009 593 326.5C593 325.991 593.185 325.499 593.519 325.116C593.854 324.732 594.317 324.483 594.821 324.414C595.326 324.345 595.838 324.462 596.263 324.742C596.689 325.022 596.998 325.447 597.134 325.937H604.947V327.063ZM616.063 337.053V344.866C616.553 345.002 616.978 345.311 617.258 345.737C617.538 346.162 617.655 346.674 617.586 347.179C617.517 347.683 617.268 348.146 616.884 348.481C616.501 348.815 616.009 349 615.5 349C614.991 349 614.499 348.815 614.115 348.481C613.731 348.146 613.482 347.683 613.414 347.179C613.345 346.674 613.461 346.162 613.741 345.737C614.021 345.311 614.446 345.002 614.937 344.866V337.053H616.063Z" fill="black"/>
<rect x="966" y="288" width="78" height="78" rx="14" stroke="#0D0D0D" stroke-width="2"/>
<path d="M1021.05 322.154V314H991.356V323.8H983V340.877H1006.76V336.345H1016.43V340.374H1028V322.155L1021.05 322.154ZM1009.16 316.109V316.891H1003.24V316.109H1009.16ZM993.466 316.109H1001.14V319.001H1011.27V316.109H1018.94V322.154H1016.43V330.311H1006.76V323.8H993.466L993.466 316.109ZM1004.65 338.768H985.109V325.909H1004.65V338.768ZM1006.76 334.236V332.418L1016.43 332.42V334.238L1006.76 334.236ZM1025.89 338.263H1018.54V324.264H1025.89V338.263Z" fill="black"/>
<path d="M992.375 335.643H997.358V337.752H992.375V335.643Z" fill="black"/>
<path d="M1020.48 335.037H1023.96V337.146H1020.48V335.037Z" fill="black"/>
<defs>
<filter id="filter0_ii_1819_5346" x="62" y="-2" width="84" height="84" filterUnits="userSpaceOnUse" color-interpolation-filters="sRGB">
<feFlood flood-opacity="0" result="BackgroundImageFix"/>
<feBlend mode="normal" in="SourceGraphic" in2="BackgroundImageFix" result="shape"/>
<feColorMatrix in="SourceAlpha" type="matrix" values="0 0 0 0 0 0 0 0 0 0 0 0 0 0 0 0 0 0 127 0" result="hardAlpha"/>
<feOffset dx="2" dy="2"/>
<feGaussianBlur stdDeviation="2"/>
<feComposite in2="hardAlpha" operator="arithmetic" k2="-1" k3="1"/>
<feColorMatrix type="matrix" values="0 0 0 0 0 0 0 0 0 0 0 0 0 0 0 0 0 0 0.25 0"/>
<feBlend mode="normal" in2="shape" result="effect1_innerShadow_1819_5346"/>
<feColorMatrix in="SourceAlpha" type="matrix" values="0 0 0 0 0 0 0 0 0 0 0 0 0 0 0 0 0 0 127 0" result="hardAlpha"/>
<feOffset dx="-2" dy="-2"/>
<feGaussianBlur stdDeviation="2"/>
<feComposite in2="hardAlpha" operator="arithmetic" k2="-1" k3="1"/>
<feColorMatrix type="matrix" values="0 0 0 0 1 0 0 0 0 1 0 0 0 0 1 0 0 0 0.25 0"/>
<feBlend mode="normal" in2="effect1_innerShadow_1819_5346" result="effect2_innerShadow_1819_5346"/>
</filter>
</defs>
</svg>
