<svg width="40" height="40" viewBox="0 0 40 40" fill="none" xmlns="http://www.w3.org/2000/svg">
<path d="M11.3359 25.8635H13.9177L12.6359 22.1621L11.3359 25.8635Z" fill="#FBFBFB"/>
<path d="M20 0C8.95436 0 0 8.95436 0 20C0 31.0456 8.95436 39.9997 20 39.9997C31.0456 39.9997 40 31.0456 40 20C40 8.95436 31.0456 0 20 0ZM16.0788 31.0366L14.7969 27.931H10.5365L9.20046 31.0366H6.74513L11.7458 18.9947H13.497L18.5519 31.0366H16.0788ZM21.8551 31.0366H19.6167V18.9947H21.8551V31.0366ZM20.4914 2.66729C29.8436 2.92806 37.3454 10.5856 37.3454 20C37.3454 20.0426 37.3426 20.0849 37.3415 20.1278C28.4768 18.7884 21.5243 11.6296 20.4914 2.66729Z" fill="#FBFBFB"/>
</svg>
