<svg width="35" height="40" viewBox="0 0 35 40" fill="none" xmlns="http://www.w3.org/2000/svg">
<path d="M34.4214 8.33921C34.618 8.43485 34.7858 8.5936 34.8911 8.80422C34.8961 8.81427 34.901 8.82435 34.9056 8.83448C34.9158 8.85667 34.9253 8.87924 34.9339 8.90217C34.9814 9.02826 35.0024 9.15777 34.9998 9.2853V16.4704C34.9998 17.0389 34.5389 17.4998 33.9704 17.4998C33.4019 17.4998 32.941 17.0389 32.941 16.4704V10.9302L28.2543 13.2735C27.7458 13.5278 27.1275 13.3216 26.8733 12.8131C26.619 12.3046 26.8251 11.6863 27.3336 11.4321L31.6686 9.26459L27.3336 7.09711C26.8251 6.84286 26.619 6.22453 26.8733 5.71603C27.1275 5.20753 27.7458 5.00142 28.2543 5.25567L34.4214 8.33921ZM34.9998 29.8318C35.0029 29.983 34.9728 30.1369 34.9056 30.2827C34.8552 30.3923 34.7858 30.4925 34.7004 30.5784C34.6137 30.6645 34.5213 30.7294 34.4214 30.7779L28.2543 33.8615C27.7458 34.1157 27.1275 33.9096 26.8733 33.4011C26.619 32.8926 26.8251 32.2743 27.3336 32.02L31.6686 29.8526L27.3336 27.6851C26.8251 27.4308 26.619 26.8125 26.8733 26.304C27.1275 25.7955 27.7458 25.5894 28.2543 25.8436L32.941 28.187V22.6468C32.941 22.0782 33.4019 21.6174 33.9704 21.6174C34.5389 21.6174 34.9998 22.0782 34.9998 22.6468V29.8318ZM3.33143 29.8526L7.66638 32.02C8.17488 32.2743 8.38099 32.8926 8.12674 33.4011C7.87249 33.9096 7.25415 34.1157 6.74565 33.8615L0.578564 30.7779C0.381997 30.6823 0.214216 30.5235 0.108902 30.3129C0.103881 30.3029 0.0990396 30.2928 0.0943765 30.2827C0.0841665 30.2605 0.0747362 30.2379 0.0661106 30.215C0.0186184 30.0889 -0.00244849 29.9594 0.000225495 29.8318V22.6468C0.000225495 22.0782 0.461103 21.6174 1.02962 21.6174C1.59815 21.6174 2.05902 22.0782 2.05902 22.6468V28.187L6.74565 25.8436C7.25415 25.5894 7.87249 25.7955 8.12674 26.304C8.38099 26.8125 8.17488 27.4308 7.66638 27.6851L3.33143 29.8526ZM2.05902 10.9302V16.4704C2.05902 17.0389 1.59815 17.4998 1.02962 17.4998C0.461103 17.4998 0.000225495 17.0389 0.000225495 16.4704V9.2853C-0.00294338 9.13416 0.0272295 8.98026 0.0943765 8.83448C0.144796 8.72488 0.214225 8.62467 0.299631 8.53876C0.386307 8.45265 0.478722 8.38779 0.578564 8.33921L6.74565 5.25567C7.25415 5.00142 7.87249 5.20753 8.12674 5.71603C8.38099 6.22453 8.17488 6.84286 7.66638 7.09711L3.33143 9.26459L7.66638 11.4321C8.17488 11.6863 8.38099 12.3046 8.12674 12.8131C7.87249 13.3216 7.25415 13.5278 6.74565 13.2735L2.05902 10.9302ZM17.0211 0.117938C17.1642 0.0426243 17.3271 0 17.5 0C17.6729 0 17.8358 0.0426243 17.9789 0.117938L24.1368 3.19687C24.6453 3.45112 24.8514 4.06945 24.5971 4.57795C24.3429 5.08645 23.7245 5.29257 23.216 5.03832L18.5294 2.695V8.23519C18.5294 8.80371 18.0685 9.26459 17.5 9.26459C16.9315 9.26459 16.4706 8.80371 16.4706 8.23519V2.695L11.784 5.03832C11.2755 5.29257 10.6571 5.08645 10.4029 4.57795C10.1486 4.06945 10.3547 3.45112 10.8632 3.19687L17.0211 0.117938ZM17.9789 38.9992C17.8358 39.0745 17.6729 39.1171 17.5 39.1171C17.3271 39.1171 17.1642 39.0745 17.0211 38.9992L10.8632 35.9203C10.3547 35.666 10.1486 35.0477 10.4029 34.5392C10.6571 34.0307 11.2755 33.8246 11.784 34.0788L16.4706 36.4221V30.882C16.4706 30.3134 16.9315 29.8526 17.5 29.8526C18.0685 29.8526 18.5294 30.3134 18.5294 30.882V36.4221L23.216 34.0788C23.7245 33.8246 24.3429 34.0307 24.5971 34.5392C24.8514 35.0477 24.6453 35.666 24.1368 35.9203L17.9789 38.9992ZM18.5294 18.136V23.6762C18.5294 24.2447 18.0685 24.7056 17.5 24.7056C16.9315 24.7056 16.4706 24.2447 16.4706 23.6762V18.136L10.8632 15.3323C10.3547 15.078 10.1486 14.4597 10.4029 13.9512C10.6571 13.4427 11.2755 13.2366 11.784 13.4909L17.5 16.3489L23.216 13.4909C23.7245 13.2366 24.3429 13.4427 24.5971 13.9512C24.8514 14.4597 24.6453 15.078 24.1368 15.3323L18.5294 18.136Z" fill="#FBFBFB"/>
</svg>
