<svg width="35" height="31" viewBox="0 0 35 31" fill="none" xmlns="http://www.w3.org/2000/svg">
<path d="M35 4.39555V19.5437C34.9989 20.7092 34.5345 21.8265 33.7088 22.6506C32.8832 23.4747 31.7636 23.9382 30.5959 23.9393H16.0609V15.4097C16.0586 14.0119 15.5013 12.672 14.511 11.6836C13.5207 10.6952 12.1782 10.139 10.7777 10.1368H3.72358V4.39555C3.7247 3.23012 4.18906 2.11274 5.01474 1.28866C5.84042 0.464576 6.95996 0.00111685 8.12764 0H30.5959C31.7636 0.00111685 32.8832 0.464576 33.7088 1.28866C34.5345 2.11274 34.9989 3.23012 35 4.39555ZM27.2443 26.0485H16.0609V27.5629C16.06 28.705 15.686 29.8157 14.9958 30.7266H32.2866V28.6174H28.508L27.2443 26.0485ZM13.9476 15.4097V27.5629C13.9476 28.4019 13.6136 29.2067 13.0191 29.8C12.4247 30.3933 11.6184 30.7266 10.7777 30.7266H3.16991C2.3292 30.7266 1.52292 30.3933 0.928444 29.8C0.333971 29.2067 0 28.4019 0 27.5629V15.4097C0 14.5706 0.333971 13.7659 0.928444 13.1726C1.52292 12.5793 2.3292 12.2459 3.16991 12.2459H10.7777C11.6184 12.2459 12.4247 12.5793 13.0191 13.1726C13.6136 13.7659 13.9476 14.5706 13.9476 15.4097ZM8.77853 25.3862H5.15638V27.4954H8.77853V25.3862Z" fill="#FBFBFB"/>
</svg>
