<svg width="40" height="39" viewBox="0 0 40 39" fill="none" xmlns="http://www.w3.org/2000/svg">
<path fill-rule="evenodd" clip-rule="evenodd" d="M29.0906 14.6088V12.8417C29.0906 11.0643 30.5365 9.61895 32.3134 9.61895C34.0908 9.61895 35.5361 11.0643 35.5361 12.8417V14.6088C33.5355 15.7604 31.0925 15.7599 29.0906 14.6088ZM30.7321 6.82522C30.7321 5.95184 31.4416 5.24191 32.3134 5.24191C33.1862 5.24191 33.8956 5.95184 33.8956 6.82522C33.8956 7.69856 33.1862 8.40849 32.3134 8.40849C31.4416 8.40849 30.7321 7.69856 30.7321 6.82522ZM25.8403 8.99583C25.8403 10.8498 26.6248 12.525 27.8786 13.7048V12.8417C27.8786 11.0848 28.9052 9.56787 30.3884 8.84772C29.8547 8.33698 29.5202 7.62196 29.5202 6.82522C29.5202 5.28278 30.7735 4.03148 32.3134 4.03148C33.8543 4.03148 35.1081 5.28278 35.1081 6.82522C35.1081 7.62196 34.7736 8.33698 34.2394 8.84772C35.7231 9.56787 36.7481 11.0848 36.7481 12.8417V13.7048C38.0025 12.525 38.788 10.8498 38.788 8.99583C38.788 5.42578 35.8835 2.52479 32.3134 2.52479C28.7444 2.52479 25.8403 5.42578 25.8403 8.99583ZM30.7526 27.0045C30.2709 27.2803 29.6535 27.1168 29.3761 26.6367C28.9872 25.964 29.4786 25.1249 30.2464 25.1249C31.2738 25.1249 31.6398 26.4953 30.7526 27.0045ZM20 18.5109C18.6746 18.5109 17.597 17.4332 17.597 16.1053C17.597 14.7825 18.6746 13.7048 20 13.7048C21.3254 13.7048 22.403 14.7825 22.403 16.1053C22.403 17.4332 21.3254 18.5109 20 18.5109ZM26.4741 30.3243C26.4741 32.1782 25.6891 33.8535 24.4347 35.0333V34.1701C24.4347 32.4132 23.4087 30.8963 21.925 30.1762C22.4597 29.6654 22.7937 28.9504 22.7937 28.1536C22.7937 26.6112 21.5404 25.3599 20 25.3599C18.4596 25.3599 17.2063 26.6112 17.2063 28.1536C17.2063 28.9504 17.5403 29.6654 18.075 30.1762C16.5908 30.8912 15.5653 32.4132 15.5653 34.1701V35.0333C14.3114 33.8535 13.5259 32.1782 13.5259 30.3243C13.5259 26.7542 16.4299 23.8532 20 23.8532C23.5701 23.8532 26.4741 26.7542 26.4741 30.3243ZM18.4187 28.1536C18.4187 29.027 19.1282 29.7369 20 29.7369C20.8718 29.7369 21.5813 29.027 21.5813 28.1536C21.5813 27.2803 20.8718 26.5704 20 26.5704C19.1282 26.5704 18.4187 27.2803 18.4187 28.1536ZM16.7772 35.9373C18.7773 37.0885 21.2227 37.0884 23.2228 35.9373V34.1701C23.2228 32.3927 21.7769 30.9474 20 30.9474C18.2232 30.9474 16.7772 32.3927 16.7772 34.1701V35.9373ZM5.18554 19.9716C5.18554 19.4149 5.63806 18.9603 6.19321 18.9603C6.74839 18.9603 7.2009 19.4149 7.2009 19.9716C7.2009 20.5232 6.74839 20.9778 6.19321 20.9778C5.63806 20.9778 5.18554 20.5232 5.18554 19.9716ZM12.1214 13.7048V12.8417C12.1214 11.0848 11.0948 9.56787 9.6116 8.84772C10.1463 8.33698 10.4798 7.62196 10.4798 6.82522C10.4798 5.28278 9.2265 4.03148 7.68663 4.03148C6.14572 4.03148 4.89237 5.28278 4.89237 6.82522C4.89237 7.62196 5.22638 8.33698 5.76113 8.84772C4.27745 9.56787 3.25136 11.0848 3.25136 12.8417V13.7048C1.9975 12.525 1.21199 10.8498 1.21199 8.99583C1.21199 5.42578 4.11655 2.52479 7.68663 2.52479C11.2556 2.52479 14.1597 5.42578 14.1597 8.99583C14.1597 10.8498 13.3752 12.525 12.1214 13.7048ZM6.10436 6.82522C6.10436 7.69856 6.81377 8.40849 7.68663 8.40849C8.55844 8.40849 9.26787 7.69856 9.26787 6.82522C9.26787 5.95184 8.55844 5.24191 7.68663 5.24191C6.81377 5.24191 6.10436 5.95184 6.10436 6.82522ZM4.46336 14.6088C6.46495 15.7603 8.9073 15.76 10.9094 14.6088V12.8417C10.9094 11.0643 9.46346 9.61895 7.68663 9.61895C5.90924 9.61895 4.46336 11.0643 4.46336 12.8417V14.6088ZM22.686 1.71272C22.9729 1.22354 23.5875 1.07343 24.0624 1.34499C24.543 1.62588 24.7085 2.23877 24.4307 2.72396C23.9879 3.49313 22.819 3.34667 22.5859 2.47882C22.5154 2.21835 22.5522 1.94765 22.686 1.71272ZM40 8.99583C40 4.75671 36.552 1.30923 32.3134 1.30923C28.0758 1.30923 24.6278 4.75671 24.6278 8.99583C24.6278 10.1807 24.8964 11.2993 25.3755 12.3054L22.7825 13.8019C21.3358 12.0534 18.6643 12.0526 17.218 13.8019L14.6245 12.3054C15.9451 9.53475 15.4885 6.26953 13.4957 3.97018C15.936 2.66311 18.5909 2.1503 21.3473 2.4022C21.4452 3.56037 22.4066 4.43494 23.5547 4.43494C24.3224 4.43494 25.0701 4.04167 25.4802 3.32665C26.0921 2.26942 25.7279 0.905763 24.6681 0.297965C23.6084 -0.314917 22.2483 0.0477181 21.6364 1.11004C21.617 1.14069 21.5991 1.17645 21.5823 1.20709C18.4207 0.899209 15.3553 1.50602 12.5917 3.0866C11.2597 1.9783 9.54927 1.30923 7.68663 1.30923C3.44801 1.30923 0 4.75671 0 8.99583C0 13.235 3.44801 16.6825 7.68663 16.6825C10.3087 16.6825 12.6285 15.3648 14.0162 13.3524L16.6102 14.8489C15.8219 16.9786 17.172 19.2911 19.3943 19.6703V22.6632C16.3033 22.9032 13.7205 24.9819 12.7388 27.8063C10.4277 26.366 8.58194 24.2669 7.45679 21.7898C8.03391 21.3915 8.41289 20.7224 8.41289 19.9716C8.41289 18.7458 7.41645 17.7499 6.19321 17.7499C4.96949 17.7499 3.97355 18.7458 3.97355 19.9716C3.97355 21.1923 4.96949 22.1882 6.19321 22.1882C6.231 22.1882 6.26829 22.1882 6.3066 22.1831C7.57579 25.0381 9.72446 27.4437 12.4232 29.0321C11.6239 33.713 15.2405 38.0109 20 38.0109C24.2386 38.0109 27.6866 34.5634 27.6866 30.3243C27.6866 26.2894 24.5624 22.9747 20.6062 22.6632V19.6703C22.8279 19.2911 24.1781 16.9786 23.3898 14.8489L25.9838 13.3524C27.6752 15.8051 30.7125 17.1412 33.7618 16.5445C33.6765 19.2974 32.795 21.8971 31.1928 24.1239C30.5575 23.8277 29.7913 23.8328 29.1386 24.2107C28.0794 24.8236 27.7147 26.1822 28.3266 27.2445C28.9429 28.313 30.3064 28.6611 31.3583 28.0566C32.4726 27.4163 32.7959 25.929 32.1101 24.9258C33.9702 22.3772 34.96 19.3791 34.9805 16.2075C37.908 15.1196 40 12.3003 40 8.99583Z" fill="#FBFBFB"/>
</svg>
