<svg width="38" height="41" viewBox="0 0 38 41" fill="none" xmlns="http://www.w3.org/2000/svg">
<path fill-rule="evenodd" clip-rule="evenodd" d="M20.4402 8.06521H17.5642L17.2196 11.0152C17.2047 11.1438 17.1514 11.2649 17.0666 11.3628C16.9818 11.4606 16.8695 11.5306 16.7443 11.5635C16.3718 11.6627 16.0064 11.7866 15.6504 11.9344C15.2935 12.0822 14.9467 12.2533 14.6123 12.4467C14.501 12.5109 14.3729 12.5403 14.2447 12.531C14.1165 12.5217 13.994 12.4743 13.8931 12.3947L11.5635 10.5521L9.52709 12.5885L11.343 14.883C11.4342 14.9839 11.491 15.1112 11.5052 15.2466C11.5195 15.3819 11.4904 15.5182 11.4221 15.6359C11.0395 16.2958 10.745 17.003 10.546 17.7393C10.5177 17.8709 10.4488 17.9903 10.3491 18.0807C10.2494 18.171 10.1239 18.2279 9.99019 18.2432L7.04019 18.5873V21.4634L9.99019 21.808C10.1188 21.8228 10.24 21.8761 10.3378 21.9609C10.4357 22.0457 10.5056 22.1581 10.5385 22.2833C10.7362 23.0302 11.0333 23.7473 11.4216 24.4152C11.4859 24.5266 11.5152 24.6547 11.5059 24.7829C11.4965 24.9111 11.4489 25.0336 11.3692 25.1345L9.52709 27.464L11.5635 29.5005L13.858 27.6846C13.9589 27.5934 14.0862 27.5365 14.2215 27.5223C14.3569 27.5081 14.4932 27.5372 14.6109 27.6054C15.271 27.988 15.9783 28.2825 16.7148 28.4816C16.8463 28.5099 16.9656 28.5788 17.056 28.6785C17.1464 28.7782 17.2033 28.9037 17.2186 29.0374L17.5628 31.9874H20.4388L20.7834 29.0374C20.7982 28.9088 20.8514 28.7877 20.9361 28.6899C21.0209 28.592 21.1331 28.522 21.2583 28.489C21.6306 28.3898 21.996 28.2661 22.3521 28.1187C22.7092 27.9699 23.0561 27.7978 23.3907 27.6036C23.502 27.5393 23.6301 27.51 23.7583 27.5194C23.8866 27.5287 24.009 27.5763 24.1099 27.656L26.4395 29.4981L28.4759 27.4617L26.66 25.1672C26.5688 25.0664 26.512 24.9391 26.4978 24.8039C26.4836 24.6687 26.5127 24.5324 26.5809 24.4148C26.9634 23.7547 27.2579 23.0474 27.457 22.3109C27.4854 22.1794 27.5542 22.06 27.6539 21.9697C27.7536 21.8793 27.8791 21.8224 28.0128 21.8071L30.9628 21.4629V18.5869L28.0128 18.2422C27.8842 18.2274 27.763 18.1742 27.6652 18.0894C27.5674 18.0046 27.4974 17.8922 27.4645 17.767C27.3684 17.4054 27.2492 17.0504 27.1077 16.704C27.1025 16.6937 27.0983 16.6839 27.0936 16.6736C26.946 16.3165 26.7748 15.9695 26.5814 15.635C26.5171 15.5237 26.4877 15.3956 26.497 15.2674C26.5063 15.1392 26.5538 15.0167 26.6333 14.9158L28.4759 12.5862L26.4395 10.5498L24.145 12.3657C24.0441 12.4569 23.9168 12.5137 23.7815 12.5279C23.6461 12.5421 23.5098 12.513 23.3921 12.4448C22.7322 12.0622 22.0251 11.7676 21.2887 11.5687C21.1571 11.5404 21.0378 11.4715 20.9474 11.3718C20.857 11.2721 20.8001 11.1466 20.7848 11.0129L20.4407 8.06287L20.4402 8.06521ZM19.0022 14.0013C20.3956 14.0021 21.7457 14.4861 22.8223 15.3707C23.8989 16.2553 24.6355 17.4859 24.9065 18.8527C25.1776 20.2195 24.9664 21.638 24.3089 22.8665C23.6514 24.0951 22.5883 25.0576 21.3006 25.5902C20.013 26.1228 18.5806 26.1925 17.2473 25.7874C15.9141 25.3823 14.7626 24.5274 13.9889 23.3685C13.2153 22.2095 12.8674 20.8182 13.0046 19.4316C13.1417 18.0449 13.7554 16.7487 14.7411 15.7638C15.3002 15.2037 15.9644 14.7596 16.6957 14.4572C17.427 14.1547 18.2108 13.9998 19.0022 14.0013ZM0 20.0942C0.000608999 16.7658 0.879621 13.4966 2.54824 10.6167C4.69212 6.90533 8.02725 4.02729 12.0124 2.44963C15.9976 0.871962 20.399 0.687248 24.5023 1.92546L25.0712 2.09778L25.6331 0L31.2658 4.99393L23.8903 6.50405L24.5126 4.18198L23.9826 4.01762C20.334 2.88914 16.4103 3.03376 12.8547 4.42777C9.29913 5.82177 6.32266 8.38244 4.41329 11.69C2.98214 14.1665 2.20536 16.9668 2.1562 19.8267C2.10705 22.6866 2.78714 25.512 4.13234 28.0362L2.26682 29.1132C0.779642 26.3393 0.00110883 23.2407 0.000468443 20.0932L0 20.0942ZM11.5392 40.0498L5.90655 35.0558L13.282 33.5467L12.692 35.7475L13.1856 35.9301C16.9125 37.2995 21.0033 37.309 24.7365 35.9568C28.4698 34.6047 31.6056 31.9777 33.5911 28.5391C35.0223 26.0627 35.7991 23.2625 35.8482 20.4026C35.8974 17.5428 35.2173 14.7175 33.8721 12.1933L35.7376 11.1164C37.5502 14.4909 38.3007 18.3343 37.8909 22.1429C37.481 25.9514 35.9299 29.5472 33.4409 32.4588C30.9518 35.3704 27.6411 37.4619 23.9427 38.4591C20.2442 39.4563 16.3308 39.3127 12.7154 38.047L12.131 37.8415L11.5392 40.0498Z" fill="#FBFBFB"/>
</svg>
