<svg width="35" height="35" viewBox="0 0 35 35" fill="none" xmlns="http://www.w3.org/2000/svg">
<path d="M17.5107 9.94141C15.9554 9.94071 14.438 10.4212 13.1676 11.3167C11.8971 12.2122 10.9359 13.4787 10.4164 14.942C9.89692 16.4052 9.84458 17.9931 10.2666 19.4872C10.6886 20.9813 11.5643 22.3082 12.7731 23.2851C12.9035 22.4743 13.2417 21.7108 13.7548 21.0688C14.2679 20.4268 14.9385 19.928 15.7016 19.6209C15.7671 19.5932 15.8374 19.579 15.9085 19.579C15.9796 19.579 16.05 19.5932 16.1154 19.6209C16.5566 19.8123 17.0324 19.911 17.5134 19.911C17.9944 19.911 18.4702 19.8123 18.9114 19.6209C18.9768 19.5932 19.0472 19.579 19.1183 19.579C19.1894 19.579 19.2597 19.5932 19.3252 19.6209C20.0873 19.9288 20.7568 20.4279 21.269 21.0698C21.7811 21.7118 22.1185 22.4748 22.2484 23.2851C23.4572 22.3082 24.3329 20.9813 24.7549 19.4872C25.1769 17.9931 25.1246 16.4052 24.6051 14.942C24.0855 13.4787 23.1244 12.2122 21.8539 11.3167C20.5835 10.4212 19.0661 9.94071 17.5107 9.94141ZM17.5107 18.5195C17.0234 18.5195 16.5471 18.3751 16.142 18.1047C15.737 17.8342 15.4214 17.4499 15.2354 17.0003C15.0494 16.5508 15.0013 16.0562 15.0972 15.5793C15.193 15.1024 15.4285 14.6647 15.7739 14.3215C16.1192 13.9783 16.5588 13.7452 17.037 13.6516C17.5153 13.558 18.0105 13.6081 18.4602 13.7957C18.9098 13.9833 19.2935 14.2998 19.5627 14.7053C19.832 15.1107 19.9745 15.5868 19.9724 16.0732C19.9717 16.3951 19.9075 16.7138 19.7834 17.011C19.6593 17.3081 19.4778 17.578 19.2492 17.8052C19.0206 18.0323 18.7495 18.2123 18.4512 18.3349C18.1529 18.4575 17.8333 18.5202 17.5107 18.5195Z" fill="#FBFBFB"/>
<path d="M33.0182 25.5519C34.3202 23.0519 35 20.2758 35 17.4583C35 14.6407 34.3202 11.8646 33.0182 9.36468L33.2251 9.17935C33.9585 8.44666 34.4578 7.51336 34.6598 6.49747C34.8618 5.48158 34.7575 4.42872 34.36 3.47202C33.9625 2.51532 33.2897 1.69774 32.4266 1.12266C31.5636 0.547584 30.5491 0.240831 29.5114 0.24119C28.8213 0.238914 28.1376 0.373487 27.5001 0.637096C26.8626 0.900704 26.2839 1.2881 25.7976 1.77677C25.7316 1.83992 25.6695 1.90712 25.6119 1.97799C23.1062 0.67844 20.3238 0 17.5 0C14.6762 0 11.8938 0.67844 9.38809 1.97799C9.33045 1.90712 9.26843 1.83992 9.2024 1.77677C8.7147 1.29002 8.13572 0.903903 7.49851 0.640473C6.8613 0.377043 6.17835 0.241457 5.48864 0.241457C4.79893 0.241457 4.11597 0.377043 3.47877 0.640473C2.84156 0.903903 2.26258 1.29002 1.77488 1.77677C1.28718 2.26353 0.900317 2.84139 0.636377 3.47737C0.372437 4.11335 0.236588 4.79498 0.236588 5.48336C0.236588 6.17173 0.372437 6.85337 0.636377 7.48935C0.900317 8.12532 1.28718 8.70318 1.77488 9.18994L1.98179 9.37527C0.679755 11.8752 0 14.6513 0 17.4689C0 20.2864 0.679755 23.0625 1.98179 25.5624L1.77488 25.7478C1.28718 26.2345 0.900317 26.8124 0.636377 27.4484C0.372437 28.0843 0.236588 28.766 0.236588 29.4544C0.236588 30.1427 0.372437 30.8244 0.636377 31.4603C0.900317 32.0963 1.28718 32.6742 1.77488 33.1609C2.26258 33.6477 2.84156 34.0338 3.47877 34.2972C4.11597 34.5607 4.79893 34.6963 5.48864 34.6963C6.17835 34.6963 6.8613 34.5607 7.49851 34.2972C8.13572 34.0338 8.7147 33.6477 9.2024 33.1609C9.27137 33.0921 9.32973 33.0233 9.38809 32.9544C11.891 34.26 14.6732 34.9419 17.4973 34.9419C20.3215 34.9419 23.1037 34.26 25.6066 32.9544C25.6703 33.0233 25.7286 33.0921 25.7976 33.1609C26.2853 33.6477 26.8643 34.0338 27.5015 34.2972C28.1387 34.5607 28.8216 34.6963 29.5114 34.6963C30.2011 34.6963 30.884 34.5607 31.5212 34.2972C32.1584 34.0338 32.7374 33.6477 33.2251 33.1609C33.7128 32.6742 34.0997 32.0963 34.3636 31.4603C34.6276 30.8244 34.7634 30.1427 34.7634 29.4544C34.7634 28.766 34.6276 28.0843 34.3636 27.4484C34.0997 26.8124 33.7128 26.2345 33.2251 25.7478L33.0182 25.5519ZM27.8985 3.84187C28.2175 3.52336 28.624 3.30642 29.0666 3.2185C29.5091 3.13057 29.9679 3.17562 30.3848 3.34792C30.8017 3.52023 31.158 3.81207 31.4087 4.18652C31.6594 4.56097 31.7933 5.00122 31.7933 5.45159C31.7933 5.90195 31.6594 6.3422 31.4087 6.71665C31.158 7.0911 30.8017 7.38294 30.3848 7.55525C29.9679 7.72756 29.5091 7.7726 29.0666 7.68468C28.624 7.59675 28.2175 7.37982 27.8985 7.0613C27.4786 6.63455 27.2433 6.06032 27.2433 5.46218C27.2433 4.86404 27.4786 4.2898 27.8985 3.86305V3.84187ZM3.89172 3.84187C4.32021 3.41634 4.90009 3.17746 5.50455 3.17746C6.10902 3.17746 6.6889 3.41634 7.11739 3.84187C7.54584 4.26879 7.78682 4.8481 7.78732 5.45236C7.78782 6.05662 7.54779 6.63632 7.12004 7.06395C6.69229 7.49158 6.11186 7.73209 5.50643 7.73259C4.901 7.73309 4.32017 7.49352 3.89172 7.0666C3.46375 6.63872 3.22338 6.05883 3.22338 5.45423C3.22338 4.84964 3.46375 4.26975 3.89172 3.84187ZM7.11739 31.027C6.74292 31.3974 6.25124 31.6265 5.72631 31.6753C5.20138 31.7241 4.67577 31.5895 4.23923 31.2945C3.80268 30.9995 3.48229 30.5624 3.33276 30.0578C3.18324 29.5532 3.21385 29.0125 3.41937 28.5279C3.62489 28.0434 3.99258 27.6451 4.45964 27.401C4.9267 27.157 5.46416 27.0823 5.98024 27.1898C6.49632 27.2973 6.95901 27.5802 7.28929 27.9904C7.61958 28.4005 7.79697 28.9123 7.79117 29.4385C7.79127 29.738 7.73176 30.0345 7.61609 30.3108C7.50043 30.5871 7.33091 30.8378 7.11739 31.0482V31.027ZM31.1295 31.027C30.8105 31.3455 30.404 31.5625 29.9614 31.6504C29.5189 31.7383 29.0601 31.6933 28.6432 31.521C28.2263 31.3486 27.87 31.0568 27.6193 30.6824C27.3686 30.3079 27.2348 29.8677 27.2348 29.4173C27.2348 28.9669 27.3686 28.5267 27.6193 28.1522C27.87 27.7778 28.2263 27.4859 28.6432 27.3136C29.0601 27.1413 29.5189 27.0963 29.9614 27.1842C30.404 27.2721 30.8105 27.4891 31.1295 27.8076C31.3451 28.019 31.5163 28.2712 31.6332 28.5494C31.7501 28.8276 31.8103 29.1262 31.8103 29.4279C31.8103 29.7296 31.7501 30.0282 31.6332 30.3064C31.5163 30.5846 31.3451 30.8368 31.1295 31.0482V31.027ZM29.5114 24.2016C28.5893 24.2019 27.6836 24.4449 26.8858 24.9062C26.0879 25.3674 25.4261 26.0306 24.967 26.8287C24.508 27.6268 24.268 28.5317 24.2713 29.452C24.2746 30.3722 24.5211 31.2753 24.9859 32.0701C22.6691 33.2424 20.1081 33.8533 17.5106 33.8533C14.9131 33.8533 12.3521 33.2424 10.0353 32.0701C10.6204 31.0724 10.8575 29.9091 10.7094 28.7625C10.5614 27.6159 10.0367 26.5507 9.21729 25.7335C8.39793 24.9163 7.33023 24.3934 6.18129 24.2465C5.03236 24.0996 3.86706 24.3371 2.86778 24.9217C1.69319 22.6085 1.08109 20.0516 1.08109 17.4583C1.08109 14.8649 1.69319 12.308 2.86778 9.9948C3.67227 10.4656 4.58786 10.7142 5.52047 10.7149C6.91071 10.7121 8.24313 10.1593 9.22569 9.17768C10.2082 8.19603 10.7608 6.86562 10.7622 5.47806C10.7675 4.54717 10.52 3.63224 10.046 2.8305C12.362 1.65576 14.9233 1.04346 17.5212 1.04346C20.1192 1.04346 22.6804 1.65576 24.9965 2.8305C24.5313 3.62491 24.2846 4.52781 24.2811 5.44793C24.2777 6.36804 24.5177 7.27276 24.9769 8.07062C25.436 8.86848 26.0981 9.5312 26.8962 9.9918C27.6943 10.4524 28.6001 10.6945 29.522 10.6938C30.4545 10.6975 31.3708 10.4505 32.1747 9.97891C33.3492 12.2912 33.9613 14.8472 33.9613 17.4397C33.9613 20.0322 33.3492 22.5882 32.1747 24.9006C31.3651 24.4351 30.4456 24.1938 29.5114 24.2016Z" fill="#FBFBFB"/>
</svg>
