<svg width="35" height="16" viewBox="0 0 35 16" fill="none" xmlns="http://www.w3.org/2000/svg">
<path d="M33.5384 0H1.46158C0.65562 0 0 0.65562 0 1.46159V14.0459C0 14.8518 0.65562 15.5075 1.46158 15.5075H13.7245C14.3989 14.0221 15.8812 13.0715 17.5 13.0715C19.1188 13.0715 20.6011 14.0221 21.276 15.4937L33.5384 15.5075C34.3444 15.5075 35 14.8518 35 14.0459V1.46159C35 0.65562 34.3444 0 33.5384 0ZM7.86961 11.8534C5.60375 11.8534 3.77261 10.0168 3.77261 7.75644C3.77261 7.2674 3.85953 6.8001 4.0171 6.3708C4.58223 4.78417 6.09276 3.65396 7.86961 3.65396C9.64642 3.65396 11.157 4.78417 11.7221 6.3708C11.8797 6.8001 11.9666 7.2674 11.9666 7.75644C11.9666 10.0168 10.1355 11.8534 7.86961 11.8534ZM27.1304 11.8534C24.8645 11.8534 23.0334 10.0168 23.0334 7.75644C23.0334 7.2674 23.1203 6.8001 23.2779 6.3708C23.843 4.78417 25.3536 3.65396 27.1304 3.65396C28.9072 3.65396 30.4178 4.78417 30.9829 6.3708C31.1405 6.8001 31.2274 7.2674 31.2274 7.75644C31.2274 10.0168 29.3962 11.8534 27.1304 11.8534Z" fill="#FBFBFB"/>
</svg>
