<svg width="35" height="35" viewBox="0 0 35 35" fill="none" xmlns="http://www.w3.org/2000/svg">
<path d="M35 2.20136C35 0.989605 34.0119 0 32.7944 0H2.20563C0.991521 0 0 0.986239 0 2.20136V24.4136C0 25.6254 0.988148 26.615 2.20563 26.615H32.7944C34.0085 26.615 35 25.6287 35 24.4136V2.20136ZM32.5583 23.6664C32.5583 23.9457 32.3323 24.1713 32.0524 24.1713H2.94758C2.66766 24.1713 2.4417 23.9457 2.4417 23.6664V2.94862C2.4417 2.66924 2.66766 2.44372 2.94758 2.44372H32.0524C32.3323 2.44372 32.5583 2.66924 32.5583 2.94862V23.6664Z" fill="#FBFBFB"/>
<path d="M21.9299 27.6143H13.0703V31.4077H21.9299V27.6143Z" fill="#FBFBFB"/>
<path d="M6.00038 32.4253C5.11678 32.4253 4.39844 33.1423 4.39844 34.0241V35.0037H30.5995V34.0241C30.5995 33.1423 29.8812 32.4253 28.9976 32.4253H6.00038Z" fill="#FBFBFB"/>
<path d="M3.45703 23.1699H31.5501V3.46191H3.45703V23.1699ZM10.1818 13.0584C10.2999 9.12016 13.5375 5.94939 17.507 5.94939C21.4764 5.94939 24.714 9.12016 24.8321 13.0584C24.8591 13.3479 24.8591 13.2099 24.8321 13.4993C24.714 17.4376 21.4764 20.6083 17.507 20.6083C13.5375 20.6083 10.2999 17.4376 10.1818 13.4993C10.1549 13.2099 10.1549 13.3479 10.1818 13.0584Z" fill="#FBFBFB"/>
<path d="M14.9693 7.4873C13.5191 8.12348 12.3556 9.28812 11.7148 10.7389C12.3118 10.3147 13.0571 9.96132 13.9171 9.70213C14.1802 8.83707 14.541 8.08982 14.9693 7.49067V7.4873Z" fill="#FBFBFB"/>
<path d="M20.0312 19.0626C21.4814 18.4264 22.645 17.2618 23.2857 15.811C22.6888 16.2352 21.9435 16.5886 21.0835 16.8478C20.8204 17.7128 20.4596 18.4601 20.0312 19.0592V19.0626Z" fill="#FBFBFB"/>
<path d="M21.3672 15.6791C24.6419 14.4337 24.6419 12.1111 21.3672 10.8657C21.664 12.4376 21.664 14.1072 21.3672 15.6791Z" fill="#FBFBFB"/>
<path d="M13.6396 15.6791C13.3429 14.1072 13.3429 12.4376 13.6396 10.8657C10.3649 12.1111 10.3649 14.4337 13.6396 15.6791Z" fill="#FBFBFB"/>
<path d="M19.9086 9.4067C18.6541 6.12485 16.3405 6.12485 15.0859 9.4067C16.6609 9.11049 18.3337 9.11049 19.9086 9.4067Z" fill="#FBFBFB"/>
<path d="M20.2504 16.0185C20.6787 14.2547 20.6787 12.289 20.2504 10.5252C18.4832 10.0977 16.5137 10.0977 14.7431 10.5252C14.3148 12.289 14.3148 14.2547 14.7431 16.0185C16.5103 16.446 18.4799 16.446 20.2504 16.0185Z" fill="#FBFBFB"/>
<path d="M15.0859 17.1279C16.3405 20.4098 18.6541 20.4098 19.9086 17.1279C18.3337 17.4241 16.6609 17.4241 15.0859 17.1279Z" fill="#FBFBFB"/>
<path d="M11.7148 15.811C12.3523 17.2618 13.5191 18.4264 14.9693 19.0626C14.541 18.4634 14.1802 17.7128 13.9171 16.8511C13.0605 16.5886 12.3152 16.2352 11.7148 15.8144V15.811Z" fill="#FBFBFB"/>
<path d="M23.2857 10.7389C22.6483 9.28812 21.4814 8.12348 20.0312 7.4873C20.4596 8.08645 20.8204 8.83707 21.0835 9.69877C21.9401 9.96132 22.6854 10.3147 23.2857 10.7355V10.7389Z" fill="#FBFBFB"/>
</svg>
