<svg width="35" height="35" viewBox="0 0 35 35" fill="none" xmlns="http://www.w3.org/2000/svg">
<path d="M35 2.20136C35 0.989605 34.0119 0 32.7944 0H2.20563C0.991521 0 0 0.986239 0 2.20136V24.4136C0 25.6254 0.988148 26.615 2.20563 26.615H32.7944C34.0085 26.615 35 25.6287 35 24.4136V2.20136ZM32.5583 23.6664C32.5583 23.9457 32.3323 24.1713 32.0524 24.1713H2.94758C2.66766 24.1713 2.4417 23.9457 2.4417 23.6664V2.94862C2.4417 2.66924 2.66766 2.44372 2.94758 2.44372H32.0524C32.3323 2.44372 32.5583 2.66924 32.5583 2.94862V23.6664Z" fill="#FBFBFB"/>
<path d="M21.9299 27.6143H13.0703V31.4077H21.9299V27.6143Z" fill="#FBFBFB"/>
<path d="M6.00038 32.4258C5.11678 32.4258 4.39844 33.1427 4.39844 34.0246V35.0041H30.5995V34.0246C30.5995 33.1427 29.8812 32.4258 28.9976 32.4258H6.00038Z" fill="#FBFBFB"/>
<path d="M3.45703 23.1699H31.5501V3.46191H3.45703V23.1699ZM10.1818 13.0584C10.2999 9.12016 13.5375 5.94939 17.507 5.94939C21.4764 5.94939 24.714 9.12016 24.8321 13.0584C24.8591 13.3479 24.8591 13.2099 24.8321 13.4993C24.714 17.4376 21.4764 20.6083 17.507 20.6083C13.5375 20.6083 10.2999 17.4376 10.1818 13.4993C10.1549 13.2099 10.1549 13.3479 10.1818 13.0584Z" fill="#FBFBFB"/>
<path d="M14.9693 7.4873C13.5191 8.12348 12.3556 9.28812 11.7148 10.7389C12.3118 10.3147 13.0571 9.96132 13.9171 9.70213C14.1802 8.83707 14.541 8.08982 14.9693 7.49067V7.4873Z" fill="#FBFBFB"/>
<path d="M20.0312 19.0631C21.4814 18.4269 22.645 17.2623 23.2857 15.8115C22.6888 16.2356 21.9435 16.5891 21.0835 16.8483C20.8204 17.7133 20.4596 18.4606 20.0312 19.0597V19.0631Z" fill="#FBFBFB"/>
<path d="M21.3672 15.6786C24.6419 14.4332 24.6419 12.1107 21.3672 10.8652C21.664 12.4372 21.664 14.1067 21.3672 15.6786Z" fill="#FBFBFB"/>
<path d="M13.6396 15.6786C13.3429 14.1067 13.3429 12.4372 13.6396 10.8652C10.3649 12.1107 10.3649 14.4332 13.6396 15.6786Z" fill="#FBFBFB"/>
<path d="M19.9086 9.4067C18.6541 6.12485 16.3405 6.12485 15.0859 9.4067C16.6609 9.11049 18.3337 9.11049 19.9086 9.4067Z" fill="#FBFBFB"/>
<path d="M20.2504 16.019C20.6787 14.2552 20.6787 12.2895 20.2504 10.5257C18.4832 10.0982 16.5137 10.0982 14.7431 10.5257C14.3148 12.2895 14.3148 14.2552 14.7431 16.019C16.5103 16.4465 18.4799 16.4465 20.2504 16.019Z" fill="#FBFBFB"/>
<path d="M15.0859 17.1279C16.3405 20.4098 18.6541 20.4098 19.9086 17.1279C18.3337 17.4241 16.6609 17.4241 15.0859 17.1279Z" fill="#FBFBFB"/>
<path d="M11.7148 15.8115C12.3523 17.2623 13.5191 18.4269 14.9693 19.0631C14.541 18.4639 14.1802 17.7133 13.9171 16.8516C13.0605 16.5891 12.3152 16.2356 11.7148 15.8149V15.8115Z" fill="#FBFBFB"/>
<path d="M23.2857 10.7389C22.6483 9.28812 21.4814 8.12348 20.0312 7.4873C20.4596 8.08645 20.8204 8.83707 21.0835 9.69877C21.9401 9.96132 22.6854 10.3147 23.2857 10.7355V10.7389Z" fill="#FBFBFB"/>
</svg>
